<?xml version="1.0" encoding="UTF-8"?>
<svg xmlns="http://www.w3.org/2000/svg" xmlns:xlink="http://www.w3.org/1999/xlink" version="1.2" >
<font id="Roboto Slab Light">
<font-face  font-family="Roboto Slab" units-per-em="2048" ascent="2146" descent="-555" font-style="normal" font-weight="300" font-stretch="normal" cap-height="1456" x-height="1082" underline-position="-150" underline-thickness="100" />
<missing-glyph  horiz-adv-x="498" d="" />
<glyph glyph-name="NULL" d="" />
<glyph glyph-name="&amp;#x0;" horiz-adv-x="498" d="" />
<glyph glyph-name="&amp;#xd;" unicode="&#xd;" horiz-adv-x="498" d="" />
<glyph glyph-name="space" unicode="&#x20;" horiz-adv-x="498" d="" />
<glyph glyph-name="uni0009" d="" />
<glyph glyph-name="uni0002" unicode="&#x2;" d="" />
<glyph glyph-name="exclam" unicode="&#x21;" horiz-adv-x="458" d="M273 1456 L154 1456 L154 478 L273 478 L273 1456 Z M285 167 L143 167 L143 0 L285 0 L285 167 Z " />
<glyph glyph-name="quotedbl" unicode="&#x22;" horiz-adv-x="711" d="M270 1560 L168 1560 L168 1338 L166 1083 L237 1083 L270 1344 L270 1560 Z M510 1560 L408 1560 L408 1341 L405 1083 L477 1083 L510 1344 L510 1560 Z " />
<glyph glyph-name="numbersign" unicode="&#x23;" horiz-adv-x="1246" d="M654 0 L753 0 L830 410 L1104 410 L1104 503 L848 503 L931 944 L1179 944 L1179 1040 L949 1040 L1028 1456 L929 1456 L850 1040 L535 1040 L614 1456 L515 1456 L436 1040 L139 1040 L139 944 L418 944 L335 503 L63 503 L63 410 L318 410 L241 0 L340 0 L417 410 L731 410 L654 0 Z M517 944 L832 944 L749 503 L434 503 L517 944 Z " />
<glyph glyph-name="dollar" unicode="&#x24;" horiz-adv-x="1097" d="M862 359 C862 280 833 214 776 163 C718 111 640 85 542 85 C447 85 365 111 298 163 C230 215 196 300 196 418 L85 418 L82 412 C79 271 118 166 197 97 C276 28 376 -11 497 -19 L497 -208 L599 -208 L599 -18 C716 -9 810 29 879 96 C948 162 982 250 982 361 C982 472 949 559 883 620 C816 681 714 734 577 780 C448 823 361 867 316 914 C271 960 248 1021 248 1097 C248 1176 274 1241 325 1293 C376 1344 450 1370 549 1370 C644 1370 719 1338 773 1275 C826 1212 853 1129 853 1028 L965 1028 L968 1033 C971 1294 835 1454 602 1475 L602 1677 L500 1677 L500 1475 C385 1466 295 1427 228 1359 C161 1291 128 1203 128 1095 C128 982 161 895 228 833 C295 771 397 718 536 674 C657 631 742 587 790 540 C838 493 862 433 862 359 L862 359 Z " />
<glyph glyph-name="percent" unicode="&#x25;" horiz-adv-x="1458" d="M77 1099 C77 1015 103 944 156 887 C209 829 278 800 364 800 C448 800 516 829 569 887 C621 944 647 1015 647 1099 L647 1176 C647 1261 621 1332 569 1390 C516 1448 447 1477 362 1477 C277 1477 208 1448 156 1390 C103 1332 77 1261 77 1176 L77 1099 Z M174 1176 C174 1235 190 1285 223 1327 C256 1369 302 1390 362 1390 C422 1390 468 1369 501 1327 C534 1285 550 1235 550 1176 L550 1099 C550 1040 534 990 502 949 C469 908 423 887 364 887 C303 887 256 908 223 949 C190 990 174 1040 174 1099 L174 1176 Z M810 279 C810 194 836 123 889 66 C941 8 1010 -21 1096 -21 C1180 -21 1248 8 1301 66 C1354 123 1380 194 1380 279 L1380 357 C1380 441 1354 512 1301 570 C1248 628 1179 657 1094 657 C1009 657 941 628 889 570 C836 512 810 441 810 357 L810 279 Z M906 357 C906 417 922 468 955 509 C988 550 1034 570 1094 570 C1155 570 1201 550 1234 509 C1267 468 1283 418 1283 357 L1283 279 C1283 220 1267 169 1234 128 C1201 87 1155 66 1096 66 C1035 66 988 87 955 129 C922 170 906 220 906 279 L906 357 Z M1151 1259 L1077 1307 L366 169 L440 121 L1151 1259 Z " />
<glyph glyph-name="ampersand" unicode="&#x26;" horiz-adv-x="1269" d="M356 784 C265 717 195 652 147 588 C98 523 74 451 74 371 C74 252 115 157 196 86 C277 15 387 -21 526 -21 C682 -21 817 37 930 141 L1052 0 L1190 0 L1192 5 L1007 222 C1098 338 1149 480 1149 651 L1038 651 C1038 519 1000 400 935 305 L524 785 L682 907 C795 994 857 1071 857 1192 C857 1274 829 1342 773 1396 C716 1450 640 1477 544 1477 C337 1477 212 1358 212 1147 C212 1031 262 929 370 794 L356 784 Z M526 80 C418 80 336 108 279 164 C222 219 193 288 193 371 C193 414 206 460 233 511 C260 562 311 618 388 681 L435 717 C438 712 442 708 449 701 L863 219 C770 130 649 80 526 80 L526 80 Z M332 1149 C332 1213 350 1267 387 1310 C424 1353 476 1375 544 1375 C607 1375 656 1358 691 1323 C726 1288 744 1245 744 1192 C744 1117 715 1053 636 993 L459 861 C374 965 332 1061 332 1149 L332 1149 Z " />
<glyph glyph-name="quotesingle" unicode="&#x27;" horiz-adv-x="438" d="M276 1560 L174 1560 L174 1356 L166 1090 L237 1090 L276 1365 L276 1560 Z " />
<glyph glyph-name="parenleft" unicode="&#x28;" horiz-adv-x="636" d="M114 573 C114 325 160 107 252 -81 C343 -269 447 -396 562 -463 L568 -463 L594 -393 C497 -322 413 -198 341 -23 C269 152 233 350 233 571 L233 591 C233 812 269 1010 341 1185 C413 1360 497 1482 594 1551 L568 1624 L562 1624 C448 1559 345 1431 253 1239 C160 1047 114 830 114 588 L114 573 Z " />
<glyph glyph-name="parenright" unicode="&#x29;" horiz-adv-x="629" d="M491 588 C491 830 445 1047 352 1239 C259 1431 155 1560 42 1625 L36 1624 L11 1555 C104 1487 188 1364 262 1187 C335 1009 372 810 372 591 L372 571 C372 350 336 151 264 -26 C191 -203 107 -325 11 -393 L36 -462 L42 -463 C157 -396 260 -269 353 -81 C445 107 491 325 491 573 L491 588 Z " />
<glyph glyph-name="asterisk" unicode="&#x2a;" horiz-adv-x="952" d="M181 700 L266 639 L470 942 L683 637 L769 700 L546 994 L879 1109 L846 1210 L522 1083 L530 1456 L426 1456 L430 1086 L98 1209 L66 1108 L398 1000 L181 700 Z " />
<glyph glyph-name="plus" unicode="&#x2b;" horiz-adv-x="1145" d="M627 1206 L507 1206 L507 740 L73 740 L73 628 L507 628 L507 146 L627 146 L627 628 L1071 628 L1071 740 L627 740 L627 1206 Z " />
<glyph glyph-name="comma" unicode="&#x2c;" horiz-adv-x="392" d="M271 188 L152 188 L152 46 C152 -59 123 -141 60 -229 L131 -281 C218 -200 271 -75 271 48 L271 188 Z " />
<glyph glyph-name="hyphen" unicode="&#x2d;" horiz-adv-x="793" d="M632 671 L154 671 L154 570 L632 570 L632 671 Z " />
<glyph glyph-name="period" unicode="&#x2e;" horiz-adv-x="466" d="M282 164 L145 164 L145 0 L282 0 L282 164 Z " />
<glyph glyph-name="slash" unicode="&#x2f;" horiz-adv-x="798" d="M716 1456 L608 1456 L0 -125 L108 -125 L716 1456 Z " />
<glyph glyph-name="zero" unicode="0" horiz-adv-x="1158" d="M1026 890 C1026 1077 986 1222 906 1324 C825 1426 714 1477 572 1477 C431 1477 320 1426 241 1324 C161 1222 121 1077 121 890 L121 565 C121 378 161 233 242 132 C322 30 433 -21 574 -21 C716 -21 827 30 907 131 C986 232 1026 377 1026 565 L1026 890 Z M906 547 C906 250 790 80 574 80 C359 80 240 251 240 547 L240 910 C240 1207 356 1375 572 1375 C789 1375 906 1209 906 910 L906 547 Z " />
<glyph glyph-name="one" unicode="1" horiz-adv-x="831" d="M114 0 L756 0 L756 88 L495 101 L495 1460 L88 1372 L88 1288 L375 1329 L375 101 L114 88 L114 0 Z " />
<glyph glyph-name="two" unicode="2" horiz-adv-x="1116" d="M1006 0 L1006 306 L900 306 L890 101 L255 101 L253 106 L655 560 C744 661 814 753 865 836 C915 918 940 999 940 1079 C940 1200 903 1297 828 1369 C753 1441 652 1477 527 1477 C386 1477 275 1435 194 1351 C112 1267 73 1164 76 1043 L78 1037 L189 1037 C189 1140 218 1222 275 1283 C332 1344 416 1375 527 1375 C620 1375 692 1348 743 1293 C794 1238 820 1165 820 1075 C820 1014 802 950 766 883 C729 816 667 733 578 633 L101 92 L101 0 L1006 0 Z " />
<glyph glyph-name="three" unicode="3" horiz-adv-x="1102" d="M374 691 L512 691 C737 691 863 595 863 391 C863 191 741 80 534 80 C432 80 349 109 285 168 C220 227 188 302 188 395 L77 395 L75 389 C72 260 116 160 207 88 C298 15 407 -21 534 -21 C665 -21 773 16 857 90 C940 164 982 266 982 395 C982 563 892 693 711 745 C788 774 848 819 891 880 C934 940 955 1004 955 1073 C955 1200 917 1299 840 1370 C763 1441 659 1477 530 1477 C403 1477 299 1439 216 1364 C133 1289 93 1194 96 1081 L98 1075 L210 1075 C210 1165 240 1238 300 1293 C359 1348 436 1375 530 1375 C731 1375 835 1258 835 1077 C835 994 808 926 753 873 C698 820 618 793 512 793 L374 793 L374 691 Z " />
<glyph glyph-name="four" unicode="4" horiz-adv-x="1178" d="M864 1456 L733 1456 L63 436 L63 368 L745 368 L745 101 L582 88 L582 0 L1027 0 L1027 88 L864 101 L864 368 L1092 368 L1092 469 L864 469 L864 1456 Z M688 1192 L739 1301 L745 1299 L745 469 L205 469 L688 1192 Z " />
<glyph glyph-name="five" unicode="5" horiz-adv-x="1070" d="M924 1219 L924 1456 L192 1456 L112 659 L209 643 C253 763 342 822 529 822 C626 822 701 789 755 724 C808 658 835 571 835 462 C835 214 728 80 511 80 C418 80 344 106 289 158 C234 210 206 285 206 383 L99 383 L97 377 C94 246 132 147 212 80 C291 13 391 -21 511 -21 C659 -21 770 23 844 111 C918 199 955 317 955 464 C955 608 917 723 841 808 C765 893 665 935 541 933 C466 931 406 921 362 903 C318 885 278 859 241 826 L295 1345 L815 1345 L827 1219 L924 1219 Z " />
<glyph glyph-name="six" unicode="6" horiz-adv-x="1124" d="M615 1477 C470 1477 352 1422 260 1311 C167 1200 121 1039 121 827 L121 562 C121 377 164 233 250 132 C336 30 447 -21 582 -21 C713 -21 819 26 901 119 C982 212 1023 331 1023 474 C1023 619 985 736 909 826 C833 916 730 961 599 961 C448 961 320 893 240 789 L240 838 C240 1019 274 1153 343 1242 C412 1331 502 1375 615 1375 C719 1375 788 1356 864 1315 L893 1411 C817 1454 715 1477 615 1477 L615 1477 Z M575 863 C680 863 761 827 818 756 C875 685 903 591 903 474 C903 364 874 271 816 195 C757 118 679 80 582 80 C481 80 398 121 335 203 C272 285 240 402 240 553 L240 638 C262 704 303 758 364 800 C424 842 494 863 575 863 L575 863 Z " />
<glyph glyph-name="seven" unicode="7" horiz-adv-x="1115" d="M1031 1456 L76 1456 L76 1149 L182 1149 L190 1354 L907 1354 C761 1179 644 992 557 793 C469 593 411 369 382 122 L372 0 L492 0 L502 122 C530 372 586 593 670 786 C753 979 874 1168 1031 1354 L1031 1456 Z " />
<glyph glyph-name="eight" unicode="8" horiz-adv-x="1127" d="M987 1081 C987 1206 947 1303 867 1373 C786 1442 684 1477 559 1477 C433 1477 331 1442 252 1373 C173 1304 133 1206 133 1081 C133 924 230 800 383 747 C294 720 224 674 171 611 C118 547 92 472 92 386 C92 255 135 154 222 84 C308 14 421 -21 561 -21 C698 -21 810 14 897 85 C984 155 1028 255 1028 386 C1028 471 1001 545 948 609 C894 673 823 719 735 746 C812 773 873 816 919 875 C964 934 987 1002 987 1081 L987 1081 Z M909 385 C909 290 876 216 811 162 C745 107 662 80 561 80 C457 80 373 107 308 161 C243 215 211 290 211 385 C211 477 244 552 309 610 C374 667 458 696 559 696 C658 696 742 667 809 610 C876 552 909 477 909 385 L909 385 Z M868 1082 C868 996 839 927 781 876 C723 824 650 798 561 798 C470 798 395 824 338 876 C281 927 252 996 252 1082 C252 1171 281 1242 338 1295 C395 1348 469 1375 559 1375 C646 1375 720 1347 779 1292 C838 1236 868 1166 868 1082 L868 1082 Z " />
<glyph glyph-name="nine" unicode="9" horiz-adv-x="1138" d="M505 80 C394 80 312 97 221 140 L199 40 C294 -1 402 -21 505 -21 C654 -21 772 32 860 137 C947 242 991 400 991 613 L991 918 C991 1105 949 1245 866 1338 C782 1431 669 1477 527 1477 C401 1477 296 1427 211 1328 C126 1229 84 1105 84 958 C84 811 125 692 206 601 C287 509 393 463 526 463 C671 463 795 532 867 653 L867 611 C867 250 732 80 505 80 L505 80 Z M526 564 C428 564 351 602 294 677 C237 752 208 845 208 958 C208 1073 239 1172 300 1253 C361 1334 438 1375 532 1375 C740 1375 867 1228 867 927 L867 795 C842 730 801 675 743 631 C685 586 613 564 526 564 L526 564 Z " />
<glyph glyph-name="colon" unicode="&#x3a;" horiz-adv-x="389" d="M268 164 L131 164 L131 0 L268 0 L268 164 Z M268 1080 L131 1080 L131 916 L268 916 L268 1080 Z " />
<glyph glyph-name="semicolon" unicode="&#x3b;" horiz-adv-x="391" d="M272 1082 L135 1082 L135 918 L272 918 L272 1082 Z M276 188 L157 188 L157 46 C157 -59 128 -141 65 -229 L136 -281 C223 -200 276 -75 276 48 L276 188 Z " />
<glyph glyph-name="less" unicode="&#x3c;" horiz-adv-x="1022" d="M903 850 L903 976 L76 598 L76 501 L903 122 L903 248 L289 516 L181 544 L181 550 L289 578 L903 850 Z " />
<glyph glyph-name="equal" unicode="&#x3d;" horiz-adv-x="1127" d="M981 939 L147 939 L147 833 L981 833 L981 939 Z M981 528 L147 528 L147 422 L981 422 L981 528 Z " />
<glyph glyph-name="greater" unicode="&#x3e;" horiz-adv-x="1056" d="M756 573 L864 544 L864 538 L756 511 L125 237 L125 113 L969 492 L969 589 L125 967 L125 844 L756 573 Z " />
<glyph glyph-name="question" unicode="&#x3f;" horiz-adv-x="925" d="M480 404 C480 468 485 515 494 546 C503 577 528 610 569 645 C650 721 713 794 758 864 C802 933 824 1013 824 1103 C824 1218 790 1309 723 1376 C655 1443 561 1477 442 1477 C331 1477 241 1445 170 1382 C99 1319 64 1232 66 1122 L68 1116 L179 1116 C180 1194 204 1256 252 1302 C300 1347 363 1370 442 1370 C610 1370 704 1273 704 1102 C704 1025 687 961 654 910 C621 859 568 796 497 723 C435 666 397 621 383 587 C369 552 362 491 361 404 L480 404 Z M496 154 L358 154 L358 0 L496 0 L496 154 Z " />
<glyph glyph-name="at" unicode="&#x40;" horiz-adv-x="1809" d="M1715 513 C1726 796 1667 1018 1536 1179 C1405 1340 1209 1420 948 1420 C698 1420 495 1334 339 1161 C182 988 98 761 86 478 C73 190 136 -37 275 -204 C414 -370 610 -453 863 -453 C926 -453 992 -445 1061 -429 C1130 -413 1185 -391 1228 -364 L1197 -289 C1156 -312 1105 -331 1045 -346 C985 -361 926 -368 867 -368 C642 -368 469 -290 348 -135 C226 21 171 225 184 478 C195 734 271 941 411 1098 C550 1255 728 1333 944 1333 C1185 1333 1362 1261 1474 1118 C1586 974 1636 772 1623 513 C1616 380 1586 273 1531 190 C1476 107 1401 65 1306 65 C1269 65 1238 81 1211 113 C1184 145 1174 205 1181 293 L1231 867 L1228 867 L1230 869 C1184 905 1142 932 1104 950 C1065 968 1015 977 953 977 C841 977 746 926 667 824 C588 721 541 585 526 416 C513 284 530 178 575 99 C620 19 687 -21 774 -21 C911 -21 1014 43 1085 171 C1106 51 1181 -21 1285 -21 C1422 -21 1527 32 1598 138 C1669 244 1708 369 1715 513 L1715 513 Z M636 416 C667 725 790 886 969 886 C1032 886 1084 867 1127 836 L1080 293 C1079 288 1079 284 1079 277 C1044 201 1003 149 956 120 C909 91 857 77 800 77 C736 77 690 108 662 169 C634 230 625 313 636 416 L636 416 Z " />
<glyph glyph-name="A" unicode="A" horiz-adv-x="1485" d="M55 0 L413 0 L413 88 L286 98 L407 424 L1061 424 L1181 98 L1054 88 L1054 0 L1413 0 L1413 88 L1304 96 L792 1456 L679 1456 L162 96 L55 88 L55 0 Z M733 1301 L739 1301 L1022 531 L447 531 L733 1301 Z " />
<glyph glyph-name="B" unicode="B" horiz-adv-x="1322" d="M234 1456 L71 1456 L71 1367 L234 1354 L234 101 L71 88 L71 0 L737 0 C878 0 991 35 1076 105 C1160 175 1202 275 1202 405 C1202 493 1174 571 1119 638 C1064 705 992 747 903 763 C976 784 1033 823 1076 878 C1118 933 1139 998 1139 1073 C1139 1329 962 1456 659 1456 L234 1456 Z M756 702 C862 702 943 674 999 618 C1054 562 1082 490 1082 403 C1082 308 1051 234 990 181 C929 128 844 101 737 101 L353 101 L353 702 L756 702 Z M353 1354 L659 1354 C894 1354 1019 1261 1019 1077 C1019 897 899 803 688 803 L353 803 L353 1354 Z " />
<glyph glyph-name="C" unicode="C" horiz-adv-x="1349" d="M1230 1256 C1185 1319 1120 1371 1035 1414 C950 1456 853 1477 745 1477 C554 1477 399 1408 281 1270 C162 1131 103 954 103 737 L103 718 C103 502 162 325 281 187 C400 48 552 -21 739 -21 C847 -21 945 0 1032 42 C1119 84 1185 136 1230 199 L1230 455 L1137 455 L1120 234 C1044 143 903 80 739 80 C584 80 460 140 365 259 C270 378 222 531 222 718 L222 739 C222 926 270 1079 366 1198 C462 1316 591 1375 754 1375 C917 1375 1043 1313 1120 1221 L1137 1000 L1230 1000 L1230 1256 Z " />
<glyph glyph-name="D" unicode="D" horiz-adv-x="1401" d="M234 1456 L71 1456 L71 1367 L234 1354 L234 101 L71 88 L71 0 L657 0 C835 0 982 59 1098 177 C1214 295 1272 447 1272 634 L1272 821 C1272 1007 1214 1159 1098 1278 C982 1397 835 1456 657 1456 L234 1456 Z M657 1354 C800 1354 919 1304 1012 1203 C1105 1102 1152 976 1152 824 L1152 634 C1152 480 1106 353 1013 252 C920 151 801 101 657 101 L353 101 L353 1354 L657 1354 Z " />
<glyph glyph-name="E" unicode="E" horiz-adv-x="1286" d="M950 807 L353 807 L353 1354 L1036 1354 L1045 1136 L1151 1136 L1151 1456 L234 1456 L71 1456 L71 1367 L234 1354 L234 101 L71 88 L71 0 L1156 0 L1156 319 L1050 319 L1041 101 L353 101 L353 705 L950 705 L950 807 Z " />
<glyph glyph-name="F" unicode="F" horiz-adv-x="1258" d="M71 0 L516 0 L516 88 L353 101 L353 682 L961 682 L961 785 L353 785 L353 1354 L1048 1354 L1057 1136 L1163 1136 L1163 1456 L71 1456 L71 1367 L234 1354 L234 101 L71 88 L71 0 Z " />
<glyph glyph-name="G" unicode="G" horiz-adv-x="1420" d="M1239 651 L840 651 L840 554 L1120 549 L1120 196 C1093 168 1045 142 978 117 C911 92 830 80 735 80 C576 80 449 139 356 257 C262 375 215 529 215 718 L215 751 C215 935 263 1085 358 1201 C453 1317 584 1375 749 1375 C916 1375 1042 1320 1121 1233 L1142 1020 L1235 1020 L1235 1273 C1130 1400 959 1477 740 1477 C547 1477 392 1410 273 1275 C154 1140 95 965 95 749 L95 718 C95 499 154 321 273 184 C392 47 546 -21 735 -21 C864 -21 972 -2 1058 38 C1144 77 1204 117 1239 160 L1239 651 Z " />
<glyph glyph-name="H" unicode="H" horiz-adv-x="1537" d="M234 1354 L234 101 L71 88 L71 0 L516 0 L516 88 L353 101 L353 670 L1181 670 L1181 101 L1018 88 L1018 0 L1463 0 L1463 88 L1300 101 L1300 1354 L1463 1367 L1463 1456 L1300 1456 L1181 1456 L1018 1456 L1018 1367 L1181 1354 L1181 772 L353 772 L353 1354 L516 1367 L516 1456 L71 1456 L71 1367 L234 1354 Z " />
<glyph glyph-name="I" unicode="I" horiz-adv-x="627" d="M254 1354 L254 101 L91 88 L91 0 L537 0 L537 88 L374 101 L374 1354 L537 1367 L537 1456 L91 1456 L91 1367 L254 1354 Z " />
<glyph glyph-name="J" unicode="J" horiz-adv-x="1158" d="M917 1456 L634 1456 L634 1367 L797 1354 L797 413 C797 312 768 231 711 171 C654 110 581 80 492 80 C284 80 168 190 168 401 L56 401 L54 395 C51 259 89 156 168 85 C247 14 355 -21 492 -21 C617 -21 720 18 799 97 C878 175 917 280 917 413 L917 1354 L1080 1367 L1080 1456 L917 1456 Z " />
<glyph glyph-name="K" unicode="K" horiz-adv-x="1417" d="M71 0 L516 0 L516 88 L353 101 L353 685 L553 685 L1076 96 L938 88 L938 0 L1353 0 L1353 88 L1222 100 L660 740 L1181 1355 L1309 1367 L1309 1456 L902 1456 L902 1367 L1042 1359 L552 786 L353 786 L353 1354 L516 1367 L516 1456 L71 1456 L71 1367 L234 1354 L234 101 L71 88 L71 0 Z " />
<glyph glyph-name="L" unicode="L" horiz-adv-x="1178" d="M1074 0 L1074 306 L968 306 L959 101 L354 101 L354 1354 L517 1367 L517 1456 L354 1456 L234 1456 L71 1456 L71 1367 L234 1354 L234 101 L71 88 L71 0 L1074 0 Z " />
<glyph glyph-name="M" unicode="M" horiz-adv-x="1861" d="M1508 643 L1508 101 L1345 88 L1345 0 L1790 0 L1790 88 L1627 101 L1627 1354 L1790 1367 L1790 1456 L1469 1456 L932 174 L926 174 L391 1456 L234 1456 L71 1456 L71 1367 L234 1354 L234 101 L71 88 L71 0 L516 0 L516 88 L353 101 L353 643 L342 1275 L348 1276 L888 0 L971 0 L1512 1282 L1518 1280 L1508 643 Z " />
<glyph glyph-name="N" unicode="N" horiz-adv-x="1536" d="M1306 1456 L1024 1456 L1024 1367 L1187 1354 L1187 207 L1181 206 L354 1456 L234 1456 L71 1456 L71 1367 L234 1354 L234 101 L71 88 L71 0 L517 0 L517 88 L354 101 L354 1251 L360 1252 L1187 0 L1306 0 L1306 1354 L1469 1367 L1469 1456 L1306 1456 Z " />
<glyph glyph-name="O" unicode="O" horiz-adv-x="1468" d="M1357 737 C1357 955 1299 1133 1182 1271 C1065 1408 913 1477 726 1477 C542 1477 393 1408 278 1271 C163 1133 106 955 106 737 L106 718 C106 500 164 322 279 185 C394 48 543 -21 727 -21 C914 -21 1065 48 1182 185 C1299 322 1357 499 1357 718 L1357 737 Z M1237 718 C1237 527 1192 374 1101 258 C1010 141 885 83 727 83 C573 83 451 141 361 258 C271 375 226 528 226 718 L226 739 C226 928 271 1080 361 1197 C450 1314 572 1372 726 1372 C883 1372 1007 1314 1099 1197 C1191 1080 1237 928 1237 739 L1237 718 Z " />
<glyph glyph-name="P" unicode="P" horiz-adv-x="1276" d="M234 1456 L71 1456 L71 1367 L234 1354 L234 101 L71 88 L71 0 L516 0 L516 88 L353 101 L353 605 L685 605 C838 605 956 644 1040 721 C1123 798 1165 902 1165 1031 C1165 1159 1123 1262 1040 1340 C956 1417 838 1456 685 1456 L234 1456 Z M353 1354 L685 1354 C806 1354 896 1323 956 1262 C1016 1200 1046 1122 1046 1029 C1046 936 1016 860 956 799 C895 738 805 707 685 707 L353 707 L353 1354 Z " />
<glyph glyph-name="Q" unicode="Q" horiz-adv-x="1463" d="M1357 737 C1357 955 1299 1133 1182 1271 C1065 1408 913 1477 726 1477 C542 1477 393 1408 278 1271 C163 1133 106 955 106 737 L106 718 C106 500 164 322 279 185 C394 48 543 -21 727 -21 C807 -21 883 -7 954 21 L1282 -212 L1365 -136 L1064 79 C1156 141 1228 228 1280 339 C1331 450 1357 576 1357 718 L1357 737 Z M1237 718 C1237 527 1192 374 1101 258 C1010 141 885 83 727 83 C573 83 451 141 361 258 C271 375 226 528 226 718 L226 739 C226 928 271 1080 361 1197 C450 1314 572 1372 726 1372 C883 1372 1007 1314 1099 1197 C1191 1080 1237 928 1237 739 L1237 718 Z " />
<glyph glyph-name="R" unicode="R" horiz-adv-x="1374" d="M71 1455 L71 1367 L234 1353 L234 101 L71 87 L71 0 L516 0 L516 87 L353 101 L353 667 L719 667 C920 663 1039 553 1039 377 L1039 248 C1039 179 1053 120 1081 72 C1109 24 1158 0 1229 0 L1305 0 L1305 89 L1256 92 C1191 96 1159 143 1159 246 L1159 379 C1159 556 1085 676 905 721 C986 748 1049 792 1094 853 C1139 914 1161 982 1161 1058 C1161 1315 988 1455 676 1455 L71 1455 Z M353 1353 L676 1353 C920 1353 1041 1246 1041 1059 C1041 971 1011 901 950 848 C889 795 793 769 662 769 L353 769 L353 1353 Z " />
<glyph glyph-name="S" unicode="S" horiz-adv-x="1220" d="M1099 1273 C1003 1398 831 1477 619 1477 C472 1477 351 1442 258 1372 C165 1302 118 1211 118 1100 C118 991 159 905 241 841 C323 777 444 725 603 685 C750 646 854 602 913 552 C972 501 1002 436 1002 357 C1002 274 967 207 896 156 C825 105 732 80 617 80 C456 80 312 133 224 233 L207 446 L109 446 L109 191 C222 55 409 -21 617 -21 C764 -21 885 13 980 82 C1075 151 1122 243 1122 359 C1122 582 955 710 642 790 C493 827 389 871 329 920 C268 969 238 1030 238 1103 C238 1180 272 1245 339 1297 C406 1349 499 1375 619 1375 C786 1375 912 1321 984 1230 L1001 1024 L1099 1024 L1099 1273 Z " />
<glyph glyph-name="T" unicode="T" horiz-adv-x="1280" d="M60 1456 L60 1149 L167 1149 L175 1354 L579 1354 L579 101 L416 88 L416 0 L862 0 L862 88 L699 101 L699 1354 L1103 1354 L1112 1149 L1218 1149 L1218 1456 L60 1456 Z " />
<glyph glyph-name="U" unicode="U" horiz-adv-x="1487" d="M342 1456 L223 1456 L60 1456 L60 1367 L223 1354 L223 469 C223 311 271 190 366 106 C461 21 586 -21 739 -21 C895 -21 1022 21 1119 105 C1216 189 1264 310 1264 469 L1264 1354 L1427 1367 L1427 1456 L982 1456 L982 1367 L1145 1354 L1145 469 C1145 344 1107 248 1032 181 C957 114 859 80 739 80 C621 80 525 114 452 182 C379 249 342 345 342 469 L342 1354 L505 1367 L505 1456 L342 1456 Z " />
<glyph glyph-name="V" unicode="V" horiz-adv-x="1455" d="M430 1456 L52 1456 L52 1367 L164 1358 L671 0 L784 0 L1290 1358 L1403 1367 L1403 1456 L1025 1456 L1025 1367 L1161 1356 L760 246 L731 149 L725 149 L696 246 L294 1356 L430 1367 L430 1456 Z " />
<glyph glyph-name="W" unicode="W" horiz-adv-x="1937" d="M423 1456 L43 1456 L43 1367 L152 1359 L491 0 L604 0 L946 1117 L982 1270 L988 1270 L1026 1117 L1365 0 L1478 0 L1817 1359 L1926 1367 L1926 1456 L1546 1456 L1546 1367 L1694 1356 L1467 412 L1420 188 L1414 187 L1361 412 L1042 1456 L929 1456 L609 412 L555 190 L549 190 L505 412 L275 1356 L423 1367 L423 1456 Z " />
<glyph glyph-name="X" unicode="X" horiz-adv-x="1397" d="M54 0 L453 0 L453 88 L315 94 L700 647 L1084 94 L947 88 L947 0 L1346 0 L1346 88 L1223 98 L770 738 L1207 1357 L1329 1367 L1329 1456 L930 1456 L930 1367 L1067 1361 L698 829 L330 1361 L469 1367 L469 1456 L69 1456 L69 1367 L191 1357 L629 738 L176 98 L54 88 L54 0 Z " />
<glyph glyph-name="Y" unicode="Y" horiz-adv-x="1423" d="M455 1456 L55 1456 L55 1367 L178 1357 L648 539 L648 101 L485 88 L485 0 L931 0 L931 88 L768 101 L768 532 L1242 1357 L1366 1367 L1366 1456 L965 1456 L965 1367 L1105 1357 L709 647 L315 1357 L455 1367 L455 1456 Z " />
<glyph glyph-name="Z" unicode="Z" horiz-adv-x="1220" d="M1128 0 L1128 306 L1021 306 L1012 101 L234 101 L1095 1369 L1095 1456 L118 1456 L118 1149 L225 1149 L233 1354 L949 1354 L92 92 L92 0 L1128 0 Z " />
<glyph glyph-name="bracketleft" unicode="&#x5b;" horiz-adv-x="548" d="M486 1664 L157 1664 L157 -312 L486 -312 L486 -210 L276 -210 L276 1562 L486 1562 L486 1664 Z " />
<glyph glyph-name="backslash" unicode="&#x5c;" horiz-adv-x="810" d="M644 -125 L760 -125 L152 1456 L36 1456 L644 -125 Z " />
<glyph glyph-name="bracketright" unicode="&#x5d;" horiz-adv-x="526" d="M23 1562 L233 1562 L233 -210 L23 -210 L23 -312 L353 -312 L353 1664 L23 1664 L23 1562 Z " />
<glyph glyph-name="asciicircum" unicode="&#x5e;" horiz-adv-x="844" d="M380 1213 L410 1318 L416 1318 L445 1213 L642 729 L758 729 L459 1456 L370 1456 L71 729 L186 729 L380 1213 Z " />
<glyph glyph-name="underscore" unicode="&#x5f;" horiz-adv-x="1149" d="M1000 0 L119 0 L119 -101 L1000 -101 L1000 0 Z " />
<glyph glyph-name="grave" unicode="&#x60;" horiz-adv-x="562" d="M240 1476 L86 1476 L84 1471 L325 1210 L442 1210 L240 1476 Z " />
<glyph glyph-name="a" unicode="a" horiz-adv-x="1130" d="M1057 0 L1057 88 L949 95 C942 134 941 174 941 218 L941 750 C941 863 905 950 832 1011 C759 1072 663 1102 544 1102 C387 1102 242 1049 142 972 L141 764 L240 764 L250 909 C317 965 419 1000 539 1000 C718 1000 822 907 822 752 L822 609 L583 609 C436 609 319 580 233 521 C147 462 104 383 104 283 C104 190 133 116 191 61 C249 6 331 -21 437 -21 C520 -21 595 -2 662 35 C729 72 782 119 822 176 C822 121 828 73 844 0 L1057 0 Z M450 85 C309 85 223 163 223 279 C223 348 256 405 321 450 C386 495 472 517 581 517 L822 517 L822 300 C793 237 745 185 679 145 C613 105 537 85 450 85 L450 85 Z " />
<glyph glyph-name="b" unicode="b" horiz-adv-x="1133" d="M1027 532 C1027 705 990 843 917 947 C844 1050 742 1102 612 1102 C457 1102 346 1033 274 912 L274 1560 L-8 1560 L-8 1471 L155 1458 L155 0 L257 0 L270 163 C341 44 455 -21 614 -21 C743 -21 844 27 917 124 C990 220 1027 349 1027 511 L1027 532 Z M906 511 C906 380 880 276 827 199 C774 122 696 83 592 83 C433 83 327 163 274 288 L274 777 C299 842 337 895 388 936 C439 977 506 998 590 998 C694 998 773 955 826 869 C879 782 906 670 906 532 L906 511 Z " />
<glyph glyph-name="c" unicode="c" horiz-adv-x="1094" d="M559 80 C442 80 355 121 300 204 C245 287 217 392 217 520 L217 562 C217 688 245 793 301 876 C356 959 442 1000 558 1000 C679 1000 776 955 840 883 L859 691 L961 691 L956 927 C869 1035 725 1102 558 1102 C412 1102 299 1051 218 950 C137 849 97 719 97 562 L97 520 C97 361 137 232 218 131 C299 30 412 -21 559 -21 C669 -21 766 13 849 80 C932 147 971 231 968 331 L966 337 L860 337 C860 256 830 193 769 148 C708 103 638 80 559 80 L559 80 Z " />
<glyph glyph-name="d" unicode="d" horiz-adv-x="1216" d="M859 0 L1129 0 L1129 88 L966 101 L966 1560 L846 1560 L683 1560 L683 1471 L846 1458 L846 919 C773 1036 663 1102 512 1102 C381 1102 280 1050 207 947 C134 843 97 705 97 532 L97 511 C97 350 134 221 207 124 C280 27 381 -21 510 -21 C663 -21 777 43 849 156 L859 0 Z M218 532 C218 670 245 782 298 869 C351 955 430 998 535 998 C695 998 793 913 846 790 L846 278 C789 157 686 83 533 83 C428 83 349 122 297 199 C244 276 218 380 218 511 L218 532 Z " />
<glyph glyph-name="e" unicode="e" horiz-adv-x="1102" d="M574 -21 C746 -21 869 33 950 118 L899 200 C824 123 722 80 574 80 C469 80 384 121 319 204 C254 286 221 388 221 509 L221 538 L985 538 L985 640 C985 780 947 892 871 976 C795 1060 691 1102 558 1102 C432 1102 325 1051 236 949 C147 847 102 719 102 564 L102 509 C102 355 147 228 236 129 C325 29 438 -21 574 -21 L574 -21 Z M558 1000 C653 1000 728 968 783 905 C838 842 866 763 866 669 L866 639 L232 639 L230 644 C240 746 275 831 336 899 C396 966 470 1000 558 1000 L558 1000 Z " />
<glyph glyph-name="f" unicode="f" horiz-adv-x="725" d="M259 984 L259 101 L96 88 L96 0 L542 0 L542 88 L379 101 L379 984 L637 984 L637 1082 L379 1082 L379 1240 C379 1389 451 1476 582 1476 C627 1476 658 1471 690 1463 L705 1562 C658 1574 613 1581 570 1581 C374 1581 259 1457 259 1240 L259 1082 L80 1082 L80 984 L259 984 Z " />
<glyph glyph-name="g" unicode="g" horiz-adv-x="1148" d="M102 511 C102 350 139 221 212 124 C285 27 387 -21 517 -21 C668 -21 780 40 853 151 L853 14 C853 -202 748 -330 543 -330 C438 -330 343 -306 256 -265 L224 -366 C268 -388 320 -405 379 -418 C438 -431 493 -437 545 -437 C680 -437 785 -397 860 -316 C935 -235 973 -125 973 14 L973 1082 L872 1082 L858 909 C785 1032 672 1102 519 1102 C388 1102 286 1050 213 947 C139 843 102 705 102 532 L102 511 Z M222 532 C222 669 249 781 303 868 C356 955 436 998 541 998 C704 998 800 911 853 784 L853 282 C797 158 695 83 539 83 C434 83 355 122 302 200 C249 277 222 381 222 511 L222 532 Z " />
<glyph glyph-name="h" unicode="h" horiz-adv-x="1298" d="M225 1458 L225 101 L62 88 L62 0 L507 0 L507 88 L344 101 L344 762 C396 905 507 998 671 998 C752 998 816 973 863 922 C909 871 932 786 932 669 L932 101 L769 88 L769 0 L1215 0 L1215 88 L1052 101 L1052 667 C1052 964 926 1102 698 1102 C538 1102 416 1026 344 897 L344 1560 L62 1560 L62 1471 L225 1458 Z " />
<glyph glyph-name="i" unicode="i" horiz-adv-x="638" d="M89 0 L534 0 L534 88 L371 101 L371 1082 L89 1082 L89 993 L252 980 L252 101 L89 88 L89 0 Z M371 1560 L252 1560 L252 1392 L371 1392 L371 1560 Z " />
<glyph glyph-name="j" unicode="j" horiz-adv-x="562" d="M402 1082 L119 1082 L119 993 L282 980 L282 -89 C282 -249 212 -332 92 -332 C63 -332 20 -324 0 -317 L-13 -418 C24 -430 58 -437 99 -437 C290 -437 402 -312 402 -89 L402 1082 Z M396 1560 L276 1560 L276 1396 L396 1396 L396 1560 Z " />
<glyph glyph-name="k" unicode="k" horiz-adv-x="1194" d="M225 1458 L225 101 L62 88 L62 0 L507 0 L507 88 L344 101 L344 527 L483 527 L859 95 L745 88 L745 0 L1125 0 L1125 88 L1005 99 L584 588 L954 981 L1080 993 L1080 1082 L699 1082 L699 993 L798 986 L800 981 L471 630 L344 630 L344 1560 L62 1560 L62 1471 L225 1458 Z " />
<glyph glyph-name="l" unicode="l" horiz-adv-x="610" d="M236 1458 L236 101 L73 88 L73 0 L518 0 L518 88 L355 101 L355 1560 L73 1560 L73 1471 L236 1458 Z " />
<glyph glyph-name="m" unicode="m" horiz-adv-x="1959" d="M234 980 L234 101 L71 88 L71 0 L517 0 L517 88 L354 101 L354 760 C394 905 490 998 661 998 C744 998 810 970 858 914 C905 857 929 764 929 633 L929 101 L766 88 L766 0 L1212 0 L1212 88 L1049 101 L1049 649 C1049 664 1048 671 1048 682 C1060 774 1091 850 1142 909 C1192 968 1264 998 1357 998 C1441 998 1507 971 1554 916 C1601 861 1624 766 1624 633 L1624 102 L1461 88 L1461 0 L1908 0 L1908 88 L1745 102 L1745 631 C1745 952 1614 1102 1383 1102 C1210 1102 1088 1009 1023 857 C975 1022 862 1102 697 1102 C537 1102 420 1030 351 903 L340 1082 L71 1082 L71 993 L234 980 Z " />
<glyph glyph-name="n" unicode="n" horiz-adv-x="1319" d="M75 0 L521 0 L521 88 L358 101 L358 755 C405 902 510 998 678 998 C763 998 829 972 876 921 C922 870 945 782 945 658 L945 101 L782 88 L782 0 L1228 0 L1228 88 L1065 101 L1065 659 C1065 963 940 1102 705 1102 C544 1102 424 1026 355 893 L344 1082 L75 1082 L75 993 L238 980 L238 101 L75 88 L75 0 Z " />
<glyph glyph-name="o" unicode="o" horiz-adv-x="1152" d="M97 524 C97 364 141 233 228 132 C315 30 432 -21 577 -21 C721 -21 837 30 924 132 C1011 233 1054 364 1054 524 L1054 557 C1054 716 1010 847 923 949 C836 1051 720 1102 575 1102 C431 1102 315 1051 228 949 C141 847 97 716 97 557 L97 524 Z M217 557 C217 680 249 785 312 871 C375 957 463 1000 575 1000 C687 1000 775 957 839 871 C902 785 934 680 934 557 L934 524 C934 399 902 293 839 208 C776 123 688 80 577 80 C464 80 375 123 312 208 C249 293 217 399 217 524 L217 557 Z " />
<glyph glyph-name="p" unicode="p" horiz-adv-x="1197" d="M228 980 L228 -314 L65 -327 L65 -416 L510 -416 L510 -327 L347 -314 L347 146 C419 39 534 -21 686 -21 C815 -21 916 27 989 124 C1062 220 1099 349 1099 511 L1099 532 C1099 705 1062 843 989 947 C916 1050 814 1102 684 1102 C531 1102 416 1034 343 914 L328 1082 L65 1082 L65 993 L228 980 Z M979 511 C979 381 952 277 898 198 C843 119 764 80 659 80 C504 80 402 152 347 271 L347 791 C398 914 496 998 657 998 C762 998 842 955 897 868 C952 781 979 669 979 532 L979 511 Z " />
<glyph glyph-name="q" unicode="q" horiz-adv-x="1144" d="M97 511 C97 350 134 221 207 124 C280 27 381 -21 510 -21 C657 -21 768 37 841 142 L841 -314 L678 -327 L678 -416 L1124 -416 L1124 -327 L961 -314 L961 1082 L856 1082 L844 922 C771 1038 661 1102 512 1102 C381 1102 280 1050 207 947 C134 843 97 705 97 532 L97 511 Z M218 532 C218 670 245 783 298 870 C351 957 430 1000 535 1000 C688 1000 785 916 841 797 L841 269 C784 152 682 80 533 80 C428 80 349 119 297 198 C244 276 218 380 218 511 L218 532 Z " />
<glyph glyph-name="r" unicode="r" horiz-adv-x="823" d="M252 1082 L89 1082 L89 993 L252 980 L252 101 L89 88 L89 0 L534 0 L534 88 L371 101 L371 747 C412 895 509 985 660 985 L749 979 L765 1091 C746 1096 716 1102 685 1102 C540 1102 432 1022 371 889 L371 902 L356 1082 L252 1082 Z " />
<glyph glyph-name="s" unicode="s" horiz-adv-x="1025" d="M877 967 C794 1050 658 1102 499 1102 C384 1102 292 1074 222 1017 C152 960 117 890 117 807 C117 724 148 659 211 613 C273 566 368 529 497 501 C606 477 681 446 723 408 C764 370 785 326 785 275 C785 221 760 175 710 137 C660 99 592 80 505 80 C398 80 294 107 230 171 L213 325 L116 325 L116 107 C212 26 345 -21 505 -21 C625 -21 722 7 795 63 C868 118 904 191 904 281 C904 452 776 544 519 601 C406 626 331 654 294 687 C256 720 237 761 237 811 C237 862 259 906 303 944 C346 981 412 1000 499 1000 C618 1000 710 964 770 901 L784 748 L882 748 L877 967 Z " />
<glyph glyph-name="t" unicode="t" horiz-adv-x="733" d="M251 1359 L251 1082 L65 1082 L65 984 L251 984 L251 279 C251 71 340 -21 492 -21 C549 -21 611 -11 651 6 L633 95 C585 87 552 84 513 84 C428 84 372 138 372 279 L372 984 L610 984 L610 1082 L372 1082 L372 1359 L251 1359 Z " />
<glyph glyph-name="u" unicode="u" horiz-adv-x="1232" d="M903 0 L1153 0 L1153 88 L1008 101 L1008 1082 L888 1082 L734 1082 L734 993 L888 980 L888 309 C844 168 739 83 558 83 C475 83 412 112 367 169 C322 226 299 321 299 453 L299 1082 L180 1082 L46 1082 L46 993 L180 980 L180 455 C180 130 316 -21 544 -21 C704 -21 824 51 892 178 L903 0 Z " />
<glyph glyph-name="v" unicode="v" horiz-adv-x="1155" d="M411 1082 L47 1082 L47 993 L153 984 L536 0 L632 0 L1014 984 L1120 993 L1120 1082 L756 1082 L756 993 L891 983 L625 271 L587 144 L581 144 L546 271 L276 983 L411 993 L411 1082 Z " />
<glyph glyph-name="w" unicode="w" horiz-adv-x="1690" d="M419 1082 L56 1082 L56 993 L161 985 L447 0 L549 0 L786 740 L833 927 L839 927 L886 740 L1127 0 L1229 0 L1516 985 L1621 993 L1621 1082 L1257 1082 L1257 993 L1393 982 L1223 351 L1178 153 L1172 153 L1120 351 L889 1082 L787 1082 L556 351 L505 158 L499 158 L458 351 L283 982 L419 993 L419 1082 Z " />
<glyph glyph-name="x" unicode="x" horiz-adv-x="1192" d="M73 0 L439 0 L439 88 L328 93 L602 461 L877 93 L766 88 L766 0 L1132 0 L1132 88 L1010 99 L669 551 L995 982 L1116 993 L1116 1082 L749 1082 L749 993 L860 988 L601 640 L343 987 L455 993 L455 1082 L88 1082 L88 993 L210 982 L536 551 L194 99 L73 88 L73 0 Z " />
<glyph glyph-name="y" unicode="y" horiz-adv-x="1174" d="M1135 1082 L761 1082 L761 993 L893 983 L597 163 L591 163 L553 293 L289 983 L418 993 L418 1082 L46 1082 L46 993 L156 984 L540 13 L484 -132 C461 -191 434 -238 403 -275 C372 -312 331 -330 278 -330 C267 -330 215 -325 202 -323 L188 -423 C207 -430 255 -437 283 -437 C369 -437 434 -411 479 -360 C524 -309 560 -246 588 -173 L1025 984 L1135 993 L1135 1082 Z " />
<glyph glyph-name="z" unicode="z" horiz-adv-x="1080" d="M919 993 L919 1082 L119 1082 L119 775 L226 775 L234 979 L768 979 L116 88 L116 0 L967 0 L967 306 L860 306 L851 101 L263 101 L919 993 Z " />
<glyph glyph-name="braceleft" unicode="&#x7b;" horiz-adv-x="697" d="M660 -324 C489 -268 413 -133 413 58 L413 284 C413 429 353 543 230 595 C353 644 413 757 413 904 L413 1132 C413 1324 487 1463 658 1518 L631 1597 C509 1560 422 1502 371 1423 C320 1343 294 1246 294 1132 L294 904 C294 741 220 647 63 647 L63 543 C220 543 294 447 294 284 L294 58 C294 -55 320 -152 371 -231 C422 -310 509 -367 631 -404 L660 -324 Z " />
<glyph glyph-name="bar" unicode="&#x7c;" horiz-adv-x="426" d="M251 1456 L150 1456 L150 -270 L251 -270 L251 1456 Z " />
<glyph glyph-name="braceright" unicode="&#x7d;" horiz-adv-x="696" d="M55 -404 C177 -367 264 -310 316 -231 C367 -152 393 -55 393 58 L393 284 C393 447 465 543 624 543 L624 647 C465 647 393 741 393 904 L393 1132 C393 1246 367 1343 315 1423 C263 1502 176 1560 55 1597 L29 1518 C198 1463 273 1324 273 1132 L273 904 C273 753 335 641 467 594 C335 546 273 433 273 284 L273 58 C273 -131 196 -268 27 -324 L55 -404 Z " />
<glyph glyph-name="asciitilde" unicode="&#x7e;" horiz-adv-x="1376" d="M1137 755 C1137 690 1119 637 1083 594 C1046 551 1003 529 952 529 C875 529 809 561 724 637 C607 737 517 787 401 787 C320 787 253 757 200 696 C147 635 121 561 121 474 L217 459 C217 526 235 579 270 620 C305 660 348 680 401 680 C476 680 546 644 631 573 C690 520 743 482 792 459 C840 435 893 423 952 423 C1032 423 1099 454 1153 517 C1207 580 1234 654 1234 740 L1137 755 Z " />
<glyph glyph-name="nbspace" unicode="&#xa0;" horiz-adv-x="498" d="" />
<glyph glyph-name="exclamdown" unicode="&#xa1;" horiz-adv-x="456" d="M272 604 L153 604 L153 -374 L272 -374 L272 604 Z M284 1082 L142 1082 L142 898 L284 898 L284 1082 Z " />
<glyph glyph-name="cent" unicode="&#xa2;" horiz-adv-x="1088" d="M586 80 C469 80 382 121 327 204 C272 287 244 392 244 520 L244 562 C244 688 272 793 328 876 C383 959 469 1000 585 1000 C706 1000 803 955 867 883 L886 691 L988 691 L983 927 C907 1020 787 1083 646 1099 L646 1318 L526 1318 L526 1098 C397 1083 298 1027 229 929 C159 830 124 708 124 562 L124 520 C124 373 159 251 229 152 C298 53 397 -3 526 -17 L526 -245 L646 -245 L646 -17 C744 -5 828 34 897 99 C966 164 999 241 996 331 L994 337 L887 337 C887 256 857 193 796 148 C735 103 665 80 586 80 L586 80 Z " />
<glyph glyph-name="sterling" unicode="&#xa3;" horiz-adv-x="1164" d="M1073 0 L1073 306 L967 306 L957 101 L303 101 C364 186 400 323 400 466 L393 642 L841 642 L841 744 L390 744 L379 1040 C379 1252 483 1375 650 1375 C809 1375 907 1287 907 1090 L1018 1090 L1021 1096 C1023 1212 993 1305 930 1374 C867 1443 774 1477 650 1477 C531 1477 437 1438 366 1361 C295 1283 260 1176 260 1040 L271 744 L68 744 L68 642 L274 642 L281 466 C281 385 270 307 247 231 C224 154 189 111 142 101 L132 101 L132 0 L1073 0 Z " />
<glyph glyph-name="currency" unicode="&#xa4;" horiz-adv-x="1461" d="M1273 -27 L1360 60 L1197 224 C1274 329 1319 464 1319 608 C1319 756 1272 893 1189 1002 L1360 1177 L1273 1265 L1104 1093 C999 1182 865 1234 724 1234 C581 1234 449 1183 345 1094 L179 1264 L94 1177 L262 1006 C177 897 129 757 129 608 C129 461 173 329 253 221 L94 60 L179 -26 L334 132 C439 35 576 -20 724 -20 C871 -20 1008 34 1116 133 L1273 -27 Z M242 608 C242 750 289 871 383 972 C477 1072 591 1122 724 1122 C856 1122 969 1072 1064 972 C1158 871 1205 750 1205 608 C1205 465 1158 343 1064 242 C969 141 856 91 724 91 C591 91 477 141 383 242 C289 343 242 465 242 608 L242 608 Z " />
<glyph glyph-name="yen" unicode="&#xa5;" horiz-adv-x="1383" d="M1327 1456 L953 1456 L953 1367 L1059 1358 L693 732 L326 1358 L432 1367 L432 1456 L59 1456 L59 1367 L190 1357 L585 705 L216 705 L216 618 L631 618 L631 412 L216 412 L216 326 L631 326 L631 101 L468 88 L468 0 L914 0 L914 88 L751 101 L751 326 L1171 326 L1171 412 L751 412 L751 618 L1171 618 L1171 705 L800 705 L1195 1357 L1327 1367 L1327 1456 Z " />
<glyph glyph-name="brokenbar" unicode="&#xa6;" horiz-adv-x="461" d="M269 -270 L269 501 L150 501 L150 -270 L269 -270 Z M269 1456 L150 1456 L150 698 L269 698 L269 1456 Z " />
<glyph glyph-name="section" unicode="&#xa7;" horiz-adv-x="1213" d="M1100 431 C1100 541 1062 624 987 680 C912 735 792 785 627 828 C477 870 377 911 328 950 C279 989 254 1047 254 1123 C254 1196 284 1257 343 1304 C402 1351 490 1375 605 1375 C715 1375 801 1344 864 1281 C927 1218 958 1140 958 1046 L1070 1046 L1072 1052 C1075 1187 1035 1291 952 1366 C869 1440 753 1477 605 1477 C462 1477 348 1444 263 1379 C178 1314 135 1227 135 1120 C135 980 193 890 313 825 C172 780 90 682 90 551 C90 439 129 354 207 295 C285 236 405 187 566 146 C709 105 807 65 859 25 C910 -15 936 -70 936 -141 C936 -215 905 -276 843 -323 C781 -370 696 -393 587 -393 C482 -393 391 -367 316 -314 C241 -261 203 -177 203 -62 L92 -64 L90 -70 C87 -217 133 -324 230 -393 C327 -461 446 -495 587 -495 C730 -495 844 -463 929 -400 C1014 -337 1056 -250 1056 -139 C1056 4 993 92 868 159 C1015 203 1100 300 1100 431 L1100 431 Z M577 729 C732 684 839 640 896 598 C953 556 981 499 981 428 C981 316 889 231 736 214 C697 226 656 238 611 251 C448 296 341 339 288 378 C235 417 209 476 209 553 C209 668 284 752 435 771 C476 755 524 741 577 729 L577 729 Z " />
<glyph glyph-name="dieresis" unicode="&#xa8;" horiz-adv-x="972" d="M795 1456 L622 1456 L622 1299 L795 1299 L795 1456 Z M326 1456 L152 1456 L152 1299 L326 1299 L326 1456 Z " />
<glyph glyph-name="copyright" unicode="&#xa9;" horiz-adv-x="1595" d="M1007 596 C1007 441 934 372 791 372 C718 372 661 400 620 455 C579 510 558 581 558 669 L558 789 C558 875 579 946 620 1002 C661 1057 718 1085 791 1085 C932 1085 1008 1013 1008 862 L1099 862 L1101 868 C1106 1067 988 1175 791 1175 C690 1175 610 1139 549 1068 C488 996 458 903 458 788 L458 669 C458 553 488 460 549 389 C610 318 690 282 791 282 C988 282 1105 390 1100 590 L1098 596 L1007 596 Z M177 729 C177 914 238 1070 360 1198 C481 1325 629 1389 802 1389 C974 1389 1121 1325 1243 1198 C1364 1070 1425 914 1425 729 C1425 543 1364 386 1242 258 C1120 129 973 65 802 65 C629 65 481 129 360 258 C238 386 177 543 177 729 L177 729 Z M92 729 C92 518 161 341 299 196 C437 51 605 -21 802 -21 C998 -21 1165 51 1304 196 C1442 341 1511 518 1511 729 C1511 939 1442 1116 1304 1260 C1166 1404 999 1476 802 1476 C605 1476 437 1404 299 1260 C161 1116 92 939 92 729 L92 729 Z " />
<glyph glyph-name="ordfeminine" unicode="&#xaa;" horiz-adv-x="875" d="M731 706 C712 763 705 820 705 887 L705 1201 C705 1378 599 1477 434 1477 C345 1477 273 1455 218 1412 C163 1369 137 1314 140 1249 L142 1243 L242 1234 C242 1329 311 1380 434 1380 C539 1380 596 1315 596 1202 L596 1141 L413 1141 C213 1141 106 1060 106 920 C106 779 196 692 355 692 C466 692 549 743 598 814 C601 777 608 739 620 706 L731 706 Z M374 787 C265 787 214 836 214 924 C214 999 287 1057 414 1057 L596 1057 L596 911 C583 880 554 851 510 826 C466 800 421 787 374 787 L374 787 Z " />
<glyph glyph-name="guillemotleft" unicode="&#xab;" horiz-adv-x="919" d="M483 909 L378 909 L83 530 L83 511 L378 132 L483 132 L207 520 L483 909 Z M792 909 L687 909 L392 530 L392 511 L687 132 L792 132 L516 520 L792 909 Z " />
<glyph glyph-name="logicalnot" unicode="&#xac;" horiz-adv-x="1112" d="M932 776 L121 776 L121 670 L813 670 L813 386 L932 386 L932 776 Z " />
<glyph glyph-name="uni00AD" unicode="&#xad;" horiz-adv-x="793" d="M632 671 L154 671 L154 570 L632 570 L632 671 Z " />
<glyph glyph-name="registered" unicode="&#xae;" horiz-adv-x="1595" d="M92 729 C92 518 161 341 299 196 C437 51 605 -21 802 -21 C998 -21 1165 51 1304 196 C1442 341 1511 518 1511 729 C1511 939 1442 1116 1304 1260 C1166 1404 999 1476 802 1476 C605 1476 437 1404 299 1260 C161 1116 92 939 92 729 L92 729 Z M177 729 C177 914 238 1070 360 1198 C481 1325 629 1389 802 1389 C974 1389 1121 1325 1243 1198 C1364 1070 1425 914 1425 729 C1425 543 1364 386 1242 258 C1120 129 973 65 802 65 C629 65 481 129 360 258 C238 386 177 543 177 729 L177 729 Z M827 672 C946 672 993 626 993 514 L993 460 C993 404 994 344 1006 316 L1108 316 L1108 332 C1096 360 1091 406 1091 459 L1091 515 C1091 615 1054 688 963 721 C1054 762 1104 827 1104 918 C1104 1081 995 1166 799 1166 L541 1166 L541 316 L639 316 L639 672 L827 672 Z M639 1075 L799 1075 C952 1075 1007 1029 1007 916 C1007 868 989 831 953 804 C917 777 873 763 820 763 L639 763 L639 1075 Z " />
<glyph glyph-name="&amp;#xaf;" unicode="&#xaf;" horiz-adv-x="1005" d="M824 1456 L154 1456 L154 1359 L824 1359 L824 1456 Z " />
<glyph glyph-name="&amp;#x2c9;" unicode="&#x2c9;" horiz-adv-x="1005" d="M824 1456 L154 1456 L154 1359 L824 1359 L824 1456 Z " />
<glyph glyph-name="degree" unicode="&#xb0;" horiz-adv-x="747" d="M124 1227 C124 1158 148 1099 196 1052 C243 1004 301 980 369 980 C435 980 492 1004 539 1052 C586 1099 610 1158 610 1227 C610 1295 586 1354 539 1403 C491 1452 434 1477 369 1477 C302 1477 244 1452 196 1403 C148 1354 124 1295 124 1227 L124 1227 Z M213 1227 C213 1272 228 1309 258 1340 C288 1371 325 1386 369 1386 C412 1386 449 1371 478 1341 C507 1310 521 1272 521 1227 C521 1182 507 1144 478 1115 C449 1086 412 1071 369 1071 C325 1071 288 1086 258 1116 C228 1145 213 1182 213 1227 L213 1227 Z " />
<glyph glyph-name="plusminus" unicode="&#xb1;" horiz-adv-x="1082" d="M600 1267 L489 1267 L489 829 L75 829 L75 728 L489 728 L489 289 L600 289 L600 728 L991 728 L991 829 L600 829 L600 1267 Z M1017 150 L182 150 L182 48 L1017 48 L1017 150 Z " />
<glyph glyph-name="twosuperior" unicode="&#xb2;" horiz-adv-x="816" d="M683 757 L260 757 L257 763 L472 951 C541 1016 591 1068 622 1109 C653 1150 669 1195 669 1245 C669 1396 568 1479 403 1479 C315 1479 245 1456 193 1410 C140 1364 116 1309 120 1244 L122 1238 L222 1238 C222 1326 287 1388 403 1388 C508 1388 559 1333 559 1246 C559 1215 550 1184 532 1154 C514 1124 479 1086 428 1039 L113 757 L113 667 L683 667 L683 757 Z " />
<glyph glyph-name="threesuperior" unicode="&#xb3;" horiz-adv-x="837" d="M275 1119 L275 1030 L398 1030 C522 1030 584 986 584 886 C584 799 512 745 392 745 C281 745 207 804 207 888 L106 888 L104 882 C101 809 128 753 186 714 C243 675 312 655 392 655 C481 655 554 675 610 716 C665 757 693 813 693 886 C693 981 641 1047 544 1076 C629 1109 679 1174 679 1253 C679 1397 569 1478 392 1478 C313 1478 246 1458 192 1418 C138 1378 113 1327 117 1264 L119 1258 L219 1258 C219 1335 292 1387 392 1387 C509 1387 570 1332 570 1253 C570 1168 515 1119 398 1119 L275 1119 Z " />
<glyph glyph-name="acute" unicode="&#xb4;" horiz-adv-x="574" d="M95 1212 L202 1212 L451 1472 L448 1478 L301 1478 L95 1212 Z " />
<glyph glyph-name="mu" unicode="&#xb5;" horiz-adv-x="1297" d="M229 1082 L66 1082 L66 993 L229 980 L229 -416 L347 -416 L347 105 C407 17 501 -21 618 -21 C763 -21 867 42 931 155 L942 0 L1208 0 L1208 88 L1045 101 L1045 1082 L762 1082 L762 993 L925 980 L925 310 C888 162 793 80 610 80 C529 80 465 107 418 161 C371 215 347 311 347 449 L347 1082 L229 1082 Z " />
<glyph glyph-name="paragraph" unicode="&#xb6;" horiz-adv-x="1065" d="M513 0 L958 0 L958 88 L795 101 L795 1456 L570 1456 C415 1456 294 1413 208 1326 C121 1239 78 1126 78 988 C78 849 121 736 207 650 C293 563 414 520 570 520 L676 520 L676 101 L513 88 L513 0 Z M795 1456 L795 1354 L958 1367 L958 1456 L795 1456 Z " />
<glyph glyph-name="periodcentered" unicode="&#xb7;" horiz-adv-x="496" d="M313 804 L159 804 L159 624 L313 624 L313 804 Z " />
<glyph glyph-name="cedilla" unicode="&#xb8;" horiz-adv-x="470" d="M157 0 L129 -127 C198 -132 247 -143 274 -158 C301 -173 315 -199 315 -237 C315 -276 295 -306 254 -327 C213 -347 162 -357 103 -357 L110 -435 C306 -435 415 -356 415 -235 C415 -124 344 -76 239 -64 L250 0 L157 0 Z " />
<glyph glyph-name="onesuperior" unicode="&#xb9;" horiz-adv-x="506" d="M348 1477 L91 1454 L91 1361 L239 1368 L239 665 L348 665 L348 1477 Z " />
<glyph glyph-name="ordmasculine" unicode="&#xba;" horiz-adv-x="921" d="M121 1025 C121 926 150 845 209 784 C267 722 346 691 445 691 C543 691 621 722 680 784 C738 845 767 926 767 1025 L767 1142 C767 1241 738 1321 680 1384 C621 1446 542 1477 443 1477 C345 1477 267 1446 209 1384 C150 1321 121 1241 121 1142 L121 1025 Z M229 1142 C229 1211 247 1268 284 1313 C321 1358 374 1380 443 1380 C512 1380 566 1358 603 1313 C640 1268 659 1211 659 1142 L659 1025 C659 954 641 897 604 853 C567 808 514 786 445 786 C302 786 229 882 229 1025 L229 1142 Z " />
<glyph glyph-name="guillemotright" unicode="&#xbb;" horiz-adv-x="916" d="M105 944 L381 550 L105 162 L210 162 L505 541 L505 560 L210 944 L105 944 Z M420 944 L696 550 L420 162 L525 162 L820 541 L820 560 L525 944 L420 944 Z " />
<glyph glyph-name="onequarter" unicode="&#xbc;" horiz-adv-x="1492" d="M422 1476 L165 1453 L165 1360 L313 1367 L313 664 L422 664 L422 1476 Z M1091 1267 L1017 1315 L306 177 L380 129 L1091 1267 Z M1307 801 L1193 801 L765 237 L768 170 L1199 170 L1199 0 L1307 0 L1307 170 L1460 170 L1460 260 L1307 260 L1307 801 Z M1167 620 L1193 664 L1199 663 L1199 260 L893 260 L1167 620 Z " />
<glyph glyph-name="onehalf" unicode="&#xbd;" horiz-adv-x="1462" d="M1103 1267 L1029 1315 L318 177 L392 129 L1103 1267 Z M422 1476 L165 1453 L165 1360 L313 1367 L313 664 L422 664 L422 1476 Z M1477 90 L1054 90 L1051 96 L1266 284 C1335 349 1385 401 1416 442 C1447 483 1463 528 1463 578 C1463 729 1362 812 1197 812 C1109 812 1039 789 987 743 C934 697 910 642 914 577 L916 571 L1016 571 C1016 659 1081 721 1197 721 C1302 721 1353 666 1353 579 C1353 548 1344 517 1326 487 C1308 457 1273 419 1222 372 L907 90 L907 0 L1477 0 L1477 90 Z " />
<glyph glyph-name="threequarters" unicode="&#xbe;" horiz-adv-x="1670" d="M1298 1267 L1224 1315 L513 177 L587 129 L1298 1267 Z M1516 801 L1402 801 L974 237 L977 170 L1408 170 L1408 0 L1516 0 L1516 170 L1669 170 L1669 260 L1516 260 L1516 801 Z M1376 620 L1402 664 L1408 663 L1408 260 L1102 260 L1376 620 Z M300 1120 L300 1031 L423 1031 C547 1031 609 987 609 887 C609 800 537 746 417 746 C306 746 232 805 232 889 L131 889 L129 883 C126 810 153 754 211 715 C268 676 337 656 417 656 C506 656 579 676 635 717 C690 758 718 814 718 887 C718 982 666 1048 569 1077 C654 1110 704 1175 704 1254 C704 1398 594 1479 417 1479 C338 1479 271 1459 217 1419 C163 1379 138 1328 142 1265 L144 1259 L244 1259 C244 1336 317 1388 417 1388 C534 1388 595 1333 595 1254 C595 1169 540 1120 423 1120 L300 1120 Z " />
<glyph glyph-name="questiondown" unicode="&#xbf;" horiz-adv-x="862" d="M401 678 C401 614 396 567 387 536 C378 505 353 472 312 437 C230 360 167 287 124 218 C80 149 58 69 58 -20 C58 -135 92 -226 159 -293 C226 -360 319 -394 439 -394 C549 -394 640 -362 711 -299 C782 -236 817 -149 816 -39 L814 -33 L702 -33 C701 -111 676 -173 628 -219 C580 -264 517 -287 439 -287 C270 -287 177 -190 177 -19 C177 57 193 120 226 171 C259 221 311 284 384 359 C445 415 483 460 498 495 C512 530 520 591 521 678 L401 678 Z M385 928 L524 928 L524 1083 L385 1083 L385 928 Z " />
<glyph glyph-name="Agrave" unicode="&#xc0;" horiz-adv-x="1485" d="M55 0 L413 0 L413 88 L286 98 L407 424 L1061 424 L1181 98 L1054 88 L1054 0 L1413 0 L1413 88 L1304 96 L792 1456 L679 1456 L162 96 L55 88 L55 0 Z M733 1301 L739 1301 L1022 531 L447 531 L733 1301 Z M600 1831 L446 1831 L444 1826 L685 1565 L802 1565 L600 1831 Z " />
<glyph glyph-name="Aacute" unicode="&#xc1;" horiz-adv-x="1485" d="M55 0 L413 0 L413 88 L286 98 L407 424 L1061 424 L1181 98 L1054 88 L1054 0 L1413 0 L1413 88 L1304 96 L792 1456 L679 1456 L162 96 L55 88 L55 0 Z M733 1301 L739 1301 L1022 531 L447 531 L733 1301 Z M637 1550 L744 1550 L993 1810 L990 1816 L843 1816 L637 1550 Z " />
<glyph glyph-name="Acircumflex" unicode="&#xc2;" horiz-adv-x="1485" d="M55 0 L413 0 L413 88 L286 98 L407 424 L1061 424 L1181 98 L1054 88 L1054 0 L1413 0 L1413 88 L1304 96 L792 1456 L679 1456 L162 96 L55 88 L55 0 Z M733 1301 L739 1301 L1022 531 L447 531 L733 1301 Z M783 1835 L685 1835 L459 1614 L459 1593 L568 1593 L734 1761 L901 1593 L1013 1593 L1013 1611 L783 1835 Z " />
<glyph glyph-name="Atilde" unicode="&#xc3;" horiz-adv-x="1485" d="M55 0 L413 0 L413 88 L286 98 L407 424 L1061 424 L1181 98 L1054 88 L1054 0 L1413 0 L1413 88 L1304 96 L792 1456 L679 1456 L162 96 L55 88 L55 0 Z M733 1301 L739 1301 L1022 531 L447 531 L733 1301 Z M997 1840 C997 1767 946 1713 885 1713 C850 1713 806 1731 751 1768 C696 1805 646 1823 603 1823 C548 1823 502 1804 467 1765 C431 1726 413 1677 413 1620 L492 1602 C492 1674 540 1726 603 1726 C639 1726 683 1708 734 1671 C785 1634 836 1616 885 1616 C940 1616 985 1635 1022 1674 C1059 1713 1077 1761 1077 1820 L997 1840 Z " />
<glyph glyph-name="Adieresis" unicode="&#xc4;" horiz-adv-x="1485" d="M55 0 L413 0 L413 88 L286 98 L407 424 L1061 424 L1181 98 L1054 88 L1054 0 L1413 0 L1413 88 L1304 96 L792 1456 L679 1456 L162 96 L55 88 L55 0 Z M733 1301 L739 1301 L1022 531 L447 531 L733 1301 Z M1049 1796 L876 1796 L876 1639 L1049 1639 L1049 1796 Z M580 1796 L406 1796 L406 1639 L580 1639 L580 1796 Z " />
<glyph glyph-name="Aring" unicode="&#xc5;" horiz-adv-x="1485" d="M55 0 L413 0 L413 88 L286 98 L407 424 L1061 424 L1181 98 L1054 88 L1054 0 L1413 0 L1413 88 L1304 96 L792 1456 L679 1456 L162 96 L55 88 L55 0 Z M733 1301 L739 1301 L1022 531 L447 531 L733 1301 Z M567 1740 C567 1693 583 1654 616 1623 C649 1592 689 1577 736 1577 C782 1577 821 1592 854 1623 C886 1654 902 1693 902 1740 C902 1786 886 1825 853 1858 C820 1890 781 1906 736 1906 C689 1906 650 1890 617 1858 C584 1825 567 1786 567 1740 L567 1740 Z M645 1740 C645 1793 685 1833 736 1833 C785 1833 823 1793 823 1740 C823 1687 785 1649 736 1649 C685 1649 645 1688 645 1740 L645 1740 Z " />
<glyph glyph-name="AE" unicode="&#xc6;" horiz-adv-x="2058" d="M51 0 L431 0 L431 88 L325 96 L497 389 L1094 389 L1106 100 L948 88 L948 0 L1928 0 L1928 306 L1822 306 L1813 101 L1226 101 L1200 707 L1785 707 L1785 809 L1196 809 L1173 1354 L1751 1354 L1760 1149 L1867 1149 L1867 1456 L1003 1456 L181 98 L51 88 L51 0 Z M1034 1298 L1049 1342 L1055 1341 L1090 502 L564 502 L1034 1298 Z " />
<glyph glyph-name="Ccedilla" unicode="&#xc7;" horiz-adv-x="1349" d="M1230 1256 C1185 1319 1120 1371 1035 1414 C950 1456 853 1477 745 1477 C554 1477 399 1408 281 1270 C162 1131 103 954 103 737 L103 718 C103 502 162 325 281 187 C400 48 552 -21 739 -21 C847 -21 945 0 1032 42 C1119 84 1185 136 1230 199 L1230 455 L1137 455 L1120 234 C1044 143 903 80 739 80 C584 80 460 140 365 259 C270 378 222 531 222 718 L222 739 C222 926 270 1079 366 1198 C462 1316 591 1375 754 1375 C917 1375 1043 1313 1120 1221 L1137 1000 L1230 1000 L1230 1256 Z M694 -3 L666 -130 C735 -135 784 -146 811 -161 C838 -176 852 -202 852 -240 C852 -279 832 -309 791 -330 C750 -350 699 -360 640 -360 L647 -438 C843 -438 952 -359 952 -238 C952 -127 881 -79 776 -67 L787 -3 L694 -3 Z " />
<glyph glyph-name="Egrave" unicode="&#xc8;" horiz-adv-x="1286" d="M950 807 L353 807 L353 1354 L1036 1354 L1045 1136 L1151 1136 L1151 1456 L234 1456 L71 1456 L71 1367 L234 1354 L234 101 L71 88 L71 0 L1156 0 L1156 319 L1050 319 L1041 101 L353 101 L353 705 L950 705 L950 807 Z M500 1833 L346 1833 L344 1828 L585 1567 L702 1567 L500 1833 Z " />
<glyph glyph-name="Eacute" unicode="&#xc9;" horiz-adv-x="1286" d="M950 807 L353 807 L353 1354 L1036 1354 L1045 1136 L1151 1136 L1151 1456 L234 1456 L71 1456 L71 1367 L234 1354 L234 101 L71 88 L71 0 L1156 0 L1156 319 L1050 319 L1041 101 L353 101 L353 705 L950 705 L950 807 Z M537 1552 L644 1552 L893 1812 L890 1818 L743 1818 L537 1552 Z " />
<glyph glyph-name="Ecircumflex" unicode="&#xca;" horiz-adv-x="1286" d="M950 807 L353 807 L353 1354 L1036 1354 L1045 1136 L1151 1136 L1151 1456 L234 1456 L71 1456 L71 1367 L234 1354 L234 101 L71 88 L71 0 L1156 0 L1156 319 L1050 319 L1041 101 L353 101 L353 705 L950 705 L950 807 Z M683 1837 L585 1837 L359 1616 L359 1595 L468 1595 L634 1763 L801 1595 L913 1595 L913 1613 L683 1837 Z " />
<glyph glyph-name="Edieresis" unicode="&#xcb;" horiz-adv-x="1286" d="M950 807 L353 807 L353 1354 L1036 1354 L1045 1136 L1151 1136 L1151 1456 L234 1456 L71 1456 L71 1367 L234 1354 L234 101 L71 88 L71 0 L1156 0 L1156 319 L1050 319 L1041 101 L353 101 L353 705 L950 705 L950 807 Z M949 1798 L776 1798 L776 1641 L949 1641 L949 1798 Z M480 1798 L306 1798 L306 1641 L480 1641 L480 1798 Z " />
<glyph glyph-name="Igrave" unicode="&#xcc;" horiz-adv-x="627" d="M254 1354 L254 101 L91 88 L91 0 L537 0 L537 88 L374 101 L374 1354 L537 1367 L537 1456 L91 1456 L91 1367 L254 1354 Z M188 1832 L34 1832 L32 1827 L273 1566 L390 1566 L188 1832 Z " />
<glyph glyph-name="Iacute" unicode="&#xcd;" horiz-adv-x="627" d="M254 1354 L254 101 L91 88 L91 0 L537 0 L537 88 L374 101 L374 1354 L537 1367 L537 1456 L91 1456 L91 1367 L254 1354 Z M224 1551 L331 1551 L580 1811 L577 1817 L430 1817 L224 1551 Z " />
<glyph glyph-name="Icircumflex" unicode="&#xce;" horiz-adv-x="627" d="M254 1354 L254 101 L91 88 L91 0 L537 0 L537 88 L374 101 L374 1354 L537 1367 L537 1456 L91 1456 L91 1367 L254 1354 Z M371 1836 L273 1836 L47 1615 L47 1594 L156 1594 L322 1762 L489 1594 L601 1594 L601 1612 L371 1836 Z " />
<glyph glyph-name="Idieresis" unicode="&#xcf;" horiz-adv-x="627" d="M254 1354 L254 101 L91 88 L91 0 L537 0 L537 88 L374 101 L374 1354 L537 1367 L537 1456 L91 1456 L91 1367 L254 1354 Z M637 1797 L464 1797 L464 1640 L637 1640 L637 1797 Z M168 1797 L-6 1797 L-6 1640 L168 1640 L168 1797 Z " />
<glyph glyph-name="Eth" unicode="&#xd0;" horiz-adv-x="1431" d="M101 1456 L101 1367 L264 1354 L264 791 L103 791 L103 689 L264 689 L264 101 L101 88 L101 0 L687 0 C865 0 1012 59 1128 177 C1244 295 1302 447 1302 634 L1302 821 C1302 1007 1244 1159 1128 1278 C1012 1397 865 1456 687 1456 L101 1456 Z M715 791 L383 791 L383 1354 L687 1354 C830 1354 949 1304 1042 1203 C1135 1102 1182 976 1182 824 L1182 634 C1182 480 1136 353 1043 252 C950 151 831 101 687 101 L383 101 L383 689 L715 689 L715 791 Z " />
<glyph glyph-name="Ntilde" unicode="&#xd1;" horiz-adv-x="1536" d="M1306 1456 L1024 1456 L1024 1367 L1187 1354 L1187 207 L1181 206 L354 1456 L234 1456 L71 1456 L71 1367 L234 1354 L234 101 L71 88 L71 0 L517 0 L517 88 L354 101 L354 1251 L360 1252 L1187 0 L1306 0 L1306 1354 L1469 1367 L1469 1456 L1306 1456 Z M1001 1842 C1001 1769 950 1715 889 1715 C854 1715 810 1733 755 1770 C700 1807 650 1825 607 1825 C552 1825 506 1806 471 1767 C435 1728 417 1679 417 1622 L496 1604 C496 1676 544 1728 607 1728 C643 1728 687 1710 738 1673 C789 1636 840 1618 889 1618 C944 1618 989 1637 1026 1676 C1063 1715 1081 1763 1081 1822 L1001 1842 Z " />
<glyph glyph-name="Ograve" unicode="&#xd2;" horiz-adv-x="1468" d="M1357 737 C1357 955 1299 1133 1182 1271 C1065 1408 913 1477 726 1477 C542 1477 393 1408 278 1271 C163 1133 106 955 106 737 L106 718 C106 500 164 322 279 185 C394 48 543 -21 727 -21 C914 -21 1065 48 1182 185 C1299 322 1357 499 1357 718 L1357 737 Z M1237 718 C1237 527 1192 374 1101 258 C1010 141 885 83 727 83 C573 83 451 141 361 258 C271 375 226 528 226 718 L226 739 C226 928 271 1080 361 1197 C450 1314 572 1372 726 1372 C883 1372 1007 1314 1099 1197 C1191 1080 1237 928 1237 739 L1237 718 Z M595 1843 L441 1843 L439 1838 L680 1577 L797 1577 L595 1843 Z " />
<glyph glyph-name="Oacute" unicode="&#xd3;" horiz-adv-x="1468" d="M1357 737 C1357 955 1299 1133 1182 1271 C1065 1408 913 1477 726 1477 C542 1477 393 1408 278 1271 C163 1133 106 955 106 737 L106 718 C106 500 164 322 279 185 C394 48 543 -21 727 -21 C914 -21 1065 48 1182 185 C1299 322 1357 499 1357 718 L1357 737 Z M1237 718 C1237 527 1192 374 1101 258 C1010 141 885 83 727 83 C573 83 451 141 361 258 C271 375 226 528 226 718 L226 739 C226 928 271 1080 361 1197 C450 1314 572 1372 726 1372 C883 1372 1007 1314 1099 1197 C1191 1080 1237 928 1237 739 L1237 718 Z M632 1562 L739 1562 L988 1822 L985 1828 L838 1828 L632 1562 Z " />
<glyph glyph-name="Ocircumflex" unicode="&#xd4;" horiz-adv-x="1468" d="M1357 737 C1357 955 1299 1133 1182 1271 C1065 1408 913 1477 726 1477 C542 1477 393 1408 278 1271 C163 1133 106 955 106 737 L106 718 C106 500 164 322 279 185 C394 48 543 -21 727 -21 C914 -21 1065 48 1182 185 C1299 322 1357 499 1357 718 L1357 737 Z M1237 718 C1237 527 1192 374 1101 258 C1010 141 885 83 727 83 C573 83 451 141 361 258 C271 375 226 528 226 718 L226 739 C226 928 271 1080 361 1197 C450 1314 572 1372 726 1372 C883 1372 1007 1314 1099 1197 C1191 1080 1237 928 1237 739 L1237 718 Z M778 1847 L680 1847 L454 1626 L454 1605 L563 1605 L729 1773 L896 1605 L1008 1605 L1008 1623 L778 1847 Z " />
<glyph glyph-name="Otilde" unicode="&#xd5;" horiz-adv-x="1468" d="M1357 737 C1357 955 1299 1133 1182 1271 C1065 1408 913 1477 726 1477 C542 1477 393 1408 278 1271 C163 1133 106 955 106 737 L106 718 C106 500 164 322 279 185 C394 48 543 -21 727 -21 C914 -21 1065 48 1182 185 C1299 322 1357 499 1357 718 L1357 737 Z M1237 718 C1237 527 1192 374 1101 258 C1010 141 885 83 727 83 C573 83 451 141 361 258 C271 375 226 528 226 718 L226 739 C226 928 271 1080 361 1197 C450 1314 572 1372 726 1372 C883 1372 1007 1314 1099 1197 C1191 1080 1237 928 1237 739 L1237 718 Z M992 1852 C992 1779 941 1725 880 1725 C845 1725 801 1743 746 1780 C691 1817 641 1835 598 1835 C543 1835 497 1816 462 1777 C426 1738 408 1689 408 1632 L487 1614 C487 1686 535 1738 598 1738 C634 1738 678 1720 729 1683 C780 1646 831 1628 880 1628 C935 1628 980 1647 1017 1686 C1054 1725 1072 1773 1072 1832 L992 1852 Z " />
<glyph glyph-name="Odieresis" unicode="&#xd6;" horiz-adv-x="1468" d="M1357 737 C1357 955 1299 1133 1182 1271 C1065 1408 913 1477 726 1477 C542 1477 393 1408 278 1271 C163 1133 106 955 106 737 L106 718 C106 500 164 322 279 185 C394 48 543 -21 727 -21 C914 -21 1065 48 1182 185 C1299 322 1357 499 1357 718 L1357 737 Z M1237 718 C1237 527 1192 374 1101 258 C1010 141 885 83 727 83 C573 83 451 141 361 258 C271 375 226 528 226 718 L226 739 C226 928 271 1080 361 1197 C450 1314 572 1372 726 1372 C883 1372 1007 1314 1099 1197 C1191 1080 1237 928 1237 739 L1237 718 Z M1044 1808 L871 1808 L871 1651 L1044 1651 L1044 1808 Z M575 1808 L401 1808 L401 1651 L575 1651 L575 1808 Z " />
<glyph glyph-name="multiply" unicode="&#xd7;" horiz-adv-x="1056" d="M158 239 L515 603 L873 239 L952 318 L593 683 L937 1033 L858 1113 L515 763 L172 1113 L93 1033 L436 683 L79 318 L158 239 Z " />
<glyph glyph-name="Oslash" unicode="&#xd8;" horiz-adv-x="1408" d="M1351 737 C1351 976 1271 1181 1134 1314 L1251 1505 L1147 1505 L1065 1372 C966 1440 848 1477 720 1477 C536 1477 387 1408 272 1271 C157 1133 100 955 100 737 L100 718 C100 479 175 277 310 145 L169 -84 L273 -84 L378 87 C473 16 590 -21 721 -21 C908 -21 1059 48 1176 185 C1293 322 1351 499 1351 718 L1351 737 Z M1231 718 C1231 527 1186 374 1095 258 C1004 141 879 83 721 83 C609 83 513 115 434 178 L1071 1213 L1077 1212 C1174 1105 1231 936 1231 739 L1231 718 Z M220 739 C220 928 265 1080 355 1197 C444 1314 566 1372 720 1372 C831 1372 928 1339 1008 1280 L373 247 L367 248 C272 353 220 521 220 718 L220 739 Z " />
<glyph glyph-name="Ugrave" unicode="&#xd9;" horiz-adv-x="1487" d="M342 1456 L223 1456 L60 1456 L60 1367 L223 1354 L223 469 C223 311 271 190 366 106 C461 21 586 -21 739 -21 C895 -21 1022 21 1119 105 C1216 189 1264 310 1264 469 L1264 1354 L1427 1367 L1427 1456 L982 1456 L982 1367 L1145 1354 L1145 469 C1145 344 1107 248 1032 181 C957 114 859 80 739 80 C621 80 525 114 452 182 C379 249 342 345 342 469 L342 1354 L505 1367 L505 1456 L342 1456 Z M605 1826 L451 1826 L449 1821 L690 1560 L807 1560 L605 1826 Z " />
<glyph glyph-name="Uacute" unicode="&#xda;" horiz-adv-x="1487" d="M342 1456 L223 1456 L60 1456 L60 1367 L223 1354 L223 469 C223 311 271 190 366 106 C461 21 586 -21 739 -21 C895 -21 1022 21 1119 105 C1216 189 1264 310 1264 469 L1264 1354 L1427 1367 L1427 1456 L982 1456 L982 1367 L1145 1354 L1145 469 C1145 344 1107 248 1032 181 C957 114 859 80 739 80 C621 80 525 114 452 182 C379 249 342 345 342 469 L342 1354 L505 1367 L505 1456 L342 1456 Z M642 1545 L749 1545 L998 1805 L995 1811 L848 1811 L642 1545 Z " />
<glyph glyph-name="Ucircumflex" unicode="&#xdb;" horiz-adv-x="1487" d="M342 1456 L223 1456 L60 1456 L60 1367 L223 1354 L223 469 C223 311 271 190 366 106 C461 21 586 -21 739 -21 C895 -21 1022 21 1119 105 C1216 189 1264 310 1264 469 L1264 1354 L1427 1367 L1427 1456 L982 1456 L982 1367 L1145 1354 L1145 469 C1145 344 1107 248 1032 181 C957 114 859 80 739 80 C621 80 525 114 452 182 C379 249 342 345 342 469 L342 1354 L505 1367 L505 1456 L342 1456 Z M788 1830 L690 1830 L464 1609 L464 1588 L573 1588 L739 1756 L906 1588 L1018 1588 L1018 1606 L788 1830 Z " />
<glyph glyph-name="Udieresis" unicode="&#xdc;" horiz-adv-x="1487" d="M342 1456 L223 1456 L60 1456 L60 1367 L223 1354 L223 469 C223 311 271 190 366 106 C461 21 586 -21 739 -21 C895 -21 1022 21 1119 105 C1216 189 1264 310 1264 469 L1264 1354 L1427 1367 L1427 1456 L982 1456 L982 1367 L1145 1354 L1145 469 C1145 344 1107 248 1032 181 C957 114 859 80 739 80 C621 80 525 114 452 182 C379 249 342 345 342 469 L342 1354 L505 1367 L505 1456 L342 1456 Z M1054 1791 L881 1791 L881 1634 L1054 1634 L1054 1791 Z M585 1791 L411 1791 L411 1634 L585 1634 L585 1791 Z " />
<glyph glyph-name="Yacute" unicode="&#xdd;" horiz-adv-x="1423" d="M455 1456 L55 1456 L55 1367 L178 1357 L648 539 L648 101 L485 88 L485 0 L931 0 L931 88 L768 101 L768 532 L1242 1357 L1366 1367 L1366 1456 L965 1456 L965 1367 L1105 1357 L709 647 L315 1357 L455 1367 L455 1456 Z M616 1545 L723 1545 L972 1805 L969 1811 L822 1811 L616 1545 Z " />
<glyph glyph-name="Thorn" unicode="&#xde;" horiz-adv-x="1257" d="M233 1354 L233 101 L70 88 L70 0 L515 0 L515 88 L352 101 L352 324 L676 324 C824 324 939 362 1022 439 C1104 515 1145 615 1145 738 C1145 861 1104 960 1021 1037 C938 1114 823 1152 676 1152 L352 1152 L352 1354 L515 1367 L515 1456 L352 1456 L70 1456 L70 1367 L233 1354 Z M676 1051 C792 1051 879 1020 938 959 C997 897 1026 823 1026 736 C1026 651 997 578 938 517 C879 456 791 425 676 425 L352 425 L352 1051 L676 1051 Z " />
<glyph glyph-name="germandbls" unicode="&#xdf;" horiz-adv-x="1263" d="M337 1082 C337 1293 442 1411 603 1411 C655 1411 701 1392 741 1354 C780 1315 800 1265 800 1204 C800 1149 779 1086 737 1014 C695 941 674 874 674 812 C674 722 735 630 858 536 C981 441 1042 361 1042 295 C1042 232 1018 180 970 140 C921 100 855 80 772 80 C726 80 678 88 629 105 C579 121 541 139 514 160 L480 59 C506 37 549 18 610 3 C670 -13 729 -21 786 -21 C891 -21 980 6 1053 61 C1126 115 1162 193 1162 295 C1162 392 1101 487 978 582 C855 677 794 753 794 810 C794 862 815 924 856 995 C897 1066 917 1137 917 1210 C917 1305 886 1380 825 1433 C764 1486 686 1512 593 1512 C479 1512 388 1474 320 1399 C252 1324 218 1218 218 1082 L218 101 L55 88 L55 0 L337 0 L337 1082 Z " />
<glyph glyph-name="agrave" unicode="&#xe0;" horiz-adv-x="1130" d="M1057 0 L1057 88 L949 95 C942 134 941 174 941 218 L941 750 C941 863 905 950 832 1011 C759 1072 663 1102 544 1102 C387 1102 242 1049 142 972 L141 764 L240 764 L250 909 C317 965 419 1000 539 1000 C718 1000 822 907 822 752 L822 609 L583 609 C436 609 319 580 233 521 C147 462 104 383 104 283 C104 190 133 116 191 61 C249 6 331 -21 437 -21 C520 -21 595 -2 662 35 C729 72 782 119 822 176 C822 121 828 73 844 0 L1057 0 Z M450 85 C309 85 223 163 223 279 C223 348 256 405 321 450 C386 495 472 517 581 517 L822 517 L822 300 C793 237 745 185 679 145 C613 105 537 85 450 85 L450 85 Z M410 1510 L256 1510 L254 1505 L495 1244 L612 1244 L410 1510 Z " />
<glyph glyph-name="aacute" unicode="&#xe1;" horiz-adv-x="1130" d="M1057 0 L1057 88 L949 95 C942 134 941 174 941 218 L941 750 C941 863 905 950 832 1011 C759 1072 663 1102 544 1102 C387 1102 242 1049 142 972 L141 764 L240 764 L250 909 C317 965 419 1000 539 1000 C718 1000 822 907 822 752 L822 609 L583 609 C436 609 319 580 233 521 C147 462 104 383 104 283 C104 190 133 116 191 61 C249 6 331 -21 437 -21 C520 -21 595 -2 662 35 C729 72 782 119 822 176 C822 121 828 73 844 0 L1057 0 Z M450 85 C309 85 223 163 223 279 C223 348 256 405 321 450 C386 495 472 517 581 517 L822 517 L822 300 C793 237 745 185 679 145 C613 105 537 85 450 85 L450 85 Z M447 1229 L554 1229 L803 1489 L800 1495 L653 1495 L447 1229 Z " />
<glyph glyph-name="acircumflex" unicode="&#xe2;" horiz-adv-x="1130" d="M1057 0 L1057 88 L949 95 C942 134 941 174 941 218 L941 750 C941 863 905 950 832 1011 C759 1072 663 1102 544 1102 C387 1102 242 1049 142 972 L141 764 L240 764 L250 909 C317 965 419 1000 539 1000 C718 1000 822 907 822 752 L822 609 L583 609 C436 609 319 580 233 521 C147 462 104 383 104 283 C104 190 133 116 191 61 C249 6 331 -21 437 -21 C520 -21 595 -2 662 35 C729 72 782 119 822 176 C822 121 828 73 844 0 L1057 0 Z M450 85 C309 85 223 163 223 279 C223 348 256 405 321 450 C386 495 472 517 581 517 L822 517 L822 300 C793 237 745 185 679 145 C613 105 537 85 450 85 L450 85 Z M593 1514 L495 1514 L269 1293 L269 1272 L378 1272 L544 1440 L711 1272 L823 1272 L823 1290 L593 1514 Z " />
<glyph glyph-name="atilde" unicode="&#xe3;" horiz-adv-x="1130" d="M1057 0 L1057 88 L949 95 C942 134 941 174 941 218 L941 750 C941 863 905 950 832 1011 C759 1072 663 1102 544 1102 C387 1102 242 1049 142 972 L141 764 L240 764 L250 909 C317 965 419 1000 539 1000 C718 1000 822 907 822 752 L822 609 L583 609 C436 609 319 580 233 521 C147 462 104 383 104 283 C104 190 133 116 191 61 C249 6 331 -21 437 -21 C520 -21 595 -2 662 35 C729 72 782 119 822 176 C822 121 828 73 844 0 L1057 0 Z M450 85 C309 85 223 163 223 279 C223 348 256 405 321 450 C386 495 472 517 581 517 L822 517 L822 300 C793 237 745 185 679 145 C613 105 537 85 450 85 L450 85 Z M807 1519 C807 1446 756 1392 695 1392 C660 1392 616 1410 561 1447 C506 1484 456 1502 413 1502 C358 1502 312 1483 277 1444 C241 1405 223 1356 223 1299 L302 1281 C302 1353 350 1405 413 1405 C449 1405 493 1387 544 1350 C595 1313 646 1295 695 1295 C750 1295 795 1314 832 1353 C869 1392 887 1440 887 1499 L807 1519 Z " />
<glyph glyph-name="adieresis" unicode="&#xe4;" horiz-adv-x="1130" d="M1057 0 L1057 88 L949 95 C942 134 941 174 941 218 L941 750 C941 863 905 950 832 1011 C759 1072 663 1102 544 1102 C387 1102 242 1049 142 972 L141 764 L240 764 L250 909 C317 965 419 1000 539 1000 C718 1000 822 907 822 752 L822 609 L583 609 C436 609 319 580 233 521 C147 462 104 383 104 283 C104 190 133 116 191 61 C249 6 331 -21 437 -21 C520 -21 595 -2 662 35 C729 72 782 119 822 176 C822 121 828 73 844 0 L1057 0 Z M450 85 C309 85 223 163 223 279 C223 348 256 405 321 450 C386 495 472 517 581 517 L822 517 L822 300 C793 237 745 185 679 145 C613 105 537 85 450 85 L450 85 Z M859 1475 L686 1475 L686 1318 L859 1318 L859 1475 Z M390 1475 L216 1475 L216 1318 L390 1318 L390 1475 Z " />
<glyph glyph-name="aring" unicode="&#xe5;" horiz-adv-x="1130" d="M1057 0 L1057 88 L949 95 C942 134 941 174 941 218 L941 750 C941 863 905 950 832 1011 C759 1072 663 1102 544 1102 C387 1102 242 1049 142 972 L141 764 L240 764 L250 909 C317 965 419 1000 539 1000 C718 1000 822 907 822 752 L822 609 L583 609 C436 609 319 580 233 521 C147 462 104 383 104 283 C104 190 133 116 191 61 C249 6 331 -21 437 -21 C520 -21 595 -2 662 35 C729 72 782 119 822 176 C822 121 828 73 844 0 L1057 0 Z M450 85 C309 85 223 163 223 279 C223 348 256 405 321 450 C386 495 472 517 581 517 L822 517 L822 300 C793 237 745 185 679 145 C613 105 537 85 450 85 L450 85 Z M377 1419 C377 1372 393 1333 426 1302 C459 1271 499 1256 546 1256 C592 1256 631 1271 664 1302 C696 1333 712 1372 712 1419 C712 1465 696 1504 663 1537 C630 1569 591 1585 546 1585 C499 1585 460 1569 427 1537 C394 1504 377 1465 377 1419 L377 1419 Z M455 1419 C455 1472 495 1512 546 1512 C595 1512 633 1472 633 1419 C633 1366 595 1328 546 1328 C495 1328 455 1367 455 1419 L455 1419 Z " />
<glyph glyph-name="ae" unicode="&#xe6;" horiz-adv-x="1786" d="M1285 -21 C1374 -21 1449 -8 1508 18 C1567 44 1616 75 1656 112 L1608 199 C1523 127 1422 80 1285 80 C1164 80 1073 120 1013 199 C953 278 923 382 923 509 L923 538 L1678 538 L1678 638 C1678 782 1641 895 1567 978 C1492 1061 1388 1102 1255 1102 C1102 1102 970 1023 889 891 C834 1028 714 1102 547 1102 C423 1102 324 1072 250 1012 C176 951 141 875 144 783 L146 777 L256 765 C256 832 282 888 334 933 C386 978 457 1000 547 1000 C712 1000 798 899 798 720 L798 632 L535 632 C252 632 97 504 97 293 C97 196 128 120 190 64 C251 7 339 -21 452 -21 C558 -21 648 0 722 42 C795 84 848 134 881 192 C961 56 1101 -21 1285 -21 L1285 -21 Z M469 79 C305 79 217 160 217 289 C217 359 245 418 300 465 C355 512 434 536 537 536 L798 536 L798 248 C774 207 730 168 667 133 C603 97 537 79 469 79 L469 79 Z M1255 1000 C1354 1000 1430 969 1481 907 C1532 844 1558 764 1558 667 L1558 636 L933 636 L931 641 C940 745 973 831 1031 899 C1088 966 1163 1000 1255 1000 L1255 1000 Z " />
<glyph glyph-name="ccedilla" unicode="&#xe7;" horiz-adv-x="1094" d="M559 80 C442 80 355 121 300 204 C245 287 217 392 217 520 L217 562 C217 688 245 793 301 876 C356 959 442 1000 558 1000 C679 1000 776 955 840 883 L859 691 L961 691 L956 927 C869 1035 725 1102 558 1102 C412 1102 299 1051 218 950 C137 849 97 719 97 562 L97 520 C97 361 137 232 218 131 C299 30 412 -21 559 -21 C669 -21 766 13 849 80 C932 147 971 231 968 331 L966 337 L860 337 C860 256 830 193 769 148 C708 103 638 80 559 80 L559 80 Z M497 -9 L469 -136 C538 -141 587 -152 614 -167 C641 -182 655 -208 655 -246 C655 -285 635 -315 594 -336 C553 -356 502 -366 443 -366 L450 -444 C646 -444 755 -365 755 -244 C755 -133 684 -85 579 -73 L590 -9 L497 -9 Z " />
<glyph glyph-name="egrave" unicode="&#xe8;" horiz-adv-x="1102" d="M574 -21 C746 -21 869 33 950 118 L899 200 C824 123 722 80 574 80 C469 80 384 121 319 204 C254 286 221 388 221 509 L221 538 L985 538 L985 640 C985 780 947 892 871 976 C795 1060 691 1102 558 1102 C432 1102 325 1051 236 949 C147 847 102 719 102 564 L102 509 C102 355 147 228 236 129 C325 29 438 -21 574 -21 L574 -21 Z M558 1000 C653 1000 728 968 783 905 C838 842 866 763 866 669 L866 639 L232 639 L230 644 C240 746 275 831 336 899 C396 966 470 1000 558 1000 L558 1000 Z M428 1510 L274 1510 L272 1505 L513 1244 L630 1244 L428 1510 Z " />
<glyph glyph-name="eacute" unicode="&#xe9;" horiz-adv-x="1102" d="M574 -21 C746 -21 869 33 950 118 L899 200 C824 123 722 80 574 80 C469 80 384 121 319 204 C254 286 221 388 221 509 L221 538 L985 538 L985 640 C985 780 947 892 871 976 C795 1060 691 1102 558 1102 C432 1102 325 1051 236 949 C147 847 102 719 102 564 L102 509 C102 355 147 228 236 129 C325 29 438 -21 574 -21 L574 -21 Z M558 1000 C653 1000 728 968 783 905 C838 842 866 763 866 669 L866 639 L232 639 L230 644 C240 746 275 831 336 899 C396 966 470 1000 558 1000 L558 1000 Z M465 1229 L572 1229 L821 1489 L818 1495 L671 1495 L465 1229 Z " />
<glyph glyph-name="ecircumflex" unicode="&#xea;" horiz-adv-x="1102" d="M574 -21 C746 -21 869 33 950 118 L899 200 C824 123 722 80 574 80 C469 80 384 121 319 204 C254 286 221 388 221 509 L221 538 L985 538 L985 640 C985 780 947 892 871 976 C795 1060 691 1102 558 1102 C432 1102 325 1051 236 949 C147 847 102 719 102 564 L102 509 C102 355 147 228 236 129 C325 29 438 -21 574 -21 L574 -21 Z M558 1000 C653 1000 728 968 783 905 C838 842 866 763 866 669 L866 639 L232 639 L230 644 C240 746 275 831 336 899 C396 966 470 1000 558 1000 L558 1000 Z M611 1514 L513 1514 L287 1293 L287 1272 L396 1272 L562 1440 L729 1272 L841 1272 L841 1290 L611 1514 Z " />
<glyph glyph-name="edieresis" unicode="&#xeb;" horiz-adv-x="1102" d="M574 -21 C746 -21 869 33 950 118 L899 200 C824 123 722 80 574 80 C469 80 384 121 319 204 C254 286 221 388 221 509 L221 538 L985 538 L985 640 C985 780 947 892 871 976 C795 1060 691 1102 558 1102 C432 1102 325 1051 236 949 C147 847 102 719 102 564 L102 509 C102 355 147 228 236 129 C325 29 438 -21 574 -21 L574 -21 Z M558 1000 C653 1000 728 968 783 905 C838 842 866 763 866 669 L866 639 L232 639 L230 644 C240 746 275 831 336 899 C396 966 470 1000 558 1000 L558 1000 Z M877 1475 L704 1475 L704 1318 L877 1318 L877 1475 Z M408 1475 L234 1475 L234 1318 L408 1318 L408 1475 Z " />
<glyph glyph-name="igrave" unicode="&#xec;" horiz-adv-x="637" d="M253 980 L253 101 L90 88 L90 0 L535 0 L535 88 L372 101 L372 1082 L90 1082 L90 993 L253 980 Z M180 1498 L26 1498 L24 1493 L265 1232 L382 1232 L180 1498 Z " />
<glyph glyph-name="iacute" unicode="&#xed;" horiz-adv-x="637" d="M253 980 L253 101 L90 88 L90 0 L535 0 L535 88 L372 101 L372 1082 L90 1082 L90 993 L253 980 Z M216 1217 L323 1217 L572 1477 L569 1483 L422 1483 L216 1217 Z " />
<glyph glyph-name="icircumflex" unicode="&#xee;" horiz-adv-x="637" d="M253 980 L253 101 L90 88 L90 0 L535 0 L535 88 L372 101 L372 1082 L90 1082 L90 993 L253 980 Z M363 1502 L265 1502 L39 1281 L39 1260 L148 1260 L314 1428 L481 1260 L593 1260 L593 1278 L363 1502 Z " />
<glyph glyph-name="idieresis" unicode="&#xef;" horiz-adv-x="637" d="M253 980 L253 101 L90 88 L90 0 L535 0 L535 88 L372 101 L372 1082 L90 1082 L90 993 L253 980 Z M629 1463 L456 1463 L456 1306 L629 1306 L629 1463 Z M160 1463 L-14 1463 L-14 1306 L160 1306 L160 1463 Z " />
<glyph glyph-name="eth" unicode="&#xf0;" horiz-adv-x="1179" d="M1048 1437 L997 1511 L739 1363 C663 1426 574 1477 471 1517 L433 1413 C505 1382 571 1345 631 1301 L343 1137 L394 1063 L702 1239 C803 1134 872 998 896 823 L892 818 C820 907 694 965 555 965 C410 965 295 919 208 828 C121 736 78 612 78 455 C78 320 123 207 212 116 C301 25 414 -21 552 -21 C690 -21 805 31 896 135 C987 238 1033 372 1033 535 L1033 623 C1033 914 955 1138 807 1299 L1048 1437 Z M914 535 C914 403 881 295 815 210 C748 125 662 82 556 82 C447 82 360 119 295 194 C230 269 198 356 198 455 C198 572 229 669 291 746 C352 823 440 861 555 861 C648 861 725 844 786 809 C846 774 888 730 913 679 C913 667 914 637 914 625 L914 535 Z " />
<glyph glyph-name="ntilde" unicode="&#xf1;" horiz-adv-x="1319" d="M75 0 L521 0 L521 88 L358 101 L358 755 C405 902 510 998 678 998 C763 998 829 972 876 921 C922 870 945 782 945 658 L945 101 L782 88 L782 0 L1228 0 L1228 88 L1065 101 L1065 659 C1065 963 940 1102 705 1102 C544 1102 424 1026 355 893 L344 1082 L75 1082 L75 993 L238 980 L238 101 L75 88 L75 0 Z M915 1518 C915 1445 864 1391 803 1391 C768 1391 724 1409 669 1446 C614 1483 564 1501 521 1501 C466 1501 420 1482 385 1443 C349 1404 331 1355 331 1298 L410 1280 C410 1352 458 1404 521 1404 C557 1404 601 1386 652 1349 C703 1312 754 1294 803 1294 C858 1294 903 1313 940 1352 C977 1391 995 1439 995 1498 L915 1518 Z " />
<glyph glyph-name="ograve" unicode="&#xf2;" horiz-adv-x="1152" d="M97 524 C97 364 141 233 228 132 C315 30 432 -21 577 -21 C721 -21 837 30 924 132 C1011 233 1054 364 1054 524 L1054 557 C1054 716 1010 847 923 949 C836 1051 720 1102 575 1102 C431 1102 315 1051 228 949 C141 847 97 716 97 557 L97 524 Z M217 557 C217 680 249 785 312 871 C375 957 463 1000 575 1000 C687 1000 775 957 839 871 C902 785 934 680 934 557 L934 524 C934 399 902 293 839 208 C776 123 688 80 577 80 C464 80 375 123 312 208 C249 293 217 399 217 524 L217 557 Z M444 1509 L290 1509 L288 1504 L529 1243 L646 1243 L444 1509 Z " />
<glyph glyph-name="oacute" unicode="&#xf3;" horiz-adv-x="1152" d="M97 524 C97 364 141 233 228 132 C315 30 432 -21 577 -21 C721 -21 837 30 924 132 C1011 233 1054 364 1054 524 L1054 557 C1054 716 1010 847 923 949 C836 1051 720 1102 575 1102 C431 1102 315 1051 228 949 C141 847 97 716 97 557 L97 524 Z M217 557 C217 680 249 785 312 871 C375 957 463 1000 575 1000 C687 1000 775 957 839 871 C902 785 934 680 934 557 L934 524 C934 399 902 293 839 208 C776 123 688 80 577 80 C464 80 375 123 312 208 C249 293 217 399 217 524 L217 557 Z M481 1228 L588 1228 L837 1488 L834 1494 L687 1494 L481 1228 Z " />
<glyph glyph-name="ocircumflex" unicode="&#xf4;" horiz-adv-x="1152" d="M97 524 C97 364 141 233 228 132 C315 30 432 -21 577 -21 C721 -21 837 30 924 132 C1011 233 1054 364 1054 524 L1054 557 C1054 716 1010 847 923 949 C836 1051 720 1102 575 1102 C431 1102 315 1051 228 949 C141 847 97 716 97 557 L97 524 Z M217 557 C217 680 249 785 312 871 C375 957 463 1000 575 1000 C687 1000 775 957 839 871 C902 785 934 680 934 557 L934 524 C934 399 902 293 839 208 C776 123 688 80 577 80 C464 80 375 123 312 208 C249 293 217 399 217 524 L217 557 Z M627 1513 L529 1513 L303 1292 L303 1271 L412 1271 L578 1439 L745 1271 L857 1271 L857 1289 L627 1513 Z " />
<glyph glyph-name="otilde" unicode="&#xf5;" horiz-adv-x="1152" d="M97 524 C97 364 141 233 228 132 C315 30 432 -21 577 -21 C721 -21 837 30 924 132 C1011 233 1054 364 1054 524 L1054 557 C1054 716 1010 847 923 949 C836 1051 720 1102 575 1102 C431 1102 315 1051 228 949 C141 847 97 716 97 557 L97 524 Z M217 557 C217 680 249 785 312 871 C375 957 463 1000 575 1000 C687 1000 775 957 839 871 C902 785 934 680 934 557 L934 524 C934 399 902 293 839 208 C776 123 688 80 577 80 C464 80 375 123 312 208 C249 293 217 399 217 524 L217 557 Z M841 1518 C841 1445 790 1391 729 1391 C694 1391 650 1409 595 1446 C540 1483 490 1501 447 1501 C392 1501 346 1482 311 1443 C275 1404 257 1355 257 1298 L336 1280 C336 1352 384 1404 447 1404 C483 1404 527 1386 578 1349 C629 1312 680 1294 729 1294 C784 1294 829 1313 866 1352 C903 1391 921 1439 921 1498 L841 1518 Z " />
<glyph glyph-name="odieresis" unicode="&#xf6;" horiz-adv-x="1152" d="M97 524 C97 364 141 233 228 132 C315 30 432 -21 577 -21 C721 -21 837 30 924 132 C1011 233 1054 364 1054 524 L1054 557 C1054 716 1010 847 923 949 C836 1051 720 1102 575 1102 C431 1102 315 1051 228 949 C141 847 97 716 97 557 L97 524 Z M217 557 C217 680 249 785 312 871 C375 957 463 1000 575 1000 C687 1000 775 957 839 871 C902 785 934 680 934 557 L934 524 C934 399 902 293 839 208 C776 123 688 80 577 80 C464 80 375 123 312 208 C249 293 217 399 217 524 L217 557 Z M893 1474 L720 1474 L720 1317 L893 1317 L893 1474 Z M424 1474 L250 1474 L250 1317 L424 1317 L424 1474 Z " />
<glyph glyph-name="divide" unicode="&#xf7;" horiz-adv-x="1148" d="M1072 760 L74 760 L74 644 L1072 644 L1072 760 Z M650 1170 L508 1170 L508 1010 L650 1010 L650 1170 Z M650 372 L508 372 L508 212 L650 212 L650 372 Z " />
<glyph glyph-name="oslash" unicode="&#xf8;" horiz-adv-x="1152" d="M97 524 C97 327 170 162 298 67 L192 -140 L285 -140 L369 24 C430 -7 500 -21 577 -21 C721 -21 837 30 924 132 C1011 233 1054 364 1054 524 L1054 557 C1054 744 987 903 871 1000 L981 1214 L888 1214 L802 1047 C734 1082 658 1102 575 1102 C431 1102 315 1051 228 949 C141 847 97 716 97 557 L97 524 Z M217 557 C217 680 249 785 312 871 C375 957 463 1000 575 1000 C642 1000 701 982 752 950 L353 174 L347 174 C263 247 217 377 217 524 L217 557 Z M934 524 C934 399 902 293 839 208 C776 123 688 80 577 80 C516 80 462 93 417 118 L814 889 L819 889 C892 813 934 690 934 557 L934 524 Z " />
<glyph glyph-name="ugrave" unicode="&#xf9;" horiz-adv-x="1232" d="M903 0 L1153 0 L1153 88 L1008 101 L1008 1082 L888 1082 L734 1082 L734 993 L888 980 L888 309 C844 168 739 83 558 83 C475 83 412 112 367 169 C322 226 299 321 299 453 L299 1082 L180 1082 L46 1082 L46 993 L180 980 L180 455 C180 130 316 -21 544 -21 C704 -21 824 51 892 178 L903 0 Z M425 1498 L271 1498 L269 1493 L510 1232 L627 1232 L425 1498 Z " />
<glyph glyph-name="uacute" unicode="&#xfa;" horiz-adv-x="1232" d="M903 0 L1153 0 L1153 88 L1008 101 L1008 1082 L888 1082 L734 1082 L734 993 L888 980 L888 309 C844 168 739 83 558 83 C475 83 412 112 367 169 C322 226 299 321 299 453 L299 1082 L180 1082 L46 1082 L46 993 L180 980 L180 455 C180 130 316 -21 544 -21 C704 -21 824 51 892 178 L903 0 Z M462 1217 L569 1217 L818 1477 L815 1483 L668 1483 L462 1217 Z " />
<glyph glyph-name="ucircumflex" unicode="&#xfb;" horiz-adv-x="1232" d="M903 0 L1153 0 L1153 88 L1008 101 L1008 1082 L888 1082 L734 1082 L734 993 L888 980 L888 309 C844 168 739 83 558 83 C475 83 412 112 367 169 C322 226 299 321 299 453 L299 1082 L180 1082 L46 1082 L46 993 L180 980 L180 455 C180 130 316 -21 544 -21 C704 -21 824 51 892 178 L903 0 Z M608 1502 L510 1502 L284 1281 L284 1260 L393 1260 L559 1428 L726 1260 L838 1260 L838 1278 L608 1502 Z " />
<glyph glyph-name="udieresis" unicode="&#xfc;" horiz-adv-x="1232" d="M903 0 L1153 0 L1153 88 L1008 101 L1008 1082 L888 1082 L734 1082 L734 993 L888 980 L888 309 C844 168 739 83 558 83 C475 83 412 112 367 169 C322 226 299 321 299 453 L299 1082 L180 1082 L46 1082 L46 993 L180 980 L180 455 C180 130 316 -21 544 -21 C704 -21 824 51 892 178 L903 0 Z M874 1463 L701 1463 L701 1306 L874 1306 L874 1463 Z M405 1463 L231 1463 L231 1306 L405 1306 L405 1463 Z " />
<glyph glyph-name="yacute" unicode="&#xfd;" horiz-adv-x="1174" d="M1135 1082 L761 1082 L761 993 L893 983 L597 163 L591 163 L553 293 L289 983 L418 993 L418 1082 L46 1082 L46 993 L156 984 L540 13 L484 -132 C461 -191 434 -238 403 -275 C372 -312 331 -330 278 -330 C267 -330 215 -325 202 -323 L188 -423 C207 -430 255 -437 283 -437 C369 -437 434 -411 479 -360 C524 -309 560 -246 588 -173 L1025 984 L1135 993 L1135 1082 Z M498 1217 L605 1217 L854 1477 L851 1483 L704 1483 L498 1217 Z " />
<glyph glyph-name="thorn" unicode="&#xfe;" horiz-adv-x="1191" d="M47 -416 L492 -416 L492 -327 L329 -314 L329 146 C401 39 516 -21 668 -21 C797 -21 898 27 971 124 C1044 220 1081 349 1081 511 L1081 532 C1081 705 1044 843 971 947 C898 1050 796 1102 666 1102 C514 1102 401 1036 329 920 L329 1560 L47 1560 L47 1471 L210 1458 L210 -314 L47 -327 L47 -416 Z M961 511 C961 381 934 277 880 198 C825 119 746 80 641 80 C486 80 384 152 329 271 L329 791 C380 914 478 998 639 998 C744 998 824 955 879 868 C934 781 961 669 961 532 L961 511 Z " />
<glyph glyph-name="ydieresis" unicode="&#xff;" horiz-adv-x="1174" d="M1135 1082 L761 1082 L761 993 L893 983 L597 163 L591 163 L553 293 L289 983 L418 993 L418 1082 L46 1082 L46 993 L156 984 L540 13 L484 -132 C461 -191 434 -238 403 -275 C372 -312 331 -330 278 -330 C267 -330 215 -325 202 -323 L188 -423 C207 -430 255 -437 283 -437 C369 -437 434 -411 479 -360 C524 -309 560 -246 588 -173 L1025 984 L1135 993 L1135 1082 Z M910 1463 L737 1463 L737 1306 L910 1306 L910 1463 Z M441 1463 L267 1463 L267 1306 L441 1306 L441 1463 Z " />
<glyph glyph-name="Amacron" unicode="&#x100;" horiz-adv-x="1485" d="M55 0 L413 0 L413 88 L286 98 L407 424 L1061 424 L1181 98 L1054 88 L1054 0 L1413 0 L1413 88 L1304 96 L792 1456 L679 1456 L162 96 L55 88 L55 0 Z M733 1301 L739 1301 L1022 531 L447 531 L733 1301 Z M1074 1789 L404 1789 L404 1692 L1074 1692 L1074 1789 Z " />
<glyph glyph-name="amacron" unicode="&#x101;" horiz-adv-x="1130" d="M1057 0 L1057 88 L949 95 C942 134 941 174 941 218 L941 750 C941 863 905 950 832 1011 C759 1072 663 1102 544 1102 C387 1102 242 1049 142 972 L141 764 L240 764 L250 909 C317 965 419 1000 539 1000 C718 1000 822 907 822 752 L822 609 L583 609 C436 609 319 580 233 521 C147 462 104 383 104 283 C104 190 133 116 191 61 C249 6 331 -21 437 -21 C520 -21 595 -2 662 35 C729 72 782 119 822 176 C822 121 828 73 844 0 L1057 0 Z M450 85 C309 85 223 163 223 279 C223 348 256 405 321 450 C386 495 472 517 581 517 L822 517 L822 300 C793 237 745 185 679 145 C613 105 537 85 450 85 L450 85 Z M884 1468 L214 1468 L214 1371 L884 1371 L884 1468 Z " />
<glyph glyph-name="Abreve" unicode="&#x102;" horiz-adv-x="1485" d="M55 0 L413 0 L413 88 L286 98 L407 424 L1061 424 L1181 98 L1054 88 L1054 0 L1413 0 L1413 88 L1304 96 L792 1456 L679 1456 L162 96 L55 88 L55 0 Z M733 1301 L739 1301 L1022 531 L447 531 L733 1301 Z M916 1833 C916 1733 855 1662 730 1662 C601 1662 543 1730 543 1833 L449 1833 L447 1827 C444 1752 468 1692 519 1645 C570 1598 641 1575 730 1575 C818 1575 888 1599 939 1646 C990 1693 1015 1753 1012 1827 L1010 1833 L916 1833 Z " />
<glyph glyph-name="abreve" unicode="&#x103;" horiz-adv-x="1130" d="M1057 0 L1057 88 L949 95 C942 134 941 174 941 218 L941 750 C941 863 905 950 832 1011 C759 1072 663 1102 544 1102 C387 1102 242 1049 142 972 L141 764 L240 764 L250 909 C317 965 419 1000 539 1000 C718 1000 822 907 822 752 L822 609 L583 609 C436 609 319 580 233 521 C147 462 104 383 104 283 C104 190 133 116 191 61 C249 6 331 -21 437 -21 C520 -21 595 -2 662 35 C729 72 782 119 822 176 C822 121 828 73 844 0 L1057 0 Z M450 85 C309 85 223 163 223 279 C223 348 256 405 321 450 C386 495 472 517 581 517 L822 517 L822 300 C793 237 745 185 679 145 C613 105 537 85 450 85 L450 85 Z M726 1512 C726 1412 665 1341 540 1341 C411 1341 353 1409 353 1512 L259 1512 L257 1506 C254 1431 278 1371 329 1324 C380 1277 451 1254 540 1254 C628 1254 698 1278 749 1325 C800 1372 825 1432 822 1506 L820 1512 L726 1512 Z " />
<glyph glyph-name="Aogonek" unicode="&#x104;" horiz-adv-x="1485" d="M55 0 L413 0 L413 88 L286 98 L407 424 L1061 424 L1181 98 L1054 88 L1054 0 L1413 0 L1413 88 L1304 96 L792 1456 L679 1456 L162 96 L55 88 L55 0 Z M733 1301 L739 1301 L1022 531 L447 531 L733 1301 Z M1352 37 C1229 -34 1158 -130 1158 -223 C1158 -330 1230 -392 1331 -392 C1398 -392 1444 -373 1483 -348 L1459 -265 C1427 -284 1397 -297 1354 -297 C1286 -297 1265 -253 1265 -212 C1265 -137 1317 -80 1413 0 L1352 37 Z " />
<glyph glyph-name="aogonek" unicode="&#x105;" horiz-adv-x="1130" d="M1057 0 L1057 88 L949 95 C942 134 941 174 941 218 L941 750 C941 863 905 950 832 1011 C759 1072 663 1102 544 1102 C387 1102 242 1049 142 972 L141 764 L240 764 L250 909 C317 965 419 1000 539 1000 C718 1000 822 907 822 752 L822 609 L583 609 C436 609 319 580 233 521 C147 462 104 383 104 283 C104 190 133 116 191 61 C249 6 331 -21 437 -21 C520 -21 595 -2 662 35 C729 72 782 119 822 176 C822 121 828 73 844 0 L1057 0 Z M450 85 C309 85 223 163 223 279 C223 348 256 405 321 450 C386 495 472 517 581 517 L822 517 L822 300 C793 237 745 185 679 145 C613 105 537 85 450 85 L450 85 Z M996 37 C873 -34 802 -130 802 -223 C802 -330 874 -392 975 -392 C1042 -392 1088 -373 1127 -348 L1103 -265 C1071 -284 1041 -297 998 -297 C930 -297 909 -253 909 -212 C909 -137 961 -80 1057 0 L996 37 Z " />
<glyph glyph-name="Cacute" unicode="&#x106;" horiz-adv-x="1349" d="M1230 1256 C1185 1319 1120 1371 1035 1414 C950 1456 853 1477 745 1477 C554 1477 399 1408 281 1270 C162 1131 103 954 103 737 L103 718 C103 502 162 325 281 187 C400 48 552 -21 739 -21 C847 -21 945 0 1032 42 C1119 84 1185 136 1230 199 L1230 455 L1137 455 L1120 234 C1044 143 903 80 739 80 C584 80 460 140 365 259 C270 378 222 531 222 718 L222 739 C222 926 270 1079 366 1198 C462 1316 591 1375 754 1375 C917 1375 1043 1313 1120 1221 L1137 1000 L1230 1000 L1230 1256 Z M641 1573 L748 1573 L997 1833 L994 1839 L847 1839 L641 1573 Z " />
<glyph glyph-name="cacute" unicode="&#x107;" horiz-adv-x="1094" d="M559 80 C442 80 355 121 300 204 C245 287 217 392 217 520 L217 562 C217 688 245 793 301 876 C356 959 442 1000 558 1000 C679 1000 776 955 840 883 L859 691 L961 691 L956 927 C869 1035 725 1102 558 1102 C412 1102 299 1051 218 950 C137 849 97 719 97 562 L97 520 C97 361 137 232 218 131 C299 30 412 -21 559 -21 C669 -21 766 13 849 80 C932 147 971 231 968 331 L966 337 L860 337 C860 256 830 193 769 148 C708 103 638 80 559 80 L559 80 Z M462 1228 L569 1228 L818 1488 L815 1494 L668 1494 L462 1228 Z " />
<glyph glyph-name="Ccircumflex" unicode="&#x108;" horiz-adv-x="1349" d="M1230 1256 C1185 1319 1120 1371 1035 1414 C950 1456 853 1477 745 1477 C554 1477 399 1408 281 1270 C162 1131 103 954 103 737 L103 718 C103 502 162 325 281 187 C400 48 552 -21 739 -21 C847 -21 945 0 1032 42 C1119 84 1185 136 1230 199 L1230 455 L1137 455 L1120 234 C1044 143 903 80 739 80 C584 80 460 140 365 259 C270 378 222 531 222 718 L222 739 C222 926 270 1079 366 1198 C462 1316 591 1375 754 1375 C917 1375 1043 1313 1120 1221 L1137 1000 L1230 1000 L1230 1256 Z M787 1858 L689 1858 L463 1637 L463 1616 L572 1616 L738 1784 L905 1616 L1017 1616 L1017 1634 L787 1858 Z " />
<glyph glyph-name="ccircumflex" unicode="&#x109;" horiz-adv-x="1094" d="M559 80 C442 80 355 121 300 204 C245 287 217 392 217 520 L217 562 C217 688 245 793 301 876 C356 959 442 1000 558 1000 C679 1000 776 955 840 883 L859 691 L961 691 L956 927 C869 1035 725 1102 558 1102 C412 1102 299 1051 218 950 C137 849 97 719 97 562 L97 520 C97 361 137 232 218 131 C299 30 412 -21 559 -21 C669 -21 766 13 849 80 C932 147 971 231 968 331 L966 337 L860 337 C860 256 830 193 769 148 C708 103 638 80 559 80 L559 80 Z M608 1513 L510 1513 L284 1292 L284 1271 L393 1271 L559 1439 L726 1271 L838 1271 L838 1289 L608 1513 Z " />
<glyph glyph-name="uni010A" unicode="&#x10a;" horiz-adv-x="1349" d="M1230 1256 C1185 1319 1120 1371 1035 1414 C950 1456 853 1477 745 1477 C554 1477 399 1408 281 1270 C162 1131 103 954 103 737 L103 718 C103 502 162 325 281 187 C400 48 552 -21 739 -21 C847 -21 945 0 1032 42 C1119 84 1185 136 1230 199 L1230 455 L1137 455 L1120 234 C1044 143 903 80 739 80 C584 80 460 140 365 259 C270 378 222 531 222 718 L222 739 C222 926 270 1079 366 1198 C462 1316 591 1375 754 1375 C917 1375 1043 1313 1120 1221 L1137 1000 L1230 1000 L1230 1256 Z M810 1811 L659 1811 L659 1643 L810 1643 L810 1811 Z " />
<glyph glyph-name="uni010B" unicode="&#x10b;" horiz-adv-x="1094" d="M559 80 C442 80 355 121 300 204 C245 287 217 392 217 520 L217 562 C217 688 245 793 301 876 C356 959 442 1000 558 1000 C679 1000 776 955 840 883 L859 691 L961 691 L956 927 C869 1035 725 1102 558 1102 C412 1102 299 1051 218 950 C137 849 97 719 97 562 L97 520 C97 361 137 232 218 131 C299 30 412 -21 559 -21 C669 -21 766 13 849 80 C932 147 971 231 968 331 L966 337 L860 337 C860 256 830 193 769 148 C708 103 638 80 559 80 L559 80 Z M631 1466 L480 1466 L480 1298 L631 1298 L631 1466 Z " />
<glyph glyph-name="Ccaron" unicode="&#x10c;" horiz-adv-x="1349" d="M1230 1256 C1185 1319 1120 1371 1035 1414 C950 1456 853 1477 745 1477 C554 1477 399 1408 281 1270 C162 1131 103 954 103 737 L103 718 C103 502 162 325 281 187 C400 48 552 -21 739 -21 C847 -21 945 0 1032 42 C1119 84 1185 136 1230 199 L1230 455 L1137 455 L1120 234 C1044 143 903 80 739 80 C584 80 460 140 365 259 C270 378 222 531 222 718 L222 739 C222 926 270 1079 366 1198 C462 1316 591 1375 754 1375 C917 1375 1043 1313 1120 1221 L1137 1000 L1230 1000 L1230 1256 Z M570 1842 L456 1842 L456 1825 L687 1600 L785 1600 L1018 1825 L1018 1842 L903 1842 L736 1673 L570 1842 Z " />
<glyph glyph-name="ccaron" unicode="&#x10d;" horiz-adv-x="1094" d="M559 80 C442 80 355 121 300 204 C245 287 217 392 217 520 L217 562 C217 688 245 793 301 876 C356 959 442 1000 558 1000 C679 1000 776 955 840 883 L859 691 L961 691 L956 927 C869 1035 725 1102 558 1102 C412 1102 299 1051 218 950 C137 849 97 719 97 562 L97 520 C97 361 137 232 218 131 C299 30 412 -21 559 -21 C669 -21 766 13 849 80 C932 147 971 231 968 331 L966 337 L860 337 C860 256 830 193 769 148 C708 103 638 80 559 80 L559 80 Z M391 1497 L277 1497 L277 1480 L508 1255 L606 1255 L839 1480 L839 1497 L724 1497 L557 1328 L391 1497 Z " />
<glyph glyph-name="Dcaron" unicode="&#x10e;" horiz-adv-x="1401" d="M234 1456 L71 1456 L71 1367 L234 1354 L234 101 L71 88 L71 0 L657 0 C835 0 982 59 1098 177 C1214 295 1272 447 1272 634 L1272 821 C1272 1007 1214 1159 1098 1278 C982 1397 835 1456 657 1456 L234 1456 Z M657 1354 C800 1354 919 1304 1012 1203 C1105 1102 1152 976 1152 824 L1152 634 C1152 480 1106 353 1013 252 C920 151 801 101 657 101 L353 101 L353 1354 L657 1354 Z M447 1821 L333 1821 L333 1804 L564 1579 L662 1579 L895 1804 L895 1821 L780 1821 L613 1652 L447 1821 Z " />
<glyph glyph-name="dcaron" unicode="&#x10f;" horiz-adv-x="1366" d="M859 0 L1129 0 L1129 88 L966 101 L966 1560 L846 1560 L683 1560 L683 1471 L846 1458 L846 919 C773 1036 663 1102 512 1102 C381 1102 280 1050 207 947 C134 843 97 705 97 532 L97 511 C97 350 134 221 207 124 C280 27 381 -21 510 -21 C663 -21 777 43 849 156 L859 0 Z M218 532 C218 670 245 782 298 869 C351 955 430 998 535 998 C695 998 793 913 846 790 L846 278 C789 157 686 83 533 83 C428 83 349 122 297 199 C244 276 218 380 218 511 L218 532 Z M1260 1559 L1144 1559 L1144 1450 C1144 1354 1119 1278 1064 1197 L1135 1146 C1214 1221 1260 1337 1260 1453 L1260 1559 Z " />
<glyph glyph-name="Dcroat" unicode="&#x110;" horiz-adv-x="1431" d="M101 1456 L101 1367 L264 1354 L264 791 L103 791 L103 689 L264 689 L264 101 L101 88 L101 0 L687 0 C865 0 1012 59 1128 177 C1244 295 1302 447 1302 634 L1302 821 C1302 1007 1244 1159 1128 1278 C1012 1397 865 1456 687 1456 L101 1456 Z M715 791 L383 791 L383 1354 L687 1354 C830 1354 949 1304 1042 1203 C1135 1102 1182 976 1182 824 L1182 634 C1182 480 1136 353 1043 252 C950 151 831 101 687 101 L383 101 L383 689 L715 689 L715 791 Z " />
<glyph glyph-name="dcroat" unicode="&#x111;" horiz-adv-x="1246" d="M859 0 L1129 0 L1129 88 L966 101 L966 1209 L1175 1209 L1175 1311 L966 1311 L966 1560 L683 1560 L683 1471 L846 1458 L846 1311 L563 1311 L563 1209 L846 1209 L846 919 C773 1036 663 1102 512 1102 C381 1102 280 1050 207 947 C134 843 97 705 97 532 L97 511 C97 350 134 221 207 124 C280 27 381 -21 510 -21 C663 -21 777 43 849 156 L859 0 Z M218 532 C218 670 245 782 298 869 C351 955 430 998 535 998 C695 998 793 913 846 790 L846 278 C789 157 686 83 533 83 C428 83 349 122 297 199 C244 276 218 380 218 511 L218 532 Z " />
<glyph glyph-name="Emacron" unicode="&#x112;" horiz-adv-x="1286" d="M950 807 L353 807 L353 1354 L1036 1354 L1045 1136 L1151 1136 L1151 1456 L234 1456 L71 1456 L71 1367 L234 1354 L234 101 L71 88 L71 0 L1156 0 L1156 319 L1050 319 L1041 101 L353 101 L353 705 L950 705 L950 807 Z M974 1791 L304 1791 L304 1694 L974 1694 L974 1791 Z " />
<glyph glyph-name="emacron" unicode="&#x113;" horiz-adv-x="1102" d="M574 -21 C746 -21 869 33 950 118 L899 200 C824 123 722 80 574 80 C469 80 384 121 319 204 C254 286 221 388 221 509 L221 538 L985 538 L985 640 C985 780 947 892 871 976 C795 1060 691 1102 558 1102 C432 1102 325 1051 236 949 C147 847 102 719 102 564 L102 509 C102 355 147 228 236 129 C325 29 438 -21 574 -21 L574 -21 Z M558 1000 C653 1000 728 968 783 905 C838 842 866 763 866 669 L866 639 L232 639 L230 644 C240 746 275 831 336 899 C396 966 470 1000 558 1000 L558 1000 Z M902 1468 L232 1468 L232 1371 L902 1371 L902 1468 Z " />
<glyph glyph-name="Ebreve" unicode="&#x114;" horiz-adv-x="1286" d="M950 807 L353 807 L353 1354 L1036 1354 L1045 1136 L1151 1136 L1151 1456 L234 1456 L71 1456 L71 1367 L234 1354 L234 101 L71 88 L71 0 L1156 0 L1156 319 L1050 319 L1041 101 L353 101 L353 705 L950 705 L950 807 Z M816 1835 C816 1735 755 1664 630 1664 C501 1664 443 1732 443 1835 L349 1835 L347 1829 C344 1754 368 1694 419 1647 C470 1600 541 1577 630 1577 C718 1577 788 1601 839 1648 C890 1695 915 1755 912 1829 L910 1835 L816 1835 Z " />
<glyph glyph-name="ebreve" unicode="&#x115;" horiz-adv-x="1102" d="M574 -21 C746 -21 869 33 950 118 L899 200 C824 123 722 80 574 80 C469 80 384 121 319 204 C254 286 221 388 221 509 L221 538 L985 538 L985 640 C985 780 947 892 871 976 C795 1060 691 1102 558 1102 C432 1102 325 1051 236 949 C147 847 102 719 102 564 L102 509 C102 355 147 228 236 129 C325 29 438 -21 574 -21 L574 -21 Z M558 1000 C653 1000 728 968 783 905 C838 842 866 763 866 669 L866 639 L232 639 L230 644 C240 746 275 831 336 899 C396 966 470 1000 558 1000 L558 1000 Z M744 1512 C744 1412 683 1341 558 1341 C429 1341 371 1409 371 1512 L277 1512 L275 1506 C272 1431 296 1371 347 1324 C398 1277 469 1254 558 1254 C646 1254 716 1278 767 1325 C818 1372 843 1432 840 1506 L838 1512 L744 1512 Z " />
<glyph glyph-name="Edotaccent" unicode="&#x116;" horiz-adv-x="1286" d="M950 807 L353 807 L353 1354 L1036 1354 L1045 1136 L1151 1136 L1151 1456 L234 1456 L71 1456 L71 1367 L234 1354 L234 101 L71 88 L71 0 L1156 0 L1156 319 L1050 319 L1041 101 L353 101 L353 705 L950 705 L950 807 Z M706 1790 L555 1790 L555 1622 L706 1622 L706 1790 Z " />
<glyph glyph-name="edotaccent" unicode="&#x117;" horiz-adv-x="1102" d="M574 -21 C746 -21 869 33 950 118 L899 200 C824 123 722 80 574 80 C469 80 384 121 319 204 C254 286 221 388 221 509 L221 538 L985 538 L985 640 C985 780 947 892 871 976 C795 1060 691 1102 558 1102 C432 1102 325 1051 236 949 C147 847 102 719 102 564 L102 509 C102 355 147 228 236 129 C325 29 438 -21 574 -21 L574 -21 Z M558 1000 C653 1000 728 968 783 905 C838 842 866 763 866 669 L866 639 L232 639 L230 644 C240 746 275 831 336 899 C396 966 470 1000 558 1000 L558 1000 Z M634 1467 L483 1467 L483 1299 L634 1299 L634 1467 Z " />
<glyph glyph-name="Eogonek" unicode="&#x118;" horiz-adv-x="1286" d="M950 807 L353 807 L353 1354 L1036 1354 L1045 1136 L1151 1136 L1151 1456 L234 1456 L71 1456 L71 1367 L234 1354 L234 101 L71 88 L71 0 L1156 0 L1156 319 L1050 319 L1041 101 L353 101 L353 705 L950 705 L950 807 Z M628 41 C505 -30 434 -126 434 -219 C434 -326 506 -388 607 -388 C674 -388 720 -369 759 -344 L735 -261 C703 -280 673 -293 630 -293 C562 -293 541 -249 541 -208 C541 -133 593 -76 689 4 L628 41 Z " />
<glyph glyph-name="eogonek" unicode="&#x119;" horiz-adv-x="1102" d="M574 -21 C746 -21 869 33 950 118 L899 200 C824 123 722 80 574 80 C469 80 384 121 319 204 C254 286 221 388 221 509 L221 538 L985 538 L985 640 C985 780 947 892 871 976 C795 1060 691 1102 558 1102 C432 1102 325 1051 236 949 C147 847 102 719 102 564 L102 509 C102 355 147 228 236 129 C325 29 438 -21 574 -21 L574 -21 Z M558 1000 C653 1000 728 968 783 905 C838 842 866 763 866 669 L866 639 L232 639 L230 644 C240 746 275 831 336 899 C396 966 470 1000 558 1000 L558 1000 Z M780 95 C657 24 586 -72 586 -165 C586 -272 658 -334 759 -334 C826 -334 872 -315 911 -290 L887 -207 C855 -226 825 -239 782 -239 C714 -239 693 -195 693 -154 C693 -79 745 -22 841 58 L780 95 Z " />
<glyph glyph-name="Ecaron" unicode="&#x11a;" horiz-adv-x="1286" d="M950 807 L353 807 L353 1354 L1036 1354 L1045 1136 L1151 1136 L1151 1456 L234 1456 L71 1456 L71 1367 L234 1354 L234 101 L71 88 L71 0 L1156 0 L1156 319 L1050 319 L1041 101 L353 101 L353 705 L950 705 L950 807 Z M466 1821 L352 1821 L352 1804 L583 1579 L681 1579 L914 1804 L914 1821 L799 1821 L632 1652 L466 1821 Z " />
<glyph glyph-name="ecaron" unicode="&#x11b;" horiz-adv-x="1102" d="M574 -21 C746 -21 869 33 950 118 L899 200 C824 123 722 80 574 80 C469 80 384 121 319 204 C254 286 221 388 221 509 L221 538 L985 538 L985 640 C985 780 947 892 871 976 C795 1060 691 1102 558 1102 C432 1102 325 1051 236 949 C147 847 102 719 102 564 L102 509 C102 355 147 228 236 129 C325 29 438 -21 574 -21 L574 -21 Z M558 1000 C653 1000 728 968 783 905 C838 842 866 763 866 669 L866 639 L232 639 L230 644 C240 746 275 831 336 899 C396 966 470 1000 558 1000 L558 1000 Z M394 1498 L280 1498 L280 1481 L511 1256 L609 1256 L842 1481 L842 1498 L727 1498 L560 1329 L394 1498 Z " />
<glyph glyph-name="Gcircumflex" unicode="&#x11c;" horiz-adv-x="1420" d="M1239 651 L840 651 L840 554 L1120 549 L1120 196 C1093 168 1045 142 978 117 C911 92 830 80 735 80 C576 80 449 139 356 257 C262 375 215 529 215 718 L215 751 C215 935 263 1085 358 1201 C453 1317 584 1375 749 1375 C916 1375 1042 1320 1121 1233 L1142 1020 L1235 1020 L1235 1273 C1130 1400 959 1477 740 1477 C547 1477 392 1410 273 1275 C154 1140 95 965 95 749 L95 718 C95 499 154 321 273 184 C392 47 546 -21 735 -21 C864 -21 972 -2 1058 38 C1144 77 1204 117 1239 160 L1239 651 Z M747 1847 L649 1847 L423 1626 L423 1605 L532 1605 L698 1773 L865 1605 L977 1605 L977 1623 L747 1847 Z " />
<glyph glyph-name="gcircumflex" unicode="&#x11d;" horiz-adv-x="1148" d="M102 511 C102 350 139 221 212 124 C285 27 387 -21 517 -21 C668 -21 780 40 853 151 L853 14 C853 -202 748 -330 543 -330 C438 -330 343 -306 256 -265 L224 -366 C268 -388 320 -405 379 -418 C438 -431 493 -437 545 -437 C680 -437 785 -397 860 -316 C935 -235 973 -125 973 14 L973 1082 L872 1082 L858 909 C785 1032 672 1102 519 1102 C388 1102 286 1050 213 947 C139 843 102 705 102 532 L102 511 Z M222 532 C222 669 249 781 303 868 C356 955 436 998 541 998 C704 998 800 911 853 784 L853 282 C797 158 695 83 539 83 C434 83 355 122 302 200 C249 277 222 381 222 511 L222 532 Z M627 1513 L529 1513 L303 1292 L303 1271 L412 1271 L578 1439 L745 1271 L857 1271 L857 1289 L627 1513 Z " />
<glyph glyph-name="Gbreve" unicode="&#x11e;" horiz-adv-x="1420" d="M1239 651 L840 651 L840 554 L1120 549 L1120 196 C1093 168 1045 142 978 117 C911 92 830 80 735 80 C576 80 449 139 356 257 C262 375 215 529 215 718 L215 751 C215 935 263 1085 358 1201 C453 1317 584 1375 749 1375 C916 1375 1042 1320 1121 1233 L1142 1020 L1235 1020 L1235 1273 C1130 1400 959 1477 740 1477 C547 1477 392 1410 273 1275 C154 1140 95 965 95 749 L95 718 C95 499 154 321 273 184 C392 47 546 -21 735 -21 C864 -21 972 -2 1058 38 C1144 77 1204 117 1239 160 L1239 651 Z M880 1845 C880 1745 819 1674 694 1674 C565 1674 507 1742 507 1845 L413 1845 L411 1839 C408 1764 432 1704 483 1657 C534 1610 605 1587 694 1587 C782 1587 852 1611 903 1658 C954 1705 979 1765 976 1839 L974 1845 L880 1845 Z " />
<glyph glyph-name="gbreve" unicode="&#x11f;" horiz-adv-x="1148" d="M102 511 C102 350 139 221 212 124 C285 27 387 -21 517 -21 C668 -21 780 40 853 151 L853 14 C853 -202 748 -330 543 -330 C438 -330 343 -306 256 -265 L224 -366 C268 -388 320 -405 379 -418 C438 -431 493 -437 545 -437 C680 -437 785 -397 860 -316 C935 -235 973 -125 973 14 L973 1082 L872 1082 L858 909 C785 1032 672 1102 519 1102 C388 1102 286 1050 213 947 C139 843 102 705 102 532 L102 511 Z M222 532 C222 669 249 781 303 868 C356 955 436 998 541 998 C704 998 800 911 853 784 L853 282 C797 158 695 83 539 83 C434 83 355 122 302 200 C249 277 222 381 222 511 L222 532 Z M760 1511 C760 1411 699 1340 574 1340 C445 1340 387 1408 387 1511 L293 1511 L291 1505 C288 1430 312 1370 363 1323 C414 1276 485 1253 574 1253 C662 1253 732 1277 783 1324 C834 1371 859 1431 856 1505 L854 1511 L760 1511 Z " />
<glyph glyph-name="uni0120" unicode="&#x120;" horiz-adv-x="1420" d="M1239 651 L840 651 L840 554 L1120 549 L1120 196 C1093 168 1045 142 978 117 C911 92 830 80 735 80 C576 80 449 139 356 257 C262 375 215 529 215 718 L215 751 C215 935 263 1085 358 1201 C453 1317 584 1375 749 1375 C916 1375 1042 1320 1121 1233 L1142 1020 L1235 1020 L1235 1273 C1130 1400 959 1477 740 1477 C547 1477 392 1410 273 1275 C154 1140 95 965 95 749 L95 718 C95 499 154 321 273 184 C392 47 546 -21 735 -21 C864 -21 972 -2 1058 38 C1144 77 1204 117 1239 160 L1239 651 Z M770 1800 L619 1800 L619 1632 L770 1632 L770 1800 Z " />
<glyph glyph-name="uni0121" unicode="&#x121;" horiz-adv-x="1148" d="M102 511 C102 350 139 221 212 124 C285 27 387 -21 517 -21 C668 -21 780 40 853 151 L853 14 C853 -202 748 -330 543 -330 C438 -330 343 -306 256 -265 L224 -366 C268 -388 320 -405 379 -418 C438 -431 493 -437 545 -437 C680 -437 785 -397 860 -316 C935 -235 973 -125 973 14 L973 1082 L872 1082 L858 909 C785 1032 672 1102 519 1102 C388 1102 286 1050 213 947 C139 843 102 705 102 532 L102 511 Z M222 532 C222 669 249 781 303 868 C356 955 436 998 541 998 C704 998 800 911 853 784 L853 282 C797 158 695 83 539 83 C434 83 355 122 302 200 C249 277 222 381 222 511 L222 532 Z M650 1466 L499 1466 L499 1298 L650 1298 L650 1466 Z " />
<glyph glyph-name="Gcommaaccent" unicode="&#x122;" horiz-adv-x="1420" d="M1239 651 L840 651 L840 554 L1120 549 L1120 196 C1093 168 1045 142 978 117 C911 92 830 80 735 80 C576 80 449 139 356 257 C262 375 215 529 215 718 L215 751 C215 935 263 1085 358 1201 C453 1317 584 1375 749 1375 C916 1375 1042 1320 1121 1233 L1142 1020 L1235 1020 L1235 1273 C1130 1400 959 1477 740 1477 C547 1477 392 1410 273 1275 C154 1140 95 965 95 749 L95 718 C95 499 154 321 273 184 C392 47 546 -21 735 -21 C864 -21 972 -2 1058 38 C1144 77 1204 117 1239 160 L1239 651 Z M746 -139 L630 -139 L630 -248 C630 -344 605 -420 550 -501 L621 -552 C700 -477 746 -361 746 -245 L746 -139 Z " />
<glyph glyph-name="gcommaaccent" unicode="&#x123;" horiz-adv-x="1148" d="M102 511 C102 350 139 221 212 124 C285 27 387 -21 517 -21 C668 -21 780 40 853 151 L853 14 C853 -202 748 -330 543 -330 C438 -330 343 -306 256 -265 L224 -366 C268 -388 320 -405 379 -418 C438 -431 493 -437 545 -437 C680 -437 785 -397 860 -316 C935 -235 973 -125 973 14 L973 1082 L872 1082 L858 909 C785 1032 672 1102 519 1102 C388 1102 286 1050 213 947 C139 843 102 705 102 532 L102 511 Z M222 532 C222 669 249 781 303 868 C356 955 436 998 541 998 C704 998 800 911 853 784 L853 282 C797 158 695 83 539 83 C434 83 355 122 302 200 C249 277 222 381 222 511 L222 532 Z M516 1262 L636 1262 L636 1397 L675 1615 L604 1615 L516 1399 L516 1262 Z " />
<glyph glyph-name="Hcircumflex" unicode="&#x124;" horiz-adv-x="1537" d="M234 1354 L234 101 L71 88 L71 0 L516 0 L516 88 L353 101 L353 670 L1181 670 L1181 101 L1018 88 L1018 0 L1463 0 L1463 88 L1300 101 L1300 1354 L1463 1367 L1463 1456 L1300 1456 L1181 1456 L1018 1456 L1018 1367 L1181 1354 L1181 772 L353 772 L353 1354 L516 1367 L516 1456 L71 1456 L71 1367 L234 1354 Z M793 1836 L695 1836 L469 1615 L469 1594 L578 1594 L744 1762 L911 1594 L1023 1594 L1023 1612 L793 1836 Z " />
<glyph glyph-name="hcircumflex" unicode="&#x125;" horiz-adv-x="1298" d="M225 1458 L225 101 L62 88 L62 0 L507 0 L507 88 L344 101 L344 762 C396 905 507 998 671 998 C752 998 816 973 863 922 C909 871 932 786 932 669 L932 101 L769 88 L769 0 L1215 0 L1215 88 L1052 101 L1052 667 C1052 964 926 1102 698 1102 C538 1102 416 1026 344 897 L344 1560 L62 1560 L62 1471 L225 1458 Z M519 1836 L421 1836 L195 1615 L195 1594 L304 1594 L470 1762 L637 1594 L749 1594 L749 1612 L519 1836 Z " />
<glyph glyph-name="Hbar" unicode="&#x126;" horiz-adv-x="1486" d="M1274 1456 L1155 1456 L992 1456 L992 1367 L1155 1354 L1155 1090 L327 1090 L327 1354 L490 1367 L490 1456 L45 1456 L45 1367 L208 1354 L208 1090 L49 1090 L49 993 L208 993 L208 101 L45 88 L45 0 L490 0 L490 88 L327 101 L327 670 L1155 670 L1155 101 L992 88 L992 0 L1437 0 L1437 88 L1274 101 L1274 993 L1408 993 L1408 1090 L1274 1090 L1274 1354 L1437 1367 L1437 1456 L1274 1456 Z M327 993 L1155 993 L1155 772 L327 772 L327 993 Z " />
<glyph glyph-name="hbar" unicode="&#x127;" horiz-adv-x="1328" d="M255 1209 L255 101 L92 88 L92 0 L537 0 L537 88 L374 101 L374 762 C426 905 537 998 701 998 C782 998 846 973 893 922 C939 871 962 786 962 669 L962 101 L799 88 L799 0 L1245 0 L1245 88 L1082 101 L1082 667 C1082 964 956 1102 728 1102 C568 1102 446 1026 374 897 L374 1209 L693 1209 L693 1311 L374 1311 L374 1560 L92 1560 L92 1471 L255 1458 L255 1311 L81 1311 L81 1209 L255 1209 Z " />
<glyph glyph-name="Itilde" unicode="&#x128;" horiz-adv-x="627" d="M254 1354 L254 101 L91 88 L91 0 L537 0 L537 88 L374 101 L374 1354 L537 1367 L537 1456 L91 1456 L91 1367 L254 1354 Z M585 1841 C585 1768 534 1714 473 1714 C438 1714 394 1732 339 1769 C284 1806 234 1824 191 1824 C136 1824 90 1805 55 1766 C19 1727 1 1678 1 1621 L80 1603 C80 1675 128 1727 191 1727 C227 1727 271 1709 322 1672 C373 1635 424 1617 473 1617 C528 1617 573 1636 610 1675 C647 1714 665 1762 665 1821 L585 1841 Z " />
<glyph glyph-name="itilde" unicode="&#x129;" horiz-adv-x="637" d="M253 980 L253 101 L90 88 L90 0 L535 0 L535 88 L372 101 L372 1082 L90 1082 L90 993 L253 980 Z M577 1507 C577 1434 526 1380 465 1380 C430 1380 386 1398 331 1435 C276 1472 226 1490 183 1490 C128 1490 82 1471 47 1432 C11 1393 -7 1344 -7 1287 L72 1269 C72 1341 120 1393 183 1393 C219 1393 263 1375 314 1338 C365 1301 416 1283 465 1283 C520 1283 565 1302 602 1341 C639 1380 657 1428 657 1487 L577 1507 Z " />
<glyph glyph-name="Imacron" unicode="&#x12a;" horiz-adv-x="627" d="M254 1354 L254 101 L91 88 L91 0 L537 0 L537 88 L374 101 L374 1354 L537 1367 L537 1456 L91 1456 L91 1367 L254 1354 Z M662 1790 L-8 1790 L-8 1693 L662 1693 L662 1790 Z " />
<glyph glyph-name="imacron" unicode="&#x12b;" horiz-adv-x="637" d="M253 980 L253 101 L90 88 L90 0 L535 0 L535 88 L372 101 L372 1082 L90 1082 L90 993 L253 980 Z M654 1456 L-16 1456 L-16 1359 L654 1359 L654 1456 Z " />
<glyph glyph-name="Ibreve" unicode="&#x12c;" horiz-adv-x="627" d="M254 1354 L254 101 L91 88 L91 0 L537 0 L537 88 L374 101 L374 1354 L537 1367 L537 1456 L91 1456 L91 1367 L254 1354 Z M504 1834 C504 1734 443 1663 318 1663 C189 1663 131 1731 131 1834 L37 1834 L35 1828 C32 1753 56 1693 107 1646 C158 1599 229 1576 318 1576 C406 1576 476 1600 527 1647 C578 1694 603 1754 600 1828 L598 1834 L504 1834 Z " />
<glyph glyph-name="ibreve" unicode="&#x12d;" horiz-adv-x="637" d="M253 980 L253 101 L90 88 L90 0 L535 0 L535 88 L372 101 L372 1082 L90 1082 L90 993 L253 980 Z M496 1500 C496 1400 435 1329 310 1329 C181 1329 123 1397 123 1500 L29 1500 L27 1494 C24 1419 48 1359 99 1312 C150 1265 221 1242 310 1242 C398 1242 468 1266 519 1313 C570 1360 595 1420 592 1494 L590 1500 L496 1500 Z " />
<glyph glyph-name="Iogonek" unicode="&#x12e;" horiz-adv-x="627" d="M254 1354 L254 101 L91 88 L91 0 L537 0 L537 88 L374 101 L374 1354 L537 1367 L537 1456 L91 1456 L91 1367 L254 1354 Z M476 37 C353 -34 282 -130 282 -223 C282 -330 354 -392 455 -392 C522 -392 568 -373 607 -348 L583 -265 C551 -284 521 -297 478 -297 C410 -297 389 -253 389 -212 C389 -137 441 -80 537 0 L476 37 Z " />
<glyph glyph-name="iogonek" unicode="&#x12f;" horiz-adv-x="638" d="M89 0 L534 0 L534 88 L371 101 L371 1082 L89 1082 L89 993 L252 980 L252 101 L89 88 L89 0 Z M371 1560 L252 1560 L252 1392 L371 1392 L371 1560 Z M473 37 C350 -34 279 -130 279 -223 C279 -330 351 -392 452 -392 C519 -392 565 -373 604 -348 L580 -265 C548 -284 518 -297 475 -297 C407 -297 386 -253 386 -212 C386 -137 438 -80 534 0 L473 37 Z " />
<glyph glyph-name="Idotaccent" unicode="&#x130;" horiz-adv-x="627" d="M254 1354 L254 101 L91 88 L91 0 L537 0 L537 88 L374 101 L374 1354 L537 1367 L537 1456 L91 1456 L91 1367 L254 1354 Z M393 1789 L242 1789 L242 1621 L393 1621 L393 1789 Z " />
<glyph glyph-name="dotlessi" unicode="&#x131;" horiz-adv-x="637" d="M253 980 L253 101 L90 88 L90 0 L535 0 L535 88 L372 101 L372 1082 L90 1082 L90 993 L253 980 Z " />
<glyph glyph-name="IJ" unicode="&#x132;" horiz-adv-x="1785" d="M254 1354 L254 101 L91 88 L91 0 L537 0 L537 88 L374 101 L374 1354 L537 1367 L537 1456 L91 1456 L91 1367 L254 1354 Z M1544 1456 L1261 1456 L1261 1367 L1424 1354 L1424 413 C1424 312 1395 231 1338 171 C1281 110 1208 80 1119 80 C911 80 795 190 795 401 L683 401 L681 395 C678 259 716 156 795 85 C874 14 982 -21 1119 -21 C1244 -21 1347 18 1426 97 C1505 175 1544 280 1544 413 L1544 1354 L1707 1367 L1707 1456 L1544 1456 Z " />
<glyph glyph-name="ij" unicode="&#x133;" horiz-adv-x="1200" d="M89 0 L534 0 L534 88 L371 101 L371 1082 L89 1082 L89 993 L252 980 L252 101 L89 88 L89 0 Z M371 1560 L252 1560 L252 1392 L371 1392 L371 1560 Z M1040 1082 L757 1082 L757 993 L920 980 L920 -89 C920 -249 850 -332 730 -332 C701 -332 658 -324 638 -317 L625 -418 C662 -430 696 -437 737 -437 C928 -437 1040 -312 1040 -89 L1040 1082 Z M1034 1560 L914 1560 L914 1396 L1034 1396 L1034 1560 Z " />
<glyph glyph-name="Jcircumflex" unicode="&#x134;" horiz-adv-x="1158" d="M917 1456 L634 1456 L634 1367 L797 1354 L797 413 C797 312 768 231 711 171 C654 110 581 80 492 80 C284 80 168 190 168 401 L56 401 L54 395 C51 259 89 156 168 85 C247 14 355 -21 492 -21 C617 -21 720 18 799 97 C878 175 917 280 917 413 L917 1354 L1080 1367 L1080 1456 L917 1456 Z M920 1815 L822 1815 L596 1594 L596 1573 L705 1573 L871 1741 L1038 1573 L1150 1573 L1150 1591 L920 1815 Z " />
<glyph glyph-name="jcircumflex" unicode="&#x135;" horiz-adv-x="570" d="M411 1082 L128 1082 L128 993 L291 980 L291 -89 C291 -244 224 -335 108 -335 C79 -335 29 -327 9 -319 L-4 -418 C33 -430 67 -437 108 -437 C299 -437 411 -312 411 -89 L411 1082 Z M400 1492 L302 1492 L76 1271 L76 1250 L185 1250 L351 1418 L518 1250 L630 1250 L630 1268 L400 1492 Z " />
<glyph glyph-name="Kcommaaccent" unicode="&#x136;" horiz-adv-x="1417" d="M71 0 L516 0 L516 88 L353 101 L353 685 L553 685 L1076 96 L938 88 L938 0 L1353 0 L1353 88 L1222 100 L660 740 L1181 1355 L1309 1367 L1309 1456 L902 1456 L902 1367 L1042 1359 L552 786 L353 786 L353 1354 L516 1367 L516 1456 L71 1456 L71 1367 L234 1354 L234 101 L71 88 L71 0 Z M705 -134 L589 -134 L589 -243 C589 -339 564 -415 509 -496 L580 -547 C659 -472 705 -356 705 -240 L705 -134 Z " />
<glyph glyph-name="kcommaaccent" unicode="&#x137;" horiz-adv-x="1194" d="M225 1458 L225 101 L62 88 L62 0 L507 0 L507 88 L344 101 L344 527 L483 527 L859 95 L745 88 L745 0 L1125 0 L1125 88 L1005 99 L584 588 L954 981 L1080 993 L1080 1082 L699 1082 L699 993 L798 986 L800 981 L471 630 L344 630 L344 1560 L62 1560 L62 1471 L225 1458 Z M616 -125 L500 -125 L500 -234 C500 -330 475 -406 420 -487 L491 -538 C570 -463 616 -347 616 -231 L616 -125 Z " />
<glyph glyph-name="kgreenlandic" unicode="&#x138;" horiz-adv-x="1202" d="M62 0 L507 0 L507 88 L344 101 L344 527 L483 527 L942 0 L1125 0 L1125 88 L1005 99 L585 587 L967 981 L1094 993 L1094 1082 L712 1082 L712 993 L809 986 L811 981 L471 630 L344 630 L344 1081 L66 1081 L66 993 L225 979 L225 101 L62 88 L62 0 Z " />
<glyph glyph-name="Lacute" unicode="&#x139;" horiz-adv-x="1178" d="M1074 0 L1074 306 L968 306 L959 101 L354 101 L354 1354 L517 1367 L517 1456 L354 1456 L234 1456 L71 1456 L71 1367 L234 1354 L234 101 L71 88 L71 0 L1074 0 Z M197 1516 L304 1516 L553 1776 L550 1782 L403 1782 L197 1516 Z " />
<glyph glyph-name="lacute" unicode="&#x13a;" horiz-adv-x="610" d="M236 1458 L236 101 L73 88 L73 0 L518 0 L518 88 L355 101 L355 1560 L73 1560 L73 1471 L236 1458 Z M194 1613 L301 1613 L550 1873 L547 1879 L400 1879 L194 1613 Z " />
<glyph glyph-name="Lcommaaccent" unicode="&#x13b;" horiz-adv-x="1178" d="M1074 0 L1074 306 L968 306 L959 101 L354 101 L354 1354 L517 1367 L517 1456 L354 1456 L234 1456 L71 1456 L71 1367 L234 1354 L234 101 L71 88 L71 0 L1074 0 Z M695 -125 L579 -125 L579 -234 C579 -330 554 -406 499 -487 L570 -538 C649 -463 695 -347 695 -231 L695 -125 Z " />
<glyph glyph-name="lcommaaccent" unicode="&#x13c;" horiz-adv-x="610" d="M236 1458 L236 101 L73 88 L73 0 L518 0 L518 88 L355 101 L355 1560 L73 1560 L73 1471 L236 1458 Z M349 -130 L233 -130 L233 -239 C233 -335 208 -411 153 -492 L224 -543 C303 -468 349 -352 349 -236 L349 -130 Z " />
<glyph glyph-name="Lcaron" unicode="&#x13d;" horiz-adv-x="1178" d="M1074 0 L1074 306 L968 306 L959 101 L354 101 L354 1354 L517 1367 L517 1456 L354 1456 L234 1456 L71 1456 L71 1367 L234 1354 L234 101 L71 88 L71 0 L1074 0 Z M743 1456 L627 1456 L627 1347 C627 1251 602 1175 547 1094 L618 1043 C697 1118 743 1234 743 1350 L743 1456 Z " />
<glyph glyph-name="lcaron" unicode="&#x13e;" horiz-adv-x="760" d="M236 1458 L236 101 L73 88 L73 0 L518 0 L518 88 L355 101 L355 1560 L73 1560 L73 1471 L236 1458 Z M618 1559 L502 1559 L502 1450 C502 1354 477 1278 422 1197 L493 1146 C572 1221 618 1337 618 1453 L618 1559 Z " />
<glyph glyph-name="Ldot" unicode="&#x13f;" horiz-adv-x="1178" d="M1074 0 L1074 306 L968 306 L959 101 L354 101 L354 1354 L517 1367 L517 1456 L354 1456 L234 1456 L71 1456 L71 1367 L234 1354 L234 101 L71 88 L71 0 L1074 0 Z M764 855 L613 855 L613 687 L764 687 L764 855 Z " />
<glyph glyph-name="ldot" unicode="&#x140;" horiz-adv-x="830" d="M236 1458 L236 101 L73 88 L73 0 L518 0 L518 88 L355 101 L355 1560 L73 1560 L73 1471 L236 1458 Z M610 868 L459 868 L459 700 L610 700 L610 868 Z " />
<glyph glyph-name="Lslash" unicode="&#x141;" horiz-adv-x="1179" d="M354 1456 L71 1456 L71 1367 L234 1354 L234 774 L71 722 L71 614 L234 666 L234 101 L71 88 L71 0 L1074 0 L1074 306 L968 306 L959 101 L354 101 L354 704 L660 801 L660 909 L354 812 L354 1354 L517 1367 L517 1456 L354 1456 Z " />
<glyph glyph-name="lslash" unicode="&#x142;" horiz-adv-x="579" d="M344 1560 L62 1560 L62 1471 L225 1458 L225 809 L57 743 L57 634 L225 700 L225 101 L62 88 L62 0 L507 0 L507 88 L344 101 L344 747 L531 821 L531 930 L344 856 L344 1560 Z " />
<glyph glyph-name="Nacute" unicode="&#x143;" horiz-adv-x="1536" d="M1306 1456 L1024 1456 L1024 1367 L1187 1354 L1187 207 L1181 206 L354 1456 L234 1456 L71 1456 L71 1367 L234 1354 L234 101 L71 88 L71 0 L517 0 L517 88 L354 101 L354 1251 L360 1252 L1187 0 L1306 0 L1306 1354 L1469 1367 L1469 1456 L1306 1456 Z M641 1552 L748 1552 L997 1812 L994 1818 L847 1818 L641 1552 Z " />
<glyph glyph-name="nacute" unicode="&#x144;" horiz-adv-x="1319" d="M75 0 L521 0 L521 88 L358 101 L358 755 C405 902 510 998 678 998 C763 998 829 972 876 921 C922 870 945 782 945 658 L945 101 L782 88 L782 0 L1228 0 L1228 88 L1065 101 L1065 659 C1065 963 940 1102 705 1102 C544 1102 424 1026 355 893 L344 1082 L75 1082 L75 993 L238 980 L238 101 L75 88 L75 0 Z M555 1228 L662 1228 L911 1488 L908 1494 L761 1494 L555 1228 Z " />
<glyph glyph-name="Ncommaaccent" unicode="&#x145;" horiz-adv-x="1536" d="M1306 1456 L1024 1456 L1024 1367 L1187 1354 L1187 207 L1181 206 L354 1456 L234 1456 L71 1456 L71 1367 L234 1354 L234 101 L71 88 L71 0 L517 0 L517 88 L354 101 L354 1251 L360 1252 L1187 0 L1306 0 L1306 1354 L1469 1367 L1469 1456 L1306 1456 Z M795 -125 L679 -125 L679 -234 C679 -330 654 -406 599 -487 L670 -538 C749 -463 795 -347 795 -231 L795 -125 Z " />
<glyph glyph-name="ncommaaccent" unicode="&#x146;" horiz-adv-x="1319" d="M75 0 L521 0 L521 88 L358 101 L358 755 C405 902 510 998 678 998 C763 998 829 972 876 921 C922 870 945 782 945 658 L945 101 L782 88 L782 0 L1228 0 L1228 88 L1065 101 L1065 659 C1065 963 940 1102 705 1102 C544 1102 424 1026 355 893 L344 1082 L75 1082 L75 993 L238 980 L238 101 L75 88 L75 0 Z M700 -128 L584 -128 L584 -237 C584 -333 559 -409 504 -490 L575 -541 C654 -466 700 -350 700 -234 L700 -128 Z " />
<glyph glyph-name="Ncaron" unicode="&#x147;" horiz-adv-x="1536" d="M1306 1456 L1024 1456 L1024 1367 L1187 1354 L1187 207 L1181 206 L354 1456 L234 1456 L71 1456 L71 1367 L234 1354 L234 101 L71 88 L71 0 L517 0 L517 88 L354 101 L354 1251 L360 1252 L1187 0 L1306 0 L1306 1354 L1469 1367 L1469 1456 L1306 1456 Z M570 1821 L456 1821 L456 1804 L687 1579 L785 1579 L1018 1804 L1018 1821 L903 1821 L736 1652 L570 1821 Z " />
<glyph glyph-name="ncaron" unicode="&#x148;" horiz-adv-x="1319" d="M75 0 L521 0 L521 88 L358 101 L358 755 C405 902 510 998 678 998 C763 998 829 972 876 921 C922 870 945 782 945 658 L945 101 L782 88 L782 0 L1228 0 L1228 88 L1065 101 L1065 659 C1065 963 940 1102 705 1102 C544 1102 424 1026 355 893 L344 1082 L75 1082 L75 993 L238 980 L238 101 L75 88 L75 0 Z M484 1497 L370 1497 L370 1480 L601 1255 L699 1255 L932 1480 L932 1497 L817 1497 L650 1328 L484 1497 Z " />
<glyph glyph-name="napostrophe" unicode="&#x149;" horiz-adv-x="1319" d="M75 0 L521 0 L521 88 L358 101 L358 755 C405 902 510 998 678 998 C763 998 829 972 876 921 C922 870 945 782 945 658 L945 101 L782 88 L782 0 L1228 0 L1228 88 L1065 101 L1065 659 C1065 963 940 1102 705 1102 C544 1102 424 1026 355 893 L344 1082 L75 1082 L75 993 L238 980 L238 101 L75 88 L75 0 Z M178 1557 L62 1557 L62 1448 C62 1352 37 1276 -18 1195 L53 1144 C132 1219 178 1335 178 1451 L178 1557 Z " />
<glyph glyph-name="Eng" unicode="&#x14a;" horiz-adv-x="1547" d="M233 1354 L233 101 L70 88 L70 0 L515 0 L515 88 L352 101 L352 1245 L358 1246 L1186 0 L1186 -89 C1186 -245 1118 -335 1002 -335 C973 -335 923 -326 903 -319 L890 -418 C929 -430 961 -437 1002 -437 C1193 -437 1306 -312 1306 -89 L1306 1354 L1469 1367 L1469 1456 L1306 1456 L1186 1456 L1023 1456 L1023 1367 L1186 1354 L1186 212 L1180 211 L352 1456 L70 1456 L70 1367 L233 1354 Z " />
<glyph glyph-name="eng" unicode="&#x14b;" horiz-adv-x="1242" d="M253 980 L253 101 L90 88 L90 0 L535 0 L535 88 L372 101 L372 774 C420 911 522 998 689 998 C774 998 840 972 887 921 C933 870 956 782 956 658 L956 -89 C956 -244 889 -330 772 -330 C755 -330 736 -328 713 -325 C690 -322 673 -318 662 -315 L649 -418 C692 -430 727 -437 772 -437 C963 -437 1076 -312 1076 -89 L1076 659 C1076 964 951 1102 716 1102 C557 1102 440 1026 369 897 L359 1082 L90 1082 L90 993 L253 980 Z " />
<glyph glyph-name="Omacron" unicode="&#x14c;" horiz-adv-x="1468" d="M1357 737 C1357 955 1299 1133 1182 1271 C1065 1408 913 1477 726 1477 C542 1477 393 1408 278 1271 C163 1133 106 955 106 737 L106 718 C106 500 164 322 279 185 C394 48 543 -21 727 -21 C914 -21 1065 48 1182 185 C1299 322 1357 499 1357 718 L1357 737 Z M1237 718 C1237 527 1192 374 1101 258 C1010 141 885 83 727 83 C573 83 451 141 361 258 C271 375 226 528 226 718 L226 739 C226 928 271 1080 361 1197 C450 1314 572 1372 726 1372 C883 1372 1007 1314 1099 1197 C1191 1080 1237 928 1237 739 L1237 718 Z M1069 1801 L399 1801 L399 1704 L1069 1704 L1069 1801 Z " />
<glyph glyph-name="omacron" unicode="&#x14d;" horiz-adv-x="1152" d="M97 524 C97 364 141 233 228 132 C315 30 432 -21 577 -21 C721 -21 837 30 924 132 C1011 233 1054 364 1054 524 L1054 557 C1054 716 1010 847 923 949 C836 1051 720 1102 575 1102 C431 1102 315 1051 228 949 C141 847 97 716 97 557 L97 524 Z M217 557 C217 680 249 785 312 871 C375 957 463 1000 575 1000 C687 1000 775 957 839 871 C902 785 934 680 934 557 L934 524 C934 399 902 293 839 208 C776 123 688 80 577 80 C464 80 375 123 312 208 C249 293 217 399 217 524 L217 557 Z M918 1467 L248 1467 L248 1370 L918 1370 L918 1467 Z " />
<glyph glyph-name="Obreve" unicode="&#x14e;" horiz-adv-x="1468" d="M1357 737 C1357 955 1299 1133 1182 1271 C1065 1408 913 1477 726 1477 C542 1477 393 1408 278 1271 C163 1133 106 955 106 737 L106 718 C106 500 164 322 279 185 C394 48 543 -21 727 -21 C914 -21 1065 48 1182 185 C1299 322 1357 499 1357 718 L1357 737 Z M1237 718 C1237 527 1192 374 1101 258 C1010 141 885 83 727 83 C573 83 451 141 361 258 C271 375 226 528 226 718 L226 739 C226 928 271 1080 361 1197 C450 1314 572 1372 726 1372 C883 1372 1007 1314 1099 1197 C1191 1080 1237 928 1237 739 L1237 718 Z M911 1845 C911 1745 850 1674 725 1674 C596 1674 538 1742 538 1845 L444 1845 L442 1839 C439 1764 463 1704 514 1657 C565 1610 636 1587 725 1587 C813 1587 883 1611 934 1658 C985 1705 1010 1765 1007 1839 L1005 1845 L911 1845 Z " />
<glyph glyph-name="obreve" unicode="&#x14f;" horiz-adv-x="1152" d="M97 524 C97 364 141 233 228 132 C315 30 432 -21 577 -21 C721 -21 837 30 924 132 C1011 233 1054 364 1054 524 L1054 557 C1054 716 1010 847 923 949 C836 1051 720 1102 575 1102 C431 1102 315 1051 228 949 C141 847 97 716 97 557 L97 524 Z M217 557 C217 680 249 785 312 871 C375 957 463 1000 575 1000 C687 1000 775 957 839 871 C902 785 934 680 934 557 L934 524 C934 399 902 293 839 208 C776 123 688 80 577 80 C464 80 375 123 312 208 C249 293 217 399 217 524 L217 557 Z M760 1511 C760 1411 699 1340 574 1340 C445 1340 387 1408 387 1511 L293 1511 L291 1505 C288 1430 312 1370 363 1323 C414 1276 485 1253 574 1253 C662 1253 732 1277 783 1324 C834 1371 859 1431 856 1505 L854 1511 L760 1511 Z " />
<glyph glyph-name="Ohungarumlaut" unicode="&#x150;" horiz-adv-x="1468" d="M1357 737 C1357 955 1299 1133 1182 1271 C1065 1408 913 1477 726 1477 C542 1477 393 1408 278 1271 C163 1133 106 955 106 737 L106 718 C106 500 164 322 279 185 C394 48 543 -21 727 -21 C914 -21 1065 48 1182 185 C1299 322 1357 499 1357 718 L1357 737 Z M1237 718 C1237 527 1192 374 1101 258 C1010 141 885 83 727 83 C573 83 451 141 361 258 C271 375 226 528 226 718 L226 739 C226 928 271 1080 361 1197 C450 1314 572 1372 726 1372 C883 1372 1007 1314 1099 1197 C1191 1080 1237 928 1237 739 L1237 718 Z M744 1617 L746 1611 L860 1611 L1155 1871 L1153 1877 L1009 1877 L744 1617 Z M500 1616 L503 1611 L605 1611 L849 1871 L846 1877 L713 1877 L500 1616 Z " />
<glyph glyph-name="ohungarumlaut" unicode="&#x151;" horiz-adv-x="1152" d="M97 524 C97 364 141 233 228 132 C315 30 432 -21 577 -21 C721 -21 837 30 924 132 C1011 233 1054 364 1054 524 L1054 557 C1054 716 1010 847 923 949 C836 1051 720 1102 575 1102 C431 1102 315 1051 228 949 C141 847 97 716 97 557 L97 524 Z M217 557 C217 680 249 785 312 871 C375 957 463 1000 575 1000 C687 1000 775 957 839 871 C902 785 934 680 934 557 L934 524 C934 399 902 293 839 208 C776 123 688 80 577 80 C464 80 375 123 312 208 C249 293 217 399 217 524 L217 557 Z M593 1283 L595 1277 L709 1277 L1004 1537 L1002 1543 L858 1543 L593 1283 Z M349 1282 L352 1277 L454 1277 L698 1537 L695 1543 L562 1543 L349 1282 Z " />
<glyph glyph-name="OE" unicode="&#x152;" horiz-adv-x="1971" d="M1857 0 L1857 319 L1751 319 L1742 101 L1054 101 L1054 705 L1651 705 L1651 807 L1054 807 L1054 1354 L1737 1354 L1746 1136 L1852 1136 L1852 1456 L963 1456 C850 1468 750 1477 650 1477 C491 1477 362 1422 263 1311 C164 1200 114 1057 114 880 L114 576 C114 399 164 256 263 145 C362 34 492 -21 652 -21 C701 -21 748 -19 795 -16 C841 -12 897 -7 963 0 L1857 0 Z M652 81 C525 81 423 126 348 215 C272 304 234 424 234 576 L234 882 C234 1035 271 1155 346 1243 C421 1331 522 1375 650 1375 C690 1375 732 1373 772 1372 L772 1367 L935 1354 L935 101 L772 88 L772 84 C732 81 691 81 652 81 L652 81 Z " />
<glyph glyph-name="oe" unicode="&#x153;" horiz-adv-x="1916" d="M104 524 C104 364 148 233 235 132 C322 30 438 -21 583 -21 C775 -21 926 80 1003 248 C1042 165 1099 99 1172 51 C1245 3 1328 -21 1420 -21 C1592 -21 1716 33 1797 118 L1746 200 C1671 123 1569 80 1420 80 C1315 80 1230 121 1165 203 C1100 285 1068 387 1068 509 L1068 538 L1832 538 L1832 640 C1832 780 1794 892 1718 976 C1642 1060 1538 1102 1405 1102 C1320 1102 1242 1078 1171 1029 C1100 980 1044 913 1005 830 C926 999 776 1102 581 1102 C437 1102 322 1051 235 949 C148 847 104 716 104 557 L104 524 Z M223 557 C223 680 255 785 318 871 C381 957 469 1000 581 1000 C693 1000 781 957 845 871 C909 785 941 680 941 557 L941 524 C941 399 909 293 846 208 C782 123 694 80 583 80 C470 80 381 123 318 208 C255 293 223 399 223 524 L223 557 Z M1405 1000 C1500 1000 1575 968 1630 905 C1685 842 1713 763 1713 669 L1713 639 L1079 639 L1077 644 C1087 746 1122 831 1183 899 C1243 966 1317 1000 1405 1000 L1405 1000 Z " />
<glyph glyph-name="Racute" unicode="&#x154;" horiz-adv-x="1374" d="M71 1455 L71 1367 L234 1353 L234 101 L71 87 L71 0 L516 0 L516 87 L353 101 L353 667 L719 667 C920 663 1039 553 1039 377 L1039 248 C1039 179 1053 120 1081 72 C1109 24 1158 0 1229 0 L1305 0 L1305 89 L1256 92 C1191 96 1159 143 1159 246 L1159 379 C1159 556 1085 676 905 721 C986 748 1049 792 1094 853 C1139 914 1161 982 1161 1058 C1161 1315 988 1455 676 1455 L71 1455 Z M353 1353 L676 1353 C920 1353 1041 1246 1041 1059 C1041 971 1011 901 950 848 C889 795 793 769 662 769 L353 769 L353 1353 Z M527 1552 L634 1552 L883 1812 L880 1818 L733 1818 L527 1552 Z " />
<glyph glyph-name="racute" unicode="&#x155;" horiz-adv-x="823" d="M252 1082 L89 1082 L89 993 L252 980 L252 101 L89 88 L89 0 L534 0 L534 88 L371 101 L371 747 C412 895 509 985 660 985 L749 979 L765 1091 C746 1096 716 1102 685 1102 C540 1102 432 1022 371 889 L371 902 L356 1082 L252 1082 Z M339 1230 L446 1230 L695 1490 L692 1496 L545 1496 L339 1230 Z " />
<glyph glyph-name="Rcommaaccent" unicode="&#x156;" horiz-adv-x="1374" d="M71 1455 L71 1367 L234 1353 L234 101 L71 87 L71 0 L516 0 L516 87 L353 101 L353 667 L719 667 C920 663 1039 553 1039 377 L1039 248 C1039 179 1053 120 1081 72 C1109 24 1158 0 1229 0 L1305 0 L1305 89 L1256 92 C1191 96 1159 143 1159 246 L1159 379 C1159 556 1085 676 905 721 C986 748 1049 792 1094 853 C1139 914 1161 982 1161 1058 C1161 1315 988 1455 676 1455 L71 1455 Z M353 1353 L676 1353 C920 1353 1041 1246 1041 1059 C1041 971 1011 901 950 848 C889 795 793 769 662 769 L353 769 L353 1353 Z M725 -125 L609 -125 L609 -234 C609 -330 584 -406 529 -487 L600 -538 C679 -463 725 -347 725 -231 L725 -125 Z " />
<glyph glyph-name="rcommaaccent" unicode="&#x157;" horiz-adv-x="823" d="M252 1082 L89 1082 L89 993 L252 980 L252 101 L89 88 L89 0 L534 0 L534 88 L371 101 L371 747 C412 895 509 985 660 985 L749 979 L765 1091 C746 1096 716 1102 685 1102 C540 1102 432 1022 371 889 L371 902 L356 1082 L252 1082 Z M347 -121 L231 -121 L231 -230 C231 -326 206 -402 151 -483 L222 -534 C301 -459 347 -343 347 -227 L347 -121 Z " />
<glyph glyph-name="Rcaron" unicode="&#x158;" horiz-adv-x="1374" d="M71 1455 L71 1367 L234 1353 L234 101 L71 87 L71 0 L516 0 L516 87 L353 101 L353 667 L719 667 C920 663 1039 553 1039 377 L1039 248 C1039 179 1053 120 1081 72 C1109 24 1158 0 1229 0 L1305 0 L1305 89 L1256 92 C1191 96 1159 143 1159 246 L1159 379 C1159 556 1085 676 905 721 C986 748 1049 792 1094 853 C1139 914 1161 982 1161 1058 C1161 1315 988 1455 676 1455 L71 1455 Z M353 1353 L676 1353 C920 1353 1041 1246 1041 1059 C1041 971 1011 901 950 848 C889 795 793 769 662 769 L353 769 L353 1353 Z M456 1821 L342 1821 L342 1804 L573 1579 L671 1579 L904 1804 L904 1821 L789 1821 L622 1652 L456 1821 Z " />
<glyph glyph-name="rcaron" unicode="&#x159;" horiz-adv-x="823" d="M252 1082 L89 1082 L89 993 L252 980 L252 101 L89 88 L89 0 L534 0 L534 88 L371 101 L371 747 C412 895 509 985 660 985 L749 979 L765 1091 C746 1096 716 1102 685 1102 C540 1102 432 1022 371 889 L371 902 L356 1082 L252 1082 Z M268 1499 L154 1499 L154 1482 L385 1257 L483 1257 L716 1482 L716 1499 L601 1499 L434 1330 L268 1499 Z " />
<glyph glyph-name="Sacute" unicode="&#x15a;" horiz-adv-x="1220" d="M1099 1273 C1003 1398 831 1477 619 1477 C472 1477 351 1442 258 1372 C165 1302 118 1211 118 1100 C118 991 159 905 241 841 C323 777 444 725 603 685 C750 646 854 602 913 552 C972 501 1002 436 1002 357 C1002 274 967 207 896 156 C825 105 732 80 617 80 C456 80 312 133 224 233 L207 446 L109 446 L109 191 C222 55 409 -21 617 -21 C764 -21 885 13 980 82 C1075 151 1122 243 1122 359 C1122 582 955 710 642 790 C493 827 389 871 329 920 C268 969 238 1030 238 1103 C238 1180 272 1245 339 1297 C406 1349 499 1375 619 1375 C786 1375 912 1321 984 1230 L1001 1024 L1099 1024 L1099 1273 Z M527 1562 L634 1562 L883 1822 L880 1828 L733 1828 L527 1562 Z " />
<glyph glyph-name="sacute" unicode="&#x15b;" horiz-adv-x="1025" d="M877 967 C794 1050 658 1102 499 1102 C384 1102 292 1074 222 1017 C152 960 117 890 117 807 C117 724 148 659 211 613 C273 566 368 529 497 501 C606 477 681 446 723 408 C764 370 785 326 785 275 C785 221 760 175 710 137 C660 99 592 80 505 80 C398 80 294 107 230 171 L213 325 L116 325 L116 107 C212 26 345 -21 505 -21 C625 -21 722 7 795 63 C868 118 904 191 904 281 C904 452 776 544 519 601 C406 626 331 654 294 687 C256 720 237 761 237 811 C237 862 259 906 303 944 C346 981 412 1000 499 1000 C618 1000 710 964 770 901 L784 748 L882 748 L877 967 Z M424 1230 L531 1230 L780 1490 L777 1496 L630 1496 L424 1230 Z " />
<glyph glyph-name="Scircumflex" unicode="&#x15c;" horiz-adv-x="1220" d="M1099 1273 C1003 1398 831 1477 619 1477 C472 1477 351 1442 258 1372 C165 1302 118 1211 118 1100 C118 991 159 905 241 841 C323 777 444 725 603 685 C750 646 854 602 913 552 C972 501 1002 436 1002 357 C1002 274 967 207 896 156 C825 105 732 80 617 80 C456 80 312 133 224 233 L207 446 L109 446 L109 191 C222 55 409 -21 617 -21 C764 -21 885 13 980 82 C1075 151 1122 243 1122 359 C1122 582 955 710 642 790 C493 827 389 871 329 920 C268 969 238 1030 238 1103 C238 1180 272 1245 339 1297 C406 1349 499 1375 619 1375 C786 1375 912 1321 984 1230 L1001 1024 L1099 1024 L1099 1273 Z M673 1847 L575 1847 L349 1626 L349 1605 L458 1605 L624 1773 L791 1605 L903 1605 L903 1623 L673 1847 Z " />
<glyph glyph-name="scircumflex" unicode="&#x15d;" horiz-adv-x="1025" d="M877 967 C794 1050 658 1102 499 1102 C384 1102 292 1074 222 1017 C152 960 117 890 117 807 C117 724 148 659 211 613 C273 566 368 529 497 501 C606 477 681 446 723 408 C764 370 785 326 785 275 C785 221 760 175 710 137 C660 99 592 80 505 80 C398 80 294 107 230 171 L213 325 L116 325 L116 107 C212 26 345 -21 505 -21 C625 -21 722 7 795 63 C868 118 904 191 904 281 C904 452 776 544 519 601 C406 626 331 654 294 687 C256 720 237 761 237 811 C237 862 259 906 303 944 C346 981 412 1000 499 1000 C618 1000 710 964 770 901 L784 748 L882 748 L877 967 Z M570 1515 L472 1515 L246 1294 L246 1273 L355 1273 L521 1441 L688 1273 L800 1273 L800 1291 L570 1515 Z " />
<glyph glyph-name="Scedilla" unicode="&#x15e;" horiz-adv-x="1220" d="M1099 1273 C1003 1398 831 1477 619 1477 C472 1477 351 1442 258 1372 C165 1302 118 1211 118 1100 C118 991 159 905 241 841 C323 777 444 725 603 685 C750 646 854 602 913 552 C972 501 1002 436 1002 357 C1002 274 967 207 896 156 C825 105 732 80 617 80 C456 80 312 133 224 233 L207 446 L109 446 L109 191 C222 55 409 -21 617 -21 C764 -21 885 13 980 82 C1075 151 1122 243 1122 359 C1122 582 955 710 642 790 C493 827 389 871 329 920 C268 969 238 1030 238 1103 C238 1180 272 1245 339 1297 C406 1349 499 1375 619 1375 C786 1375 912 1321 984 1230 L1001 1024 L1099 1024 L1099 1273 Z M576 -9 L548 -136 C617 -141 666 -152 693 -167 C720 -182 734 -208 734 -246 C734 -285 714 -315 673 -336 C632 -356 581 -366 522 -366 L529 -444 C725 -444 834 -365 834 -244 C834 -133 763 -85 658 -73 L669 -9 L576 -9 Z " />
<glyph glyph-name="scedilla" unicode="&#x15f;" horiz-adv-x="1025" d="M877 967 C794 1050 658 1102 499 1102 C384 1102 292 1074 222 1017 C152 960 117 890 117 807 C117 724 148 659 211 613 C273 566 368 529 497 501 C606 477 681 446 723 408 C764 370 785 326 785 275 C785 221 760 175 710 137 C660 99 592 80 505 80 C398 80 294 107 230 171 L213 325 L116 325 L116 107 C212 26 345 -21 505 -21 C625 -21 722 7 795 63 C868 118 904 191 904 281 C904 452 776 544 519 601 C406 626 331 654 294 687 C256 720 237 761 237 811 C237 862 259 906 303 944 C346 981 412 1000 499 1000 C618 1000 710 964 770 901 L784 748 L882 748 L877 967 Z M470 -6 L442 -133 C511 -138 560 -149 587 -164 C614 -179 628 -205 628 -243 C628 -282 608 -312 567 -333 C526 -353 475 -363 416 -363 L423 -441 C619 -441 728 -362 728 -241 C728 -130 657 -82 552 -70 L563 -6 L470 -6 Z " />
<glyph glyph-name="Scaron" unicode="&#x160;" horiz-adv-x="1220" d="M1099 1273 C1003 1398 831 1477 619 1477 C472 1477 351 1442 258 1372 C165 1302 118 1211 118 1100 C118 991 159 905 241 841 C323 777 444 725 603 685 C750 646 854 602 913 552 C972 501 1002 436 1002 357 C1002 274 967 207 896 156 C825 105 732 80 617 80 C456 80 312 133 224 233 L207 446 L109 446 L109 191 C222 55 409 -21 617 -21 C764 -21 885 13 980 82 C1075 151 1122 243 1122 359 C1122 582 955 710 642 790 C493 827 389 871 329 920 C268 969 238 1030 238 1103 C238 1180 272 1245 339 1297 C406 1349 499 1375 619 1375 C786 1375 912 1321 984 1230 L1001 1024 L1099 1024 L1099 1273 Z M456 1831 L342 1831 L342 1814 L573 1589 L671 1589 L904 1814 L904 1831 L789 1831 L622 1662 L456 1831 Z " />
<glyph glyph-name="scaron" unicode="&#x161;" horiz-adv-x="1025" d="M877 967 C794 1050 658 1102 499 1102 C384 1102 292 1074 222 1017 C152 960 117 890 117 807 C117 724 148 659 211 613 C273 566 368 529 497 501 C606 477 681 446 723 408 C764 370 785 326 785 275 C785 221 760 175 710 137 C660 99 592 80 505 80 C398 80 294 107 230 171 L213 325 L116 325 L116 107 C212 26 345 -21 505 -21 C625 -21 722 7 795 63 C868 118 904 191 904 281 C904 452 776 544 519 601 C406 626 331 654 294 687 C256 720 237 761 237 811 C237 862 259 906 303 944 C346 981 412 1000 499 1000 C618 1000 710 964 770 901 L784 748 L882 748 L877 967 Z M353 1499 L239 1499 L239 1482 L470 1257 L568 1257 L801 1482 L801 1499 L686 1499 L519 1330 L353 1499 Z " />
<glyph glyph-name="uni0162" unicode="&#x162;" horiz-adv-x="1280" d="M60 1456 L60 1149 L167 1149 L175 1354 L579 1354 L579 101 L416 88 L416 0 L862 0 L862 88 L699 101 L699 1354 L1103 1354 L1112 1149 L1218 1149 L1218 1456 L60 1456 Z M595 0 L567 -127 C636 -132 685 -143 712 -158 C739 -173 753 -199 753 -237 C753 -276 733 -306 692 -327 C651 -347 600 -357 541 -357 L548 -435 C744 -435 853 -356 853 -235 C853 -124 782 -76 677 -64 L688 0 L595 0 Z " />
<glyph glyph-name="uni0163" unicode="&#x163;" horiz-adv-x="733" d="M251 1359 L251 1082 L65 1082 L65 984 L251 984 L251 279 C251 71 340 -21 492 -21 C549 -21 611 -11 651 6 L633 95 C585 87 552 84 513 84 C428 84 372 138 372 279 L372 984 L610 984 L610 1082 L372 1082 L372 1359 L251 1359 Z M420 0 L392 -127 C461 -132 510 -143 537 -158 C564 -173 578 -199 578 -237 C578 -276 558 -306 517 -327 C476 -347 425 -357 366 -357 L373 -435 C569 -435 678 -356 678 -235 C678 -124 607 -76 502 -64 L513 0 L420 0 Z " />
<glyph glyph-name="Tcaron" unicode="&#x164;" horiz-adv-x="1280" d="M60 1456 L60 1149 L167 1149 L175 1354 L579 1354 L579 101 L416 88 L416 0 L862 0 L862 88 L699 101 L699 1354 L1103 1354 L1112 1149 L1218 1149 L1218 1456 L60 1456 Z M478 1815 L364 1815 L364 1798 L595 1573 L693 1573 L926 1798 L926 1815 L811 1815 L644 1646 L478 1815 Z " />
<glyph glyph-name="tcaron" unicode="&#x165;" horiz-adv-x="773" d="M251 1359 L251 1082 L65 1082 L65 984 L251 984 L251 279 C251 71 340 -21 492 -21 C549 -21 611 -11 651 6 L633 95 C585 87 552 84 513 84 C428 84 372 138 372 279 L372 984 L610 984 L610 1082 L372 1082 L372 1359 L251 1359 Z M671 1571 L555 1571 L555 1462 C555 1366 530 1290 475 1209 L546 1158 C625 1233 671 1349 671 1465 L671 1571 Z " />
<glyph glyph-name="Tbar" unicode="&#x166;" horiz-adv-x="1280" d="M60 1456 L60 1149 L167 1149 L175 1354 L579 1354 L579 900 L357 900 L357 798 L579 798 L579 101 L416 88 L416 0 L862 0 L862 88 L699 101 L699 798 L969 798 L969 900 L699 900 L699 1354 L1103 1354 L1112 1149 L1218 1149 L1218 1456 L60 1456 Z " />
<glyph glyph-name="tbar" unicode="&#x167;" horiz-adv-x="733" d="M251 1359 L251 1082 L65 1082 L65 984 L251 984 L251 719 L45 719 L45 617 L251 617 L251 279 C251 71 340 -21 492 -21 C549 -21 611 -11 651 6 L633 95 C585 87 552 84 513 84 C428 84 372 138 372 279 L372 617 L657 617 L657 719 L372 719 L372 984 L610 984 L610 1082 L372 1082 L372 1359 L251 1359 Z " />
<glyph glyph-name="Utilde" unicode="&#x168;" horiz-adv-x="1487" d="M342 1456 L223 1456 L60 1456 L60 1367 L223 1354 L223 469 C223 311 271 190 366 106 C461 21 586 -21 739 -21 C895 -21 1022 21 1119 105 C1216 189 1264 310 1264 469 L1264 1354 L1427 1367 L1427 1456 L982 1456 L982 1367 L1145 1354 L1145 469 C1145 344 1107 248 1032 181 C957 114 859 80 739 80 C621 80 525 114 452 182 C379 249 342 345 342 469 L342 1354 L505 1367 L505 1456 L342 1456 Z M1002 1835 C1002 1762 951 1708 890 1708 C855 1708 811 1726 756 1763 C701 1800 651 1818 608 1818 C553 1818 507 1799 472 1760 C436 1721 418 1672 418 1615 L497 1597 C497 1669 545 1721 608 1721 C644 1721 688 1703 739 1666 C790 1629 841 1611 890 1611 C945 1611 990 1630 1027 1669 C1064 1708 1082 1756 1082 1815 L1002 1835 Z " />
<glyph glyph-name="utilde" unicode="&#x169;" horiz-adv-x="1232" d="M903 0 L1153 0 L1153 88 L1008 101 L1008 1082 L888 1082 L734 1082 L734 993 L888 980 L888 309 C844 168 739 83 558 83 C475 83 412 112 367 169 C322 226 299 321 299 453 L299 1082 L180 1082 L46 1082 L46 993 L180 980 L180 455 C180 130 316 -21 544 -21 C704 -21 824 51 892 178 L903 0 Z M822 1507 C822 1434 771 1380 710 1380 C675 1380 631 1398 576 1435 C521 1472 471 1490 428 1490 C373 1490 327 1471 292 1432 C256 1393 238 1344 238 1287 L317 1269 C317 1341 365 1393 428 1393 C464 1393 508 1375 559 1338 C610 1301 661 1283 710 1283 C765 1283 810 1302 847 1341 C884 1380 902 1428 902 1487 L822 1507 Z " />
<glyph glyph-name="Umacron" unicode="&#x16a;" horiz-adv-x="1487" d="M342 1456 L223 1456 L60 1456 L60 1367 L223 1354 L223 469 C223 311 271 190 366 106 C461 21 586 -21 739 -21 C895 -21 1022 21 1119 105 C1216 189 1264 310 1264 469 L1264 1354 L1427 1367 L1427 1456 L982 1456 L982 1367 L1145 1354 L1145 469 C1145 344 1107 248 1032 181 C957 114 859 80 739 80 C621 80 525 114 452 182 C379 249 342 345 342 469 L342 1354 L505 1367 L505 1456 L342 1456 Z M1079 1784 L409 1784 L409 1687 L1079 1687 L1079 1784 Z " />
<glyph glyph-name="umacron" unicode="&#x16b;" horiz-adv-x="1232" d="M903 0 L1153 0 L1153 88 L1008 101 L1008 1082 L888 1082 L734 1082 L734 993 L888 980 L888 309 C844 168 739 83 558 83 C475 83 412 112 367 169 C322 226 299 321 299 453 L299 1082 L180 1082 L46 1082 L46 993 L180 980 L180 455 C180 130 316 -21 544 -21 C704 -21 824 51 892 178 L903 0 Z M899 1456 L229 1456 L229 1359 L899 1359 L899 1456 Z " />
<glyph glyph-name="Ubreve" unicode="&#x16c;" horiz-adv-x="1487" d="M342 1456 L223 1456 L60 1456 L60 1367 L223 1354 L223 469 C223 311 271 190 366 106 C461 21 586 -21 739 -21 C895 -21 1022 21 1119 105 C1216 189 1264 310 1264 469 L1264 1354 L1427 1367 L1427 1456 L982 1456 L982 1367 L1145 1354 L1145 469 C1145 344 1107 248 1032 181 C957 114 859 80 739 80 C621 80 525 114 452 182 C379 249 342 345 342 469 L342 1354 L505 1367 L505 1456 L342 1456 Z M921 1828 C921 1728 860 1657 735 1657 C606 1657 548 1725 548 1828 L454 1828 L452 1822 C449 1747 473 1687 524 1640 C575 1593 646 1570 735 1570 C823 1570 893 1594 944 1641 C995 1688 1020 1748 1017 1822 L1015 1828 L921 1828 Z " />
<glyph glyph-name="ubreve" unicode="&#x16d;" horiz-adv-x="1232" d="M903 0 L1153 0 L1153 88 L1008 101 L1008 1082 L888 1082 L734 1082 L734 993 L888 980 L888 309 C844 168 739 83 558 83 C475 83 412 112 367 169 C322 226 299 321 299 453 L299 1082 L180 1082 L46 1082 L46 993 L180 980 L180 455 C180 130 316 -21 544 -21 C704 -21 824 51 892 178 L903 0 Z M741 1500 C741 1400 680 1329 555 1329 C426 1329 368 1397 368 1500 L274 1500 L272 1494 C269 1419 293 1359 344 1312 C395 1265 466 1242 555 1242 C643 1242 713 1266 764 1313 C815 1360 840 1420 837 1494 L835 1500 L741 1500 Z " />
<glyph glyph-name="Uring" unicode="&#x16e;" horiz-adv-x="1487" d="M342 1456 L223 1456 L60 1456 L60 1367 L223 1354 L223 469 C223 311 271 190 366 106 C461 21 586 -21 739 -21 C895 -21 1022 21 1119 105 C1216 189 1264 310 1264 469 L1264 1354 L1427 1367 L1427 1456 L982 1456 L982 1367 L1145 1354 L1145 469 C1145 344 1107 248 1032 181 C957 114 859 80 739 80 C621 80 525 114 452 182 C379 249 342 345 342 469 L342 1354 L505 1367 L505 1456 L342 1456 Z M572 1735 C572 1688 588 1649 621 1618 C654 1587 694 1572 741 1572 C787 1572 826 1587 859 1618 C891 1649 907 1688 907 1735 C907 1781 891 1820 858 1853 C825 1885 786 1901 741 1901 C694 1901 655 1885 622 1853 C589 1820 572 1781 572 1735 L572 1735 Z M650 1735 C650 1788 690 1828 741 1828 C790 1828 828 1788 828 1735 C828 1682 790 1644 741 1644 C690 1644 650 1683 650 1735 L650 1735 Z " />
<glyph glyph-name="uring" unicode="&#x16f;" horiz-adv-x="1232" d="M903 0 L1153 0 L1153 88 L1008 101 L1008 1082 L888 1082 L734 1082 L734 993 L888 980 L888 309 C844 168 739 83 558 83 C475 83 412 112 367 169 C322 226 299 321 299 453 L299 1082 L180 1082 L46 1082 L46 993 L180 980 L180 455 C180 130 316 -21 544 -21 C704 -21 824 51 892 178 L903 0 Z M392 1407 C392 1360 408 1321 441 1290 C474 1259 514 1244 561 1244 C607 1244 646 1259 679 1290 C711 1321 727 1360 727 1407 C727 1453 711 1492 678 1525 C645 1557 606 1573 561 1573 C514 1573 475 1557 442 1525 C409 1492 392 1453 392 1407 L392 1407 Z M470 1407 C470 1460 510 1500 561 1500 C610 1500 648 1460 648 1407 C648 1354 610 1316 561 1316 C510 1316 470 1355 470 1407 L470 1407 Z " />
<glyph glyph-name="Uhungarumlaut" unicode="&#x170;" horiz-adv-x="1487" d="M342 1456 L223 1456 L60 1456 L60 1367 L223 1354 L223 469 C223 311 271 190 366 106 C461 21 586 -21 739 -21 C895 -21 1022 21 1119 105 C1216 189 1264 310 1264 469 L1264 1354 L1427 1367 L1427 1456 L982 1456 L982 1367 L1145 1354 L1145 469 C1145 344 1107 248 1032 181 C957 114 859 80 739 80 C621 80 525 114 452 182 C379 249 342 345 342 469 L342 1354 L505 1367 L505 1456 L342 1456 Z M754 1600 L756 1594 L870 1594 L1165 1854 L1163 1860 L1019 1860 L754 1600 Z M510 1599 L513 1594 L615 1594 L859 1854 L856 1860 L723 1860 L510 1599 Z " />
<glyph glyph-name="uhungarumlaut" unicode="&#x171;" horiz-adv-x="1232" d="M903 0 L1153 0 L1153 88 L1008 101 L1008 1082 L888 1082 L734 1082 L734 993 L888 980 L888 309 C844 168 739 83 558 83 C475 83 412 112 367 169 C322 226 299 321 299 453 L299 1082 L180 1082 L46 1082 L46 993 L180 980 L180 455 C180 130 316 -21 544 -21 C704 -21 824 51 892 178 L903 0 Z M574 1272 L576 1266 L690 1266 L985 1526 L983 1532 L839 1532 L574 1272 Z M330 1271 L333 1266 L435 1266 L679 1526 L676 1532 L543 1532 L330 1271 Z " />
<glyph glyph-name="Uogonek" unicode="&#x172;" horiz-adv-x="1487" d="M342 1456 L223 1456 L60 1456 L60 1367 L223 1354 L223 469 C223 311 271 190 366 106 C461 21 586 -21 739 -21 C895 -21 1022 21 1119 105 C1216 189 1264 310 1264 469 L1264 1354 L1427 1367 L1427 1456 L982 1456 L982 1367 L1145 1354 L1145 469 C1145 344 1107 248 1032 181 C957 114 859 80 739 80 C621 80 525 114 452 182 C379 249 342 345 342 469 L342 1354 L505 1367 L505 1456 L342 1456 Z M726 34 C603 -37 532 -133 532 -226 C532 -333 604 -395 705 -395 C772 -395 818 -376 857 -351 L833 -268 C801 -287 771 -300 728 -300 C660 -300 639 -256 639 -215 C639 -140 691 -83 787 -3 L726 34 Z " />
<glyph glyph-name="uogonek" unicode="&#x173;" horiz-adv-x="1232" d="M903 0 L1153 0 L1153 88 L1008 101 L1008 1082 L888 1082 L734 1082 L734 993 L888 980 L888 309 C844 168 739 83 558 83 C475 83 412 112 367 169 C322 226 299 321 299 453 L299 1082 L180 1082 L46 1082 L46 993 L180 980 L180 455 C180 130 316 -21 544 -21 C704 -21 824 51 892 178 L903 0 Z M1092 37 C969 -34 898 -130 898 -223 C898 -330 970 -392 1071 -392 C1138 -392 1184 -373 1223 -348 L1199 -265 C1167 -284 1137 -297 1094 -297 C1026 -297 1005 -253 1005 -212 C1005 -137 1057 -80 1153 0 L1092 37 Z " />
<glyph glyph-name="Wcircumflex" unicode="&#x174;" horiz-adv-x="1937" d="M423 1456 L43 1456 L43 1367 L152 1359 L491 0 L604 0 L946 1117 L982 1270 L988 1270 L1026 1117 L1365 0 L1478 0 L1817 1359 L1926 1367 L1926 1456 L1546 1456 L1546 1367 L1694 1356 L1467 412 L1420 188 L1414 187 L1361 412 L1042 1456 L929 1456 L609 412 L555 190 L549 190 L505 412 L275 1356 L423 1367 L423 1456 Z M1031 1837 L933 1837 L707 1616 L707 1595 L816 1595 L982 1763 L1149 1595 L1261 1595 L1261 1613 L1031 1837 Z " />
<glyph glyph-name="wcircumflex" unicode="&#x175;" horiz-adv-x="1690" d="M419 1082 L56 1082 L56 993 L161 985 L447 0 L549 0 L786 740 L833 927 L839 927 L886 740 L1127 0 L1229 0 L1516 985 L1621 993 L1621 1082 L1257 1082 L1257 993 L1393 982 L1223 351 L1178 153 L1172 153 L1120 351 L889 1082 L787 1082 L556 351 L505 158 L499 158 L458 351 L283 982 L419 993 L419 1082 Z M880 1502 L782 1502 L556 1281 L556 1260 L665 1260 L831 1428 L998 1260 L1110 1260 L1110 1278 L880 1502 Z " />
<glyph glyph-name="Ycircumflex" unicode="&#x176;" horiz-adv-x="1423" d="M455 1456 L55 1456 L55 1367 L178 1357 L648 539 L648 101 L485 88 L485 0 L931 0 L931 88 L768 101 L768 532 L1242 1357 L1366 1367 L1366 1456 L965 1456 L965 1367 L1105 1357 L709 647 L315 1357 L455 1367 L455 1456 Z M762 1830 L664 1830 L438 1609 L438 1588 L547 1588 L713 1756 L880 1588 L992 1588 L992 1606 L762 1830 Z " />
<glyph glyph-name="ycircumflex" unicode="&#x177;" horiz-adv-x="1174" d="M1135 1082 L761 1082 L761 993 L893 983 L597 163 L591 163 L553 293 L289 983 L418 993 L418 1082 L46 1082 L46 993 L156 984 L540 13 L484 -132 C461 -191 434 -238 403 -275 C372 -312 331 -330 278 -330 C267 -330 215 -325 202 -323 L188 -423 C207 -430 255 -437 283 -437 C369 -437 434 -411 479 -360 C524 -309 560 -246 588 -173 L1025 984 L1135 993 L1135 1082 Z M644 1502 L546 1502 L320 1281 L320 1260 L429 1260 L595 1428 L762 1260 L874 1260 L874 1278 L644 1502 Z " />
<glyph glyph-name="Ydieresis" unicode="&#x178;" horiz-adv-x="1423" d="M455 1456 L55 1456 L55 1367 L178 1357 L648 539 L648 101 L485 88 L485 0 L931 0 L931 88 L768 101 L768 532 L1242 1357 L1366 1367 L1366 1456 L965 1456 L965 1367 L1105 1357 L709 647 L315 1357 L455 1367 L455 1456 Z M1028 1791 L855 1791 L855 1634 L1028 1634 L1028 1791 Z M559 1791 L385 1791 L385 1634 L559 1634 L559 1791 Z " />
<glyph glyph-name="Zacute" unicode="&#x179;" horiz-adv-x="1220" d="M1128 0 L1128 306 L1021 306 L1012 101 L234 101 L1095 1369 L1095 1456 L118 1456 L118 1149 L225 1149 L233 1354 L949 1354 L92 92 L92 0 L1128 0 Z M513 1552 L620 1552 L869 1812 L866 1818 L719 1818 L513 1552 Z " />
<glyph glyph-name="zacute" unicode="&#x17a;" horiz-adv-x="1080" d="M919 993 L919 1082 L119 1082 L119 775 L226 775 L234 979 L768 979 L116 88 L116 0 L967 0 L967 306 L860 306 L851 101 L263 101 L919 993 Z M438 1217 L545 1217 L794 1477 L791 1483 L644 1483 L438 1217 Z " />
<glyph glyph-name="Zdotaccent" unicode="&#x17b;" horiz-adv-x="1220" d="M1128 0 L1128 306 L1021 306 L1012 101 L234 101 L1095 1369 L1095 1456 L118 1456 L118 1149 L225 1149 L233 1354 L949 1354 L92 92 L92 0 L1128 0 Z M682 1790 L531 1790 L531 1622 L682 1622 L682 1790 Z " />
<glyph glyph-name="zdotaccent" unicode="&#x17c;" horiz-adv-x="1080" d="M919 993 L919 1082 L119 1082 L119 775 L226 775 L234 979 L768 979 L116 88 L116 0 L967 0 L967 306 L860 306 L851 101 L263 101 L919 993 Z M607 1456 L456 1456 L456 1288 L607 1288 L607 1456 Z " />
<glyph glyph-name="Zcaron" unicode="&#x17d;" horiz-adv-x="1220" d="M1128 0 L1128 306 L1021 306 L1012 101 L234 101 L1095 1369 L1095 1456 L118 1456 L118 1149 L225 1149 L233 1354 L949 1354 L92 92 L92 0 L1128 0 Z M442 1821 L328 1821 L328 1804 L559 1579 L657 1579 L890 1804 L890 1821 L775 1821 L608 1652 L442 1821 Z " />
<glyph glyph-name="zcaron" unicode="&#x17e;" horiz-adv-x="1080" d="M919 993 L919 1082 L119 1082 L119 775 L226 775 L234 979 L768 979 L116 88 L116 0 L967 0 L967 306 L860 306 L851 101 L263 101 L919 993 Z M367 1487 L253 1487 L253 1470 L484 1245 L582 1245 L815 1470 L815 1487 L700 1487 L533 1318 L367 1487 Z " />
<glyph glyph-name="longs" unicode="&#x17f;" horiz-adv-x="715" d="M220 1240 L220 101 L57 88 L57 0 L502 0 L502 88 L339 101 L339 1240 C339 1389 414 1479 545 1479 C588 1479 617 1474 650 1466 L665 1562 C620 1574 574 1581 530 1581 C334 1581 220 1457 220 1240 L220 1240 Z " />
<glyph glyph-name="florin" unicode="&#x192;" horiz-adv-x="774" d="M657 1082 L412 1082 L412 1240 C412 1389 484 1476 615 1476 C660 1476 691 1471 723 1463 L738 1562 C691 1574 646 1581 603 1581 C407 1581 292 1457 292 1240 L292 1082 L113 1082 L113 984 L292 984 L292 -89 C292 -244 225 -335 109 -335 C80 -335 30 -327 10 -319 L-3 -418 C34 -430 68 -437 109 -437 C300 -437 412 -312 412 -89 L412 984 L657 984 L657 1082 Z " />
<glyph glyph-name="Ohorn" unicode="&#x1a0;" horiz-adv-x="1468" d="M1349 737 C1349 913 1306 1069 1229 1194 C1397 1227 1477 1353 1477 1566 L1366 1566 C1366 1385 1313 1291 1165 1279 C1053 1406 898 1477 718 1477 C534 1477 385 1408 270 1271 C155 1133 98 955 98 737 L98 718 C98 500 156 322 271 185 C386 48 535 -21 719 -21 C906 -21 1057 48 1174 185 C1291 322 1349 499 1349 718 L1349 737 Z M1229 718 C1229 527 1184 374 1093 258 C1002 141 877 83 719 83 C565 83 443 141 353 258 C263 375 218 528 218 718 L218 739 C218 928 263 1080 353 1197 C442 1314 564 1372 718 1372 C875 1372 999 1314 1091 1197 C1183 1080 1229 928 1229 739 L1229 718 Z " />
<glyph glyph-name="ohorn" unicode="&#x1a1;" horiz-adv-x="1263" d="M103 524 C103 364 147 233 234 132 C321 30 438 -21 583 -21 C727 -21 843 30 930 132 C1017 233 1060 364 1060 524 L1060 557 C1060 678 1030 791 977 882 C1120 911 1179 1017 1179 1198 L1076 1198 C1076 1121 1066 1064 1045 1026 C1024 987 982 965 921 959 C836 1050 718 1102 581 1102 C437 1102 321 1051 234 949 C147 847 103 716 103 557 L103 524 Z M223 557 C223 680 255 785 318 871 C381 957 469 1000 581 1000 C693 1000 781 957 845 871 C908 785 940 680 940 557 L940 524 C940 399 908 293 845 208 C782 123 694 80 583 80 C470 80 381 123 318 208 C255 293 223 399 223 524 L223 557 Z " />
<glyph glyph-name="Uhorn" unicode="&#x1af;" horiz-adv-x="1603" d="M1124 1456 L961 1456 L961 1367 L1124 1354 L1124 469 C1124 344 1086 248 1011 181 C936 114 838 80 719 80 C601 80 505 114 432 182 C358 249 321 345 321 469 L321 1354 L484 1367 L484 1456 L321 1456 L202 1456 L39 1456 L39 1367 L202 1354 L202 469 C202 311 250 190 345 106 C440 21 565 -21 719 -21 C874 -21 1001 21 1098 106 C1195 190 1244 311 1244 469 L1244 1151 C1483 1160 1584 1294 1580 1545 L1578 1550 L1475 1550 C1475 1351 1418 1254 1250 1253 L1244 1254 L1244 1456 L1124 1456 Z " />
<glyph glyph-name="uhorn" unicode="&#x1b0;" horiz-adv-x="1374" d="M910 1082 L756 1082 L756 993 L910 980 L910 309 C866 168 761 83 580 83 C497 83 434 112 389 169 C344 226 321 321 321 453 L321 1082 L202 1082 L68 1082 L68 993 L202 980 L202 455 C202 130 338 -21 566 -21 C726 -21 846 51 914 178 L925 0 L1175 0 L1175 88 L1030 101 L1030 859 C1133 862 1206 888 1247 939 C1288 990 1307 1066 1305 1169 L1303 1174 L1216 1174 C1216 1091 1204 1032 1181 997 C1158 962 1109 944 1036 945 L1030 947 L1030 1082 L910 1082 Z " />
<glyph glyph-name="uni01F0" unicode="&#x1f0;" horiz-adv-x="570" d="M411 1082 L128 1082 L128 993 L291 980 L291 -89 C291 -244 224 -335 108 -335 C79 -335 29 -327 9 -319 L-4 -418 C33 -430 67 -437 108 -437 C299 -437 411 -312 411 -89 L411 1082 Z M183 1476 L69 1476 L69 1459 L300 1234 L398 1234 L631 1459 L631 1476 L516 1476 L349 1307 L183 1476 Z " />
<glyph glyph-name="Aringacute" unicode="&#x1fa;" horiz-adv-x="1485" d="M55 0 L413 0 L413 88 L286 98 L407 424 L1061 424 L1181 98 L1054 88 L1054 0 L1413 0 L1413 88 L1304 96 L792 1456 L679 1456 L162 96 L55 88 L55 0 Z M733 1301 L739 1301 L1022 531 L447 531 L733 1301 Z M706 1757 L708 1752 L791 1752 L987 1933 L985 1939 L859 1939 L706 1757 Z M579 1546 C579 1503 594 1468 625 1439 C655 1410 691 1396 734 1396 C776 1396 812 1410 842 1439 C872 1468 887 1503 887 1546 C887 1589 872 1626 842 1656 C812 1685 776 1700 734 1700 C691 1700 655 1685 625 1656 C594 1626 579 1589 579 1546 L579 1546 Z M647 1546 C647 1597 686 1636 734 1636 C781 1636 819 1597 819 1546 C819 1497 781 1460 734 1460 C686 1460 647 1498 647 1546 L647 1546 Z " />
<glyph glyph-name="aringacute" unicode="&#x1fb;" horiz-adv-x="1130" d="M1057 0 L1057 88 L949 95 C942 134 941 174 941 218 L941 750 C941 863 905 950 832 1011 C759 1072 663 1102 544 1102 C387 1102 242 1049 142 972 L141 764 L240 764 L250 909 C317 965 419 1000 539 1000 C718 1000 822 907 822 752 L822 609 L583 609 C436 609 319 580 233 521 C147 462 104 383 104 283 C104 190 133 116 191 61 C249 6 331 -21 437 -21 C520 -21 595 -2 662 35 C729 72 782 119 822 176 C822 121 828 73 844 0 L1057 0 Z M450 85 C309 85 223 163 223 279 C223 348 256 405 321 450 C386 495 472 517 581 517 L822 517 L822 300 C793 237 745 185 679 145 C613 105 537 85 450 85 L450 85 Z M516 1437 L518 1432 L601 1432 L797 1613 L795 1619 L669 1619 L516 1437 Z M389 1226 C389 1183 404 1148 435 1119 C465 1090 501 1076 544 1076 C586 1076 622 1090 652 1119 C682 1148 697 1183 697 1226 C697 1269 682 1306 652 1336 C622 1365 586 1380 544 1380 C501 1380 465 1365 435 1336 C404 1306 389 1269 389 1226 L389 1226 Z M457 1226 C457 1277 496 1316 544 1316 C591 1316 629 1277 629 1226 C629 1177 591 1140 544 1140 C496 1140 457 1178 457 1226 L457 1226 Z " />
<glyph glyph-name="AEacute" unicode="&#x1fc;" horiz-adv-x="2058" d="M51 0 L431 0 L431 88 L325 96 L497 389 L1094 389 L1106 100 L948 88 L948 0 L1928 0 L1928 306 L1822 306 L1813 101 L1226 101 L1200 707 L1785 707 L1785 809 L1196 809 L1173 1354 L1751 1354 L1760 1149 L1867 1149 L1867 1456 L1003 1456 L181 98 L51 88 L51 0 Z M1034 1298 L1049 1342 L1055 1341 L1090 502 L564 502 L1034 1298 Z M1010 1551 L1117 1551 L1366 1811 L1363 1817 L1216 1817 L1010 1551 Z " />
<glyph glyph-name="aeacute" unicode="&#x1fd;" horiz-adv-x="1786" d="M1285 -21 C1374 -21 1449 -8 1508 18 C1567 44 1616 75 1656 112 L1608 199 C1523 127 1422 80 1285 80 C1164 80 1073 120 1013 199 C953 278 923 382 923 509 L923 538 L1678 538 L1678 638 C1678 782 1641 895 1567 978 C1492 1061 1388 1102 1255 1102 C1102 1102 970 1023 889 891 C834 1028 714 1102 547 1102 C423 1102 324 1072 250 1012 C176 951 141 875 144 783 L146 777 L256 765 C256 832 282 888 334 933 C386 978 457 1000 547 1000 C712 1000 798 899 798 720 L798 632 L535 632 C252 632 97 504 97 293 C97 196 128 120 190 64 C251 7 339 -21 452 -21 C558 -21 648 0 722 42 C795 84 848 134 881 192 C961 56 1101 -21 1285 -21 L1285 -21 Z M469 79 C305 79 217 160 217 289 C217 359 245 418 300 465 C355 512 434 536 537 536 L798 536 L798 248 C774 207 730 168 667 133 C603 97 537 79 469 79 L469 79 Z M1255 1000 C1354 1000 1430 969 1481 907 C1532 844 1558 764 1558 667 L1558 636 L933 636 L931 641 C940 745 973 831 1031 899 C1088 966 1163 1000 1255 1000 L1255 1000 Z M768 1229 L875 1229 L1124 1489 L1121 1495 L974 1495 L768 1229 Z " />
<glyph glyph-name="Oslashacute" unicode="&#x1fe;" horiz-adv-x="1408" d="M1351 737 C1351 976 1271 1181 1134 1314 L1251 1505 L1147 1505 L1065 1372 C966 1440 848 1477 720 1477 C536 1477 387 1408 272 1271 C157 1133 100 955 100 737 L100 718 C100 479 175 277 310 145 L169 -84 L273 -84 L378 87 C473 16 590 -21 721 -21 C908 -21 1059 48 1176 185 C1293 322 1351 499 1351 718 L1351 737 Z M1231 718 C1231 527 1186 374 1095 258 C1004 141 879 83 721 83 C609 83 513 115 434 178 L1071 1213 L1077 1212 C1174 1105 1231 936 1231 739 L1231 718 Z M220 739 C220 928 265 1080 355 1197 C444 1314 566 1372 720 1372 C831 1372 928 1339 1008 1280 L373 247 L367 248 C272 353 220 521 220 718 L220 739 Z M604 1585 L711 1585 L960 1845 L957 1851 L810 1851 L604 1585 Z " />
<glyph glyph-name="oslashacute" unicode="&#x1ff;" horiz-adv-x="1152" d="M97 524 C97 327 170 162 298 67 L192 -140 L285 -140 L369 24 C430 -7 500 -21 577 -21 C721 -21 837 30 924 132 C1011 233 1054 364 1054 524 L1054 557 C1054 744 987 903 871 1000 L981 1214 L888 1214 L802 1047 C734 1082 658 1102 575 1102 C431 1102 315 1051 228 949 C141 847 97 716 97 557 L97 524 Z M217 557 C217 680 249 785 312 871 C375 957 463 1000 575 1000 C642 1000 701 982 752 950 L353 174 L347 174 C263 247 217 377 217 524 L217 557 Z M934 524 C934 399 902 293 839 208 C776 123 688 80 577 80 C516 80 462 93 417 118 L814 889 L819 889 C892 813 934 690 934 557 L934 524 Z M474 1228 L581 1228 L830 1488 L827 1494 L680 1494 L474 1228 Z " />
<glyph glyph-name="uni0218" unicode="&#x218;" horiz-adv-x="1220" d="M1099 1273 C1003 1398 831 1477 619 1477 C472 1477 351 1442 258 1372 C165 1302 118 1211 118 1100 C118 991 159 905 241 841 C323 777 444 725 603 685 C750 646 854 602 913 552 C972 501 1002 436 1002 357 C1002 274 967 207 896 156 C825 105 732 80 617 80 C456 80 312 133 224 233 L207 446 L109 446 L109 191 C222 55 409 -21 617 -21 C764 -21 885 13 980 82 C1075 151 1122 243 1122 359 C1122 582 955 710 642 790 C493 827 389 871 329 920 C268 969 238 1030 238 1103 C238 1180 272 1245 339 1297 C406 1349 499 1375 619 1375 C786 1375 912 1321 984 1230 L1001 1024 L1099 1024 L1099 1273 Z M673 -145 L557 -145 L557 -254 C557 -350 532 -426 477 -507 L548 -558 C627 -483 673 -367 673 -251 L673 -145 Z " />
<glyph glyph-name="uni0219" unicode="&#x219;" horiz-adv-x="1025" d="M877 967 C794 1050 658 1102 499 1102 C384 1102 292 1074 222 1017 C152 960 117 890 117 807 C117 724 148 659 211 613 C273 566 368 529 497 501 C606 477 681 446 723 408 C764 370 785 326 785 275 C785 221 760 175 710 137 C660 99 592 80 505 80 C398 80 294 107 230 171 L213 325 L116 325 L116 107 C212 26 345 -21 505 -21 C625 -21 722 7 795 63 C868 118 904 191 904 281 C904 452 776 544 519 601 C406 626 331 654 294 687 C256 720 237 761 237 811 C237 862 259 906 303 944 C346 981 412 1000 499 1000 C618 1000 710 964 770 901 L784 748 L882 748 L877 967 Z M567 -142 L451 -142 L451 -251 C451 -347 426 -423 371 -504 L442 -555 C521 -480 567 -364 567 -248 L567 -142 Z " />
<glyph glyph-name="uni021A" unicode="&#x21a;" horiz-adv-x="1280" d="M60 1456 L60 1149 L167 1149 L175 1354 L579 1354 L579 101 L416 88 L416 0 L862 0 L862 88 L699 101 L699 1354 L1103 1354 L1112 1149 L1218 1149 L1218 1456 L60 1456 Z M692 -135 L576 -135 L576 -244 C576 -340 551 -416 496 -497 L567 -548 C646 -473 692 -357 692 -241 L692 -135 Z " />
<glyph glyph-name="uni021B" unicode="&#x21b;" horiz-adv-x="733" d="M251 1359 L251 1082 L65 1082 L65 984 L251 984 L251 279 C251 71 340 -21 492 -21 C549 -21 611 -11 651 6 L633 95 C585 87 552 84 513 84 C428 84 372 138 372 279 L372 984 L610 984 L610 1082 L372 1082 L372 1359 L251 1359 Z M517 -135 L401 -135 L401 -244 C401 -340 376 -416 321 -497 L392 -548 C471 -473 517 -357 517 -241 L517 -135 Z " />
<glyph glyph-name="uni0237" unicode="&#x237;" horiz-adv-x="570" d="M411 1082 L128 1082 L128 993 L291 980 L291 -89 C291 -244 224 -335 108 -335 C79 -335 29 -327 9 -319 L-4 -418 C33 -430 67 -437 108 -437 C299 -437 411 -312 411 -89 L411 1082 Z " />
<glyph glyph-name="schwa" unicode="&#x259;" horiz-adv-x="1070" d="M506 1102 C333 1102 210 1047 130 963 L181 880 C254 957 355 1001 506 1001 C611 1001 696 960 761 878 C826 795 858 693 858 572 L858 543 L94 543 L94 441 C94 300 132 188 208 105 C284 22 389 -20 522 -20 C647 -20 755 31 844 132 C933 233 978 362 978 517 L978 572 C978 725 933 852 844 952 C754 1052 641 1102 506 1102 L506 1102 Z M522 81 C427 81 352 113 297 176 C242 239 214 317 214 412 L214 441 L846 441 L848 436 C837 333 802 249 743 182 C683 115 609 81 522 81 L522 81 Z " />
<glyph glyph-name="uni02BC" unicode="&#x2bc;" horiz-adv-x="364" d="M273 1560 L154 1560 L154 1382 C154 1275 125 1194 62 1107 L133 1055 C220 1135 273 1260 273 1385 L273 1560 Z " />
<glyph glyph-name="circumflex" unicode="&#x2c6;" horiz-adv-x="801" d="M428 1494 L330 1494 L104 1273 L104 1252 L213 1252 L379 1420 L546 1252 L658 1252 L658 1270 L428 1494 Z " />
<glyph glyph-name="caron" unicode="&#x2c7;" horiz-adv-x="779" d="M204 1494 L90 1494 L90 1477 L321 1252 L419 1252 L652 1477 L652 1494 L537 1494 L370 1325 L204 1494 Z " />
<glyph glyph-name="breve" unicode="&#x2d8;" horiz-adv-x="827" d="M594 1456 C594 1356 533 1285 408 1285 C279 1285 221 1353 221 1456 L127 1456 L125 1450 C122 1375 146 1315 197 1268 C248 1221 319 1198 408 1198 C496 1198 566 1222 617 1269 C668 1316 693 1376 690 1450 L688 1456 L594 1456 Z " />
<glyph glyph-name="dotaccent" unicode="&#x2d9;" horiz-adv-x="499" d="M303 1456 L152 1456 L152 1288 L303 1288 L303 1456 Z " />
<glyph glyph-name="ring" unicode="&#x2da;" horiz-adv-x="652" d="M138 1324 C138 1277 154 1238 187 1207 C220 1176 260 1161 307 1161 C353 1161 392 1176 425 1207 C457 1238 473 1277 473 1324 C473 1370 457 1409 424 1442 C391 1474 352 1490 307 1490 C260 1490 221 1474 188 1442 C155 1409 138 1370 138 1324 L138 1324 Z M216 1324 C216 1377 256 1417 307 1417 C356 1417 394 1377 394 1324 C394 1271 356 1233 307 1233 C256 1233 216 1272 216 1324 L216 1324 Z " />
<glyph glyph-name="ogonek" unicode="&#x2db;" horiz-adv-x="440" d="M248 37 C125 -34 54 -130 54 -223 C54 -330 126 -392 227 -392 C294 -392 340 -373 379 -348 L355 -265 C323 -284 293 -297 250 -297 C182 -297 161 -253 161 -212 C161 -137 213 -80 309 0 L248 37 Z " />
<glyph glyph-name="tilde" unicode="&#x2dc;" horiz-adv-x="934" d="M711 1501 C711 1428 660 1374 599 1374 C564 1374 520 1392 465 1429 C410 1466 360 1484 317 1484 C262 1484 216 1465 181 1426 C145 1387 127 1338 127 1281 L206 1263 C206 1335 254 1387 317 1387 C353 1387 397 1369 448 1332 C499 1295 550 1277 599 1277 C654 1277 699 1296 736 1335 C773 1374 791 1422 791 1481 L711 1501 Z " />
<glyph glyph-name="hungarumlaut" unicode="&#x2dd;" horiz-adv-x="892" d="M352 1258 L354 1252 L468 1252 L763 1512 L761 1518 L617 1518 L352 1258 Z M108 1257 L111 1252 L213 1252 L457 1512 L454 1518 L321 1518 L108 1257 Z " />
<glyph glyph-name="uni02F3" unicode="&#x2f3;" horiz-adv-x="437" d="M72 -237 C72 -274 86 -305 115 -332 C144 -359 178 -372 218 -372 C257 -372 290 -359 318 -333 C346 -306 360 -274 360 -237 C360 -198 346 -165 318 -138 C290 -111 257 -97 218 -97 C178 -97 144 -111 115 -139 C86 -166 72 -199 72 -237 L72 -237 Z M144 -237 C144 -198 178 -166 218 -166 C257 -166 289 -198 289 -237 C289 -273 257 -304 218 -304 C178 -304 144 -272 144 -237 L144 -237 Z " />
<glyph glyph-name="gravecomb" unicode="&#x300;" horiz-adv-x="492" d="M212 1532 L87 1532 L255 1214 L351 1214 L212 1532 Z " />
<glyph glyph-name="acutecomb" unicode="&#x301;" horiz-adv-x="483" d="M118 1215 L206 1215 L378 1533 L258 1533 L118 1215 Z " />
<glyph glyph-name="tildecomb" unicode="&#x303;" horiz-adv-x="423" d="M-241 1501 C-241 1428 -292 1374 -353 1374 C-388 1374 -433 1392 -488 1429 C-543 1466 -592 1484 -635 1484 C-690 1484 -736 1465 -772 1426 C-807 1387 -825 1338 -825 1281 L-746 1263 C-746 1335 -698 1387 -635 1387 C-599 1387 -555 1369 -504 1332 C-453 1295 -402 1277 -353 1277 C-298 1277 -253 1296 -216 1335 C-179 1374 -161 1422 -161 1481 L-241 1501 Z " />
<glyph glyph-name="hook" unicode="&#x309;" horiz-adv-x="569" d="M259 1234 L260 1296 C363 1305 435 1353 435 1452 C435 1557 322 1625 142 1625 L135 1548 C190 1548 238 1540 277 1525 C316 1510 335 1486 335 1453 C335 1392 287 1367 168 1359 L169 1234 L259 1234 Z " />
<glyph glyph-name="uni030F" unicode="&#x30f;" horiz-adv-x="892" d="M232 1518 L88 1518 L86 1512 L381 1252 L494 1252 L496 1258 L232 1518 Z M528 1518 L394 1518 L391 1512 L636 1252 L738 1252 L741 1257 L528 1518 Z " />
<glyph glyph-name="dotbelow" unicode="&#x323;" horiz-adv-x="358" d="M252 -147 L100 -147 L100 -315 L252 -315 L252 -147 Z " />
<glyph glyph-name="tonos" unicode="&#x384;" horiz-adv-x="476" d="M136 1288 L207 1288 L366 1617 L214 1617 L136 1288 Z " />
<glyph glyph-name="dieresistonos" unicode="&#x385;" horiz-adv-x="984" d="M803 1456 L644 1456 L644 1304 L803 1304 L803 1456 Z M310 1456 L151 1456 L151 1304 L310 1304 L310 1456 Z M425 1412 L513 1412 L635 1664 L461 1664 L425 1412 Z " />
<glyph glyph-name="Alphatonos" unicode="&#x386;" horiz-adv-x="1485" d="M55 0 L413 0 L413 88 L286 98 L407 424 L1061 424 L1181 98 L1054 88 L1054 0 L1413 0 L1413 88 L1304 96 L792 1456 L679 1456 L162 96 L55 88 L55 0 Z M733 1301 L739 1301 L1022 531 L447 531 L733 1301 Z M160 1288 L231 1288 L390 1617 L238 1617 L160 1288 Z " />
<glyph glyph-name="anoteleia" unicode="&#x387;" horiz-adv-x="492" d="M313 804 L159 804 L159 624 L313 624 L313 804 Z " />
<glyph glyph-name="Epsilontonos" unicode="&#x388;" horiz-adv-x="1386" d="M1050 807 L453 807 L453 1354 L1136 1354 L1145 1136 L1251 1136 L1251 1456 L334 1456 L171 1456 L171 1367 L334 1354 L334 101 L171 88 L171 0 L1256 0 L1256 319 L1150 319 L1141 101 L453 101 L453 705 L1050 705 L1050 807 Z M-88 1290 L-17 1290 L142 1619 L-10 1619 L-88 1290 Z " />
<glyph glyph-name="Etatonos" unicode="&#x389;" horiz-adv-x="1637" d="M334 1354 L334 101 L171 88 L171 0 L616 0 L616 88 L453 101 L453 670 L1281 670 L1281 101 L1118 88 L1118 0 L1563 0 L1563 88 L1400 101 L1400 1354 L1563 1367 L1563 1456 L1400 1456 L1281 1456 L1118 1456 L1118 1367 L1281 1354 L1281 772 L453 772 L453 1354 L616 1367 L616 1456 L171 1456 L171 1367 L334 1354 Z M-104 1290 L-33 1290 L126 1619 L-26 1619 L-104 1290 Z " />
<glyph glyph-name="Iotatonos" unicode="&#x38a;" horiz-adv-x="727" d="M354 1354 L354 101 L191 88 L191 0 L637 0 L637 88 L474 101 L474 1354 L637 1367 L637 1456 L191 1456 L191 1367 L354 1354 Z M-93 1288 L-22 1288 L137 1617 L-15 1617 L-93 1288 Z " />
<glyph glyph-name="Omicrontonos" unicode="&#x38c;" horiz-adv-x="1488" d="M1377 737 C1377 955 1319 1133 1202 1271 C1085 1408 933 1477 746 1477 C562 1477 413 1408 298 1271 C183 1133 126 955 126 737 L126 718 C126 500 184 322 299 185 C414 48 563 -21 747 -21 C934 -21 1085 48 1202 185 C1319 322 1377 499 1377 718 L1377 737 Z M1257 718 C1257 527 1212 374 1121 258 C1030 141 905 83 747 83 C593 83 471 141 381 258 C291 375 246 528 246 718 L246 739 C246 928 291 1080 381 1197 C470 1314 592 1372 746 1372 C903 1372 1027 1314 1119 1197 C1211 1080 1257 928 1257 739 L1257 718 Z M8 1288 L79 1288 L238 1617 L86 1617 L8 1288 Z " />
<glyph glyph-name="Upsilontonos" unicode="&#x38e;" horiz-adv-x="1523" d="M555 1456 L155 1456 L155 1367 L278 1357 L748 539 L748 101 L585 88 L585 0 L1031 0 L1031 88 L868 101 L868 532 L1342 1357 L1466 1367 L1466 1456 L1065 1456 L1065 1367 L1205 1357 L809 647 L415 1357 L555 1367 L555 1456 Z M-147 1285 L-76 1285 L83 1614 L-69 1614 L-147 1285 Z " />
<glyph glyph-name="Omegatonos" unicode="&#x38f;" horiz-adv-x="1364" d="M765 0 L1228 0 L1228 101 L903 101 C1004 160 1089 249 1157 367 C1224 485 1258 618 1258 767 L1258 813 C1258 1005 1204 1164 1096 1289 C988 1414 849 1477 678 1477 C507 1477 368 1414 261 1289 C154 1164 100 1005 100 813 L100 767 C100 618 134 485 202 367 C269 249 355 160 458 101 L136 101 L136 0 L599 0 L599 134 C496 165 407 235 332 343 C257 450 220 592 220 767 L220 815 C220 984 261 1119 344 1222 C427 1324 538 1375 678 1375 C818 1375 930 1324 1013 1222 C1096 1119 1138 984 1138 815 L1138 767 C1138 592 1101 450 1028 343 C955 235 867 165 765 134 L765 0 Z M22 1288 L93 1288 L252 1617 L100 1617 L22 1288 Z " />
<glyph glyph-name="iotadieresistonos" unicode="&#x390;" horiz-adv-x="628" d="M312 1082 L29 1082 L29 993 L192 980 L192 279 C192 67 271 -21 435 -21 C490 -21 535 -13 582 11 L557 100 C518 88 492 83 457 83 C365 83 312 133 312 274 L312 1082 Z M594 1401 L435 1401 L435 1249 L594 1249 L594 1401 Z M101 1401 L-58 1401 L-58 1249 L101 1249 L101 1401 Z M216 1357 L304 1357 L426 1609 L252 1609 L216 1357 Z " />
<glyph glyph-name="Alpha" unicode="&#x391;" horiz-adv-x="1485" d="M55 0 L413 0 L413 88 L286 98 L407 424 L1061 424 L1181 98 L1054 88 L1054 0 L1413 0 L1413 88 L1304 96 L792 1456 L679 1456 L162 96 L55 88 L55 0 Z M733 1301 L739 1301 L1022 531 L447 531 L733 1301 Z " />
<glyph glyph-name="Beta" unicode="&#x392;" horiz-adv-x="1322" d="M234 1456 L71 1456 L71 1367 L234 1354 L234 101 L71 88 L71 0 L737 0 C878 0 991 35 1076 105 C1160 175 1202 275 1202 405 C1202 493 1174 571 1119 638 C1064 705 992 747 903 763 C976 784 1033 823 1076 878 C1118 933 1139 998 1139 1073 C1139 1329 962 1456 659 1456 L234 1456 Z M756 702 C862 702 943 674 999 618 C1054 562 1082 490 1082 403 C1082 308 1051 234 990 181 C929 128 844 101 737 101 L353 101 L353 702 L756 702 Z M353 1354 L659 1354 C894 1354 1019 1261 1019 1077 C1019 897 899 803 688 803 L353 803 L353 1354 Z " />
<glyph glyph-name="Gamma" unicode="&#x393;" horiz-adv-x="1209" d="M77 0 L522 0 L522 88 L359 101 L359 1354 L1000 1354 L1009 1149 L1116 1149 L1116 1456 L77 1456 L77 1367 L240 1354 L240 101 L77 88 L77 0 Z " />
<glyph glyph-name="&amp;#x394;" unicode="&#x394;" horiz-adv-x="1417" d="M647 1456 L31 0 L1358 0 L760 1456 L647 1456 Z M699 1306 L705 1306 L1192 101 L197 101 L699 1306 Z " />
<glyph glyph-name="&amp;#x2206;" unicode="&#x2206;" horiz-adv-x="1417" d="M647 1456 L31 0 L1358 0 L760 1456 L647 1456 Z M699 1306 L705 1306 L1192 101 L197 101 L699 1306 Z " />
<glyph glyph-name="Epsilon" unicode="&#x395;" horiz-adv-x="1286" d="M950 807 L353 807 L353 1354 L1036 1354 L1045 1136 L1151 1136 L1151 1456 L234 1456 L71 1456 L71 1367 L234 1354 L234 101 L71 88 L71 0 L1156 0 L1156 319 L1050 319 L1041 101 L353 101 L353 705 L950 705 L950 807 Z " />
<glyph glyph-name="Zeta" unicode="&#x396;" horiz-adv-x="1220" d="M1128 0 L1128 306 L1021 306 L1012 101 L234 101 L1095 1369 L1095 1456 L118 1456 L118 1149 L225 1149 L233 1354 L949 1354 L92 92 L92 0 L1128 0 Z " />
<glyph glyph-name="Eta" unicode="&#x397;" horiz-adv-x="1537" d="M234 1354 L234 101 L71 88 L71 0 L516 0 L516 88 L353 101 L353 670 L1181 670 L1181 101 L1018 88 L1018 0 L1463 0 L1463 88 L1300 101 L1300 1354 L1463 1367 L1463 1456 L1300 1456 L1181 1456 L1018 1456 L1018 1367 L1181 1354 L1181 772 L353 772 L353 1354 L516 1367 L516 1456 L71 1456 L71 1367 L234 1354 Z " />
<glyph glyph-name="Theta" unicode="&#x398;" horiz-adv-x="1386" d="M966 777 L412 777 L412 676 L966 676 L966 777 Z M1351 737 C1351 955 1293 1133 1176 1271 C1059 1408 907 1477 720 1477 C536 1477 387 1408 272 1271 C157 1133 100 955 100 737 L100 718 C100 500 158 322 273 185 C388 48 537 -21 721 -21 C908 -21 1059 48 1176 185 C1293 322 1351 499 1351 718 L1351 737 Z M1231 718 C1231 527 1186 374 1095 258 C1004 141 879 83 721 83 C567 83 445 141 355 258 C265 375 220 528 220 718 L220 739 C220 928 265 1080 355 1197 C444 1314 566 1372 720 1372 C877 1372 1001 1314 1093 1197 C1185 1080 1231 928 1231 739 L1231 718 Z " />
<glyph glyph-name="Iota" unicode="&#x399;" horiz-adv-x="627" d="M254 1354 L254 101 L91 88 L91 0 L537 0 L537 88 L374 101 L374 1354 L537 1367 L537 1456 L91 1456 L91 1367 L254 1354 Z " />
<glyph glyph-name="Kappa" unicode="&#x39a;" horiz-adv-x="1417" d="M71 0 L516 0 L516 88 L353 101 L353 685 L553 685 L1076 96 L938 88 L938 0 L1353 0 L1353 88 L1222 100 L660 740 L1181 1355 L1309 1367 L1309 1456 L902 1456 L902 1367 L1042 1359 L552 786 L353 786 L353 1354 L516 1367 L516 1456 L71 1456 L71 1367 L234 1354 L234 101 L71 88 L71 0 Z " />
<glyph glyph-name="Lambda" unicode="&#x39b;" horiz-adv-x="1442" d="M52 0 L410 0 L410 88 L282 98 L710 1285 L716 1285 L1145 98 L1018 88 L1018 0 L1377 0 L1377 88 L1269 96 L770 1456 L657 1456 L158 96 L52 88 L52 0 Z " />
<glyph glyph-name="Mu" unicode="&#x39c;" horiz-adv-x="1861" d="M1508 643 L1508 101 L1345 88 L1345 0 L1790 0 L1790 88 L1627 101 L1627 1354 L1790 1367 L1790 1456 L1469 1456 L932 174 L926 174 L391 1456 L234 1456 L71 1456 L71 1367 L234 1354 L234 101 L71 88 L71 0 L516 0 L516 88 L353 101 L353 643 L342 1275 L348 1276 L888 0 L971 0 L1512 1282 L1518 1280 L1508 643 Z " />
<glyph glyph-name="Nu" unicode="&#x39d;" horiz-adv-x="1536" d="M1306 1456 L1024 1456 L1024 1367 L1187 1354 L1187 207 L1181 206 L354 1456 L234 1456 L71 1456 L71 1367 L234 1354 L234 101 L71 88 L71 0 L517 0 L517 88 L354 101 L354 1251 L360 1252 L1187 0 L1306 0 L1306 1354 L1469 1367 L1469 1456 L1306 1456 Z " />
<glyph glyph-name="Xi" unicode="&#x39e;" horiz-adv-x="1194" d="M1120 0 L1120 306 L1014 306 L1004 101 L195 101 L187 306 L80 306 L80 0 L1120 0 Z M92 1456 L92 1149 L199 1149 L207 1354 L978 1354 L987 1149 L1093 1149 L1093 1456 L92 1456 Z M290 682 L901 682 L901 784 L290 784 L290 682 Z " />
<glyph glyph-name="Omicron" unicode="&#x39f;" horiz-adv-x="1468" d="M1357 737 C1357 955 1299 1133 1182 1271 C1065 1408 913 1477 726 1477 C542 1477 393 1408 278 1271 C163 1133 106 955 106 737 L106 718 C106 500 164 322 279 185 C394 48 543 -21 727 -21 C914 -21 1065 48 1182 185 C1299 322 1357 499 1357 718 L1357 737 Z M1237 718 C1237 527 1192 374 1101 258 C1010 141 885 83 727 83 C573 83 451 141 361 258 C271 375 226 528 226 718 L226 739 C226 928 271 1080 361 1197 C450 1314 572 1372 726 1372 C883 1372 1007 1314 1099 1197 C1191 1080 1237 928 1237 739 L1237 718 Z " />
<glyph glyph-name="Pi" unicode="&#x3a0;" horiz-adv-x="1561" d="M77 0 L522 0 L522 88 L359 101 L359 1354 L1188 1354 L1188 101 L1025 88 L1025 0 L1470 0 L1470 88 L1307 101 L1307 1354 L1470 1367 L1470 1456 L77 1456 L77 1367 L240 1354 L240 101 L77 88 L77 0 Z " />
<glyph glyph-name="Rho" unicode="&#x3a1;" horiz-adv-x="1276" d="M234 1456 L71 1456 L71 1367 L234 1354 L234 101 L71 88 L71 0 L516 0 L516 88 L353 101 L353 605 L685 605 C838 605 956 644 1040 721 C1123 798 1165 902 1165 1031 C1165 1159 1123 1262 1040 1340 C956 1417 838 1456 685 1456 L234 1456 Z M353 1354 L685 1354 C806 1354 896 1323 956 1262 C1016 1200 1046 1122 1046 1029 C1046 936 1016 860 956 799 C895 738 805 707 685 707 L353 707 L353 1354 Z " />
<glyph glyph-name="Sigma" unicode="&#x3a3;" horiz-adv-x="1173" d="M718 779 L241 1349 L243 1354 L915 1354 L924 1149 L1031 1149 L1031 1456 L79 1456 L79 1363 L594 759 L79 93 L79 0 L1086 0 L1086 306 L980 306 L970 102 L229 102 L718 743 L718 779 Z " />
<glyph glyph-name="Tau" unicode="&#x3a4;" horiz-adv-x="1280" d="M60 1456 L60 1149 L167 1149 L175 1354 L579 1354 L579 101 L416 88 L416 0 L862 0 L862 88 L699 101 L699 1354 L1103 1354 L1112 1149 L1218 1149 L1218 1456 L60 1456 Z " />
<glyph glyph-name="Upsilon" unicode="&#x3a5;" horiz-adv-x="1423" d="M455 1456 L55 1456 L55 1367 L178 1357 L648 539 L648 101 L485 88 L485 0 L931 0 L931 88 L768 101 L768 532 L1242 1357 L1366 1367 L1366 1456 L965 1456 L965 1367 L1105 1357 L709 647 L315 1357 L455 1367 L455 1456 Z " />
<glyph glyph-name="Phi" unicode="&#x3a6;" horiz-adv-x="1458" d="M661 211 L661 101 L498 88 L498 0 L944 0 L944 88 L781 101 L781 211 L783 211 C954 211 1093 260 1202 359 C1310 457 1364 581 1364 732 C1364 881 1310 1004 1202 1103 C1093 1201 954 1250 783 1250 L781 1250 L781 1354 L944 1367 L944 1456 L661 1456 L498 1456 L498 1367 L661 1354 L661 1250 L659 1250 C487 1250 347 1201 240 1102 C133 1003 79 879 79 730 C79 579 133 455 240 358 C347 260 487 211 659 211 L661 211 Z M785 1148 C926 1148 1038 1110 1121 1033 C1204 956 1245 855 1245 732 C1245 607 1204 505 1122 428 C1039 351 927 312 785 312 L781 312 L781 1148 L785 1148 Z M661 1148 L661 312 L659 312 C516 312 403 350 321 427 C239 504 198 605 198 730 C198 853 239 953 322 1031 C404 1109 516 1148 659 1148 L661 1148 Z " />
<glyph glyph-name="Chi" unicode="&#x3a7;" horiz-adv-x="1397" d="M54 0 L453 0 L453 88 L315 94 L700 647 L1084 94 L947 88 L947 0 L1346 0 L1346 88 L1223 98 L770 738 L1207 1357 L1329 1367 L1329 1456 L930 1456 L930 1367 L1067 1361 L698 829 L330 1361 L469 1367 L469 1456 L69 1456 L69 1367 L191 1357 L629 738 L176 98 L54 88 L54 0 Z " />
<glyph glyph-name="Psi" unicode="&#x3a8;" horiz-adv-x="1640" d="M855 1456 L735 1456 L572 1456 L572 1367 L735 1354 L735 499 L729 497 C612 504 518 547 446 626 C373 704 337 807 337 936 L337 1456 L218 1456 L55 1456 L55 1367 L218 1354 L218 936 C218 773 265 643 360 547 C455 451 580 398 735 388 L735 101 L572 88 L572 0 L1018 0 L1018 88 L855 101 L855 388 C1013 397 1140 450 1237 546 C1334 642 1382 772 1382 936 L1382 1354 L1545 1367 L1545 1456 L1263 1456 L1263 936 C1263 807 1226 703 1152 624 C1077 545 980 503 861 497 L855 499 L855 1354 L1018 1367 L1018 1456 L855 1456 Z " />
<glyph glyph-name="&amp;#x3a9;" unicode="&#x3a9;" horiz-adv-x="1344" d="M745 0 L1208 0 L1208 101 L883 101 C984 160 1069 249 1137 367 C1204 485 1238 618 1238 767 L1238 813 C1238 1005 1184 1164 1076 1289 C968 1414 829 1477 658 1477 C487 1477 348 1414 241 1289 C134 1164 80 1005 80 813 L80 767 C80 618 114 485 182 367 C249 249 335 160 438 101 L116 101 L116 0 L579 0 L579 134 C476 165 387 235 312 343 C237 450 200 592 200 767 L200 815 C200 984 241 1119 324 1222 C407 1324 518 1375 658 1375 C798 1375 910 1324 993 1222 C1076 1119 1118 984 1118 815 L1118 767 C1118 592 1081 450 1008 343 C935 235 847 165 745 134 L745 0 Z " />
<glyph glyph-name="&amp;#x2126;" unicode="&#x2126;" horiz-adv-x="1344" d="M745 0 L1208 0 L1208 101 L883 101 C984 160 1069 249 1137 367 C1204 485 1238 618 1238 767 L1238 813 C1238 1005 1184 1164 1076 1289 C968 1414 829 1477 658 1477 C487 1477 348 1414 241 1289 C134 1164 80 1005 80 813 L80 767 C80 618 114 485 182 367 C249 249 335 160 438 101 L116 101 L116 0 L579 0 L579 134 C476 165 387 235 312 343 C237 450 200 592 200 767 L200 815 C200 984 241 1119 324 1222 C407 1324 518 1375 658 1375 C798 1375 910 1324 993 1222 C1076 1119 1118 984 1118 815 L1118 767 C1118 592 1081 450 1008 343 C935 235 847 165 745 134 L745 0 Z " />
<glyph glyph-name="Iotadieresis" unicode="&#x3aa;" horiz-adv-x="627" d="M254 1354 L254 101 L91 88 L91 0 L537 0 L537 88 L374 101 L374 1354 L537 1367 L537 1456 L91 1456 L91 1367 L254 1354 Z M637 1797 L464 1797 L464 1640 L637 1640 L637 1797 Z M168 1797 L-6 1797 L-6 1640 L168 1640 L168 1797 Z " />
<glyph glyph-name="Upsilondieresis" unicode="&#x3ab;" horiz-adv-x="1423" d="M455 1456 L55 1456 L55 1367 L178 1357 L648 539 L648 101 L485 88 L485 0 L931 0 L931 88 L768 101 L768 532 L1242 1357 L1366 1367 L1366 1456 L965 1456 L965 1367 L1105 1357 L709 647 L315 1357 L455 1367 L455 1456 Z M1028 1791 L855 1791 L855 1634 L1028 1634 L1028 1791 Z M559 1791 L385 1791 L385 1634 L559 1634 L559 1791 Z " />
<glyph glyph-name="alphatonos" unicode="&#x3ac;" horiz-adv-x="1204" d="M868 1082 L854 896 C783 1028 672 1102 519 1102 C388 1102 287 1050 214 947 C141 843 104 705 104 532 L104 511 C104 349 141 220 214 124 C287 27 388 -21 517 -21 C672 -21 785 49 856 176 C873 37 934 -21 1041 -21 C1077 -21 1108 -15 1139 2 L1122 95 C1099 88 1088 87 1072 87 C1008 87 971 135 971 274 L971 1082 L868 1082 Z M224 532 C224 670 251 783 304 870 C357 957 436 1000 541 1000 C618 1000 682 975 733 926 C784 877 823 813 851 735 L851 322 C794 171 695 80 539 80 C434 80 355 119 303 198 C250 276 224 380 224 511 L224 532 Z M520 1251 L591 1251 L750 1580 L598 1580 L520 1251 Z " />
<glyph glyph-name="epsilontonos" unicode="&#x3ad;" horiz-adv-x="1093" d="M105 297 C105 199 146 122 228 66 C309 10 416 -18 547 -18 C668 -18 773 10 862 65 C950 120 992 200 989 304 L987 310 L877 310 C877 245 846 191 785 148 C724 104 644 82 547 82 C344 82 225 167 225 295 C225 436 331 502 543 502 L728 502 L728 602 L543 602 C338 602 244 673 244 796 C244 913 346 998 547 998 C635 998 709 979 770 940 C830 901 860 851 860 790 L969 790 L971 796 C974 885 935 958 852 1015 C769 1071 668 1099 547 1099 C416 1099 313 1073 238 1020 C162 967 124 891 124 794 C124 690 198 600 329 555 C181 515 105 426 105 297 L105 297 Z M498 1252 L569 1252 L728 1581 L576 1581 L498 1252 Z " />
<glyph glyph-name="etatonos" unicode="&#x3ae;" horiz-adv-x="1203" d="M333 0 L333 775 C381 912 484 1000 649 1000 C735 1000 801 974 848 922 C894 870 917 782 917 658 L917 -415 L1036 -415 L1036 659 C1036 970 913 1102 677 1102 C520 1102 404 1029 333 904 L333 914 C333 1042 280 1096 169 1096 C106 1096 39 1074 -4 1046 L27 955 C59 971 100 983 137 983 C186 983 213 960 213 891 L212 0 L333 0 Z M573 1251 L644 1251 L803 1580 L651 1580 L573 1251 Z " />
<glyph glyph-name="iotatonos" unicode="&#x3af;" horiz-adv-x="628" d="M312 1082 L29 1082 L29 993 L192 980 L192 279 C192 67 271 -21 435 -21 C490 -21 535 -13 582 11 L557 100 C518 88 492 83 457 83 C365 83 312 133 312 274 L312 1082 Z M214 1240 L285 1240 L444 1569 L292 1569 L214 1240 Z " />
<glyph glyph-name="upsilondieresistonos" unicode="&#x3b0;" horiz-adv-x="1192" d="M348 916 C348 1045 296 1099 184 1099 C121 1099 58 1080 11 1049 L42 958 C73 973 115 985 152 985 C201 985 229 962 229 894 L229 407 C229 115 363 -21 595 -21 C739 -21 850 32 928 137 C1005 242 1044 377 1044 542 C1044 654 1035 752 1016 836 C997 920 971 1002 938 1082 L808 1082 C879 905 922 727 925 540 C925 415 896 308 838 217 C779 126 696 80 589 80 C441 80 348 181 348 405 L348 916 Z M878 1401 L719 1401 L719 1249 L878 1249 L878 1401 Z M385 1401 L226 1401 L226 1249 L385 1249 L385 1401 Z M500 1357 L588 1357 L710 1609 L536 1609 L500 1357 Z " />
<glyph glyph-name="alpha" unicode="&#x3b1;" horiz-adv-x="1204" d="M868 1082 L854 896 C783 1028 672 1102 519 1102 C388 1102 287 1050 214 947 C141 843 104 705 104 532 L104 511 C104 349 141 220 214 124 C287 27 388 -21 517 -21 C672 -21 785 49 856 176 C873 37 934 -21 1041 -21 C1077 -21 1108 -15 1139 2 L1122 95 C1099 88 1088 87 1072 87 C1008 87 971 135 971 274 L971 1082 L868 1082 Z M224 532 C224 670 251 783 304 870 C357 957 436 1000 541 1000 C618 1000 682 975 733 926 C784 877 823 813 851 735 L851 322 C794 171 695 80 539 80 C434 80 355 119 303 198 C250 276 224 380 224 511 L224 532 Z " />
<glyph glyph-name="beta" unicode="&#x3b2;" horiz-adv-x="1158" d="M560 1477 C445 1477 347 1437 266 1357 C185 1277 144 1179 144 1063 L144 -399 L263 -399 L263 108 C346 23 478 -21 606 -21 C741 -21 849 17 932 92 C1015 167 1056 271 1056 404 C1056 588 954 730 770 782 C895 842 969 958 969 1093 C969 1206 932 1298 857 1370 C782 1441 683 1477 560 1477 L560 1477 Z M462 823 L462 721 L605 721 C709 721 790 691 849 631 C907 570 936 493 936 400 C936 301 907 223 848 166 C789 109 705 80 597 80 C450 80 323 141 263 238 L263 1063 C263 1152 292 1227 349 1286 C406 1345 476 1375 560 1375 C653 1375 724 1348 775 1293 C825 1238 850 1173 850 1098 C850 923 757 823 556 823 L462 823 Z " />
<glyph glyph-name="gamma" unicode="&#x3b3;" horiz-adv-x="1085" d="M1078 1082 L720 1082 L720 993 L856 982 L598 271 L560 143 L554 143 L520 271 L297 927 C276 990 251 1033 224 1057 C196 1080 157 1092 108 1092 C68 1092 21 1080 -6 1065 L11 973 C30 980 56 988 80 988 C108 988 131 981 148 967 C165 953 182 921 200 872 L497 23 L497 -415 L617 -415 L617 31 L979 985 L1078 993 L1078 1082 Z " />
<glyph glyph-name="delta" unicode="&#x3b4;" horiz-adv-x="1140" d="M218 1289 C218 1176 290 1077 442 1020 L440 1009 C346 991 264 939 195 853 C126 767 91 661 91 536 L91 504 C91 350 135 224 222 127 C309 29 426 -20 571 -20 C715 -20 831 29 918 127 C1005 224 1048 350 1048 504 L1048 536 C1048 662 1011 773 937 869 C862 965 755 1033 615 1073 C512 1100 441 1131 400 1167 C359 1202 338 1244 338 1291 C338 1343 361 1384 407 1414 C452 1444 511 1459 582 1459 C693 1459 772 1434 863 1394 L893 1482 C797 1535 690 1563 583 1563 C473 1563 385 1538 318 1487 C251 1436 218 1370 218 1289 L218 1289 Z M212 536 C212 651 245 750 311 832 C376 913 467 954 583 954 C678 937 759 889 827 810 C894 731 928 639 928 536 L928 504 C928 384 896 283 833 202 C770 121 682 80 571 80 C458 80 370 121 307 202 C244 283 212 384 212 504 L212 536 Z " />
<glyph glyph-name="epsilon" unicode="&#x3b5;" horiz-adv-x="1093" d="M105 297 C105 199 146 122 228 66 C309 10 416 -18 547 -18 C668 -18 773 10 862 65 C950 120 992 200 989 304 L987 310 L877 310 C877 245 846 191 785 148 C724 104 644 82 547 82 C344 82 225 167 225 295 C225 436 331 502 543 502 L728 502 L728 602 L543 602 C338 602 244 673 244 796 C244 913 346 998 547 998 C635 998 709 979 770 940 C830 901 860 851 860 790 L969 790 L971 796 C974 885 935 958 852 1015 C769 1071 668 1099 547 1099 C416 1099 313 1073 238 1020 C162 967 124 891 124 794 C124 690 198 600 329 555 C181 515 105 426 105 297 L105 297 Z " />
<glyph glyph-name="zeta" unicode="&#x3b6;" horiz-adv-x="1007" d="M73 1456 L73 1354 L773 1354 L776 1349 L437 932 C253 707 180 515 180 360 C180 267 207 194 261 143 C314 91 405 49 532 16 L622 -7 C734 -36 781 -66 781 -126 C781 -202 729 -274 662 -330 L730 -387 C769 -362 806 -324 842 -271 C877 -218 895 -165 896 -112 C896 -52 878 -9 842 17 C805 42 745 66 661 89 L552 120 C372 161 299 230 299 363 C299 444 317 524 352 602 C387 680 446 771 529 874 L925 1378 L925 1456 L73 1456 Z " />
<glyph glyph-name="eta" unicode="&#x3b7;" horiz-adv-x="1203" d="M333 0 L333 775 C381 912 484 1000 649 1000 C735 1000 801 974 848 922 C894 870 917 782 917 658 L917 -415 L1036 -415 L1036 659 C1036 970 913 1102 677 1102 C520 1102 404 1029 333 904 L333 914 C333 1042 280 1096 169 1096 C106 1096 39 1074 -4 1046 L27 955 C59 971 100 983 137 983 C186 983 213 960 213 891 L212 0 L333 0 Z " />
<glyph glyph-name="theta" unicode="&#x3b8;" horiz-adv-x="1152" d="M1033 890 C1033 1077 993 1222 913 1324 C832 1426 721 1477 579 1477 C438 1477 327 1426 248 1324 C168 1222 128 1077 128 890 L128 565 C128 378 168 233 249 132 C329 30 440 -21 581 -21 C723 -21 834 30 914 131 C993 232 1033 377 1033 565 L1033 890 Z M247 910 C247 1207 363 1375 579 1375 C796 1375 913 1209 913 910 L913 775 L247 775 L247 910 Z M913 547 C913 250 797 80 581 80 C366 80 247 251 247 547 L247 673 L913 673 L913 547 Z " />
<glyph glyph-name="iota" unicode="&#x3b9;" horiz-adv-x="628" d="M312 1082 L29 1082 L29 993 L192 980 L192 279 C192 67 271 -21 435 -21 C490 -21 535 -13 582 11 L557 100 C518 88 492 83 457 83 C365 83 312 133 312 274 L312 1082 Z " />
<glyph glyph-name="kappa" unicode="&#x3ba;" horiz-adv-x="1202" d="M62 0 L507 0 L507 88 L344 101 L344 527 L483 527 L942 0 L1125 0 L1125 88 L1005 99 L585 587 L967 981 L1094 993 L1094 1082 L712 1082 L712 993 L809 986 L811 981 L471 630 L344 630 L344 1081 L66 1081 L66 993 L225 979 L225 101 L62 88 L62 0 Z " />
<glyph glyph-name="lambda" unicode="&#x3bb;" horiz-adv-x="1135" d="M470 784 L503 898 L509 898 L765 221 C794 144 825 87 860 48 C894 9 942 -11 1003 -11 C1026 -11 1055 -5 1070 0 L1062 99 C1053 95 1032 95 1020 95 C959 95 920 151 880 258 L482 1305 C461 1370 433 1421 400 1460 C366 1499 315 1518 247 1518 C222 1518 178 1512 162 1507 L167 1412 C176 1413 203 1416 214 1416 C294 1416 335 1365 371 1258 L451 1052 L35 0 L167 0 L470 784 Z " />
<glyph glyph-name="uni03BC" unicode="&#x3bc;" horiz-adv-x="1297" d="M229 1082 L66 1082 L66 993 L229 980 L229 -416 L347 -416 L347 105 C407 17 501 -21 618 -21 C763 -21 867 42 931 155 L942 0 L1208 0 L1208 88 L1045 101 L1045 1082 L762 1082 L762 993 L925 980 L925 310 C888 162 793 80 610 80 C529 80 465 107 418 161 C371 215 347 311 347 449 L347 1082 L229 1082 Z " />
<glyph glyph-name="nu" unicode="&#x3bd;" horiz-adv-x="1155" d="M411 1082 L47 1082 L47 993 L153 984 L536 0 L632 0 L1014 984 L1120 993 L1120 1082 L756 1082 L756 993 L891 983 L625 271 L587 144 L581 144 L546 271 L276 983 L411 993 L411 1082 Z " />
<glyph glyph-name="xi" unicode="&#x3be;" horiz-adv-x="1005" d="M919 1431 C852 1458 760 1475 675 1475 C526 1475 408 1446 322 1387 C235 1328 192 1245 192 1138 C192 1009 284 901 447 852 C242 792 119 652 119 448 C119 313 160 212 242 145 C323 77 441 25 594 -11 L642 -23 C761 -48 808 -76 808 -137 C808 -176 799 -208 780 -233 C761 -258 732 -288 694 -323 L759 -381 C797 -354 834 -317 870 -270 C905 -223 923 -175 923 -126 C923 -67 904 -25 866 2 C827 29 766 52 682 72 L607 88 C492 116 402 158 337 214 C272 269 239 346 239 444 C239 564 279 654 358 713 C437 772 543 801 677 801 L808 801 L808 904 L677 904 C426 904 313 990 313 1142 C313 1210 343 1266 404 1309 C464 1352 554 1374 674 1374 C750 1374 826 1358 902 1333 L919 1431 Z " />
<glyph glyph-name="omicron" unicode="&#x3bf;" horiz-adv-x="1152" d="M97 524 C97 364 141 233 228 132 C315 30 432 -21 577 -21 C721 -21 837 30 924 132 C1011 233 1054 364 1054 524 L1054 557 C1054 716 1010 847 923 949 C836 1051 720 1102 575 1102 C431 1102 315 1051 228 949 C141 847 97 716 97 557 L97 524 Z M217 557 C217 680 249 785 312 871 C375 957 463 1000 575 1000 C687 1000 775 957 839 871 C902 785 934 680 934 557 L934 524 C934 399 902 293 839 208 C776 123 688 80 577 80 C464 80 375 123 312 208 C249 293 217 399 217 524 L217 557 Z " />
<glyph glyph-name="pi" unicode="&#x3c0;" horiz-adv-x="1273" d="M1108 1082 L75 1082 L75 979 L222 979 L222 0 L342 0 L342 979 L805 979 L805 279 C805 67 884 -21 1048 -21 C1103 -21 1148 -13 1195 11 L1170 100 C1131 88 1105 83 1070 83 C978 83 925 133 925 274 L925 979 L1108 979 L1108 1082 Z " />
<glyph glyph-name="rho" unicode="&#x3c1;" horiz-adv-x="1134" d="M1002 532 C1002 706 964 845 888 948 C812 1051 705 1102 567 1102 C442 1102 338 1059 257 972 C175 885 134 764 134 608 L135 599 L134 599 L134 -416 L254 -416 L254 134 C329 34 443 -21 592 -21 C721 -21 821 27 894 124 C966 220 1002 349 1002 511 L1002 532 Z M882 511 C882 380 855 276 802 198 C749 119 670 80 565 80 C413 80 310 151 254 267 L254 596 C254 703 280 797 332 878 C383 959 462 1000 567 1000 C672 1000 750 957 803 870 C856 783 882 670 882 532 L882 511 Z " />
<glyph glyph-name="sigma1" unicode="&#x3c2;" horiz-adv-x="1090" d="M573 1102 C431 1102 319 1051 236 949 C153 846 111 717 111 562 L111 520 C111 229 285 59 594 -8 C659 -22 703 -37 726 -54 C749 -71 760 -98 760 -135 C760 -210 717 -262 652 -319 L718 -376 C753 -353 787 -317 822 -266 C857 -215 874 -167 875 -123 C875 -59 856 -13 819 16 C782 44 718 69 628 92 C371 155 232 296 232 520 L232 562 C232 685 261 789 320 874 C378 958 462 1000 573 1000 C660 1000 730 975 784 924 C838 873 865 803 865 715 L971 715 L973 721 C976 840 939 933 863 1001 C787 1068 690 1102 573 1102 L573 1102 Z " />
<glyph glyph-name="sigma" unicode="&#x3c3;" horiz-adv-x="1241" d="M1144 1082 L582 1082 C438 1082 323 1033 236 934 C149 835 105 710 105 557 L105 524 C105 364 149 233 236 132 C323 30 439 -21 584 -21 C727 -21 842 29 930 130 C1017 230 1061 355 1061 506 L1061 539 C1061 732 978 887 831 979 L1144 979 L1144 1082 Z M224 557 C224 674 256 774 319 856 C382 938 470 979 582 979 C694 979 782 938 846 856 C910 774 942 674 942 557 L942 524 C942 399 910 293 847 208 C783 123 695 80 584 80 C471 80 382 123 319 208 C256 293 224 399 224 524 L224 557 Z " />
<glyph glyph-name="tau" unicode="&#x3c4;" horiz-adv-x="1025" d="M62 1082 L62 980 L438 980 L438 279 C438 67 518 -21 681 -21 C736 -21 789 -10 834 14 L809 103 C766 90 736 83 703 83 C611 83 558 133 558 274 L558 980 L959 980 L959 1082 L62 1082 Z " />
<glyph glyph-name="upsilon" unicode="&#x3c5;" horiz-adv-x="1192" d="M348 916 C348 1045 296 1099 184 1099 C121 1099 58 1080 11 1049 L42 958 C73 973 115 985 152 985 C201 985 229 962 229 894 L229 407 C229 115 363 -21 595 -21 C739 -21 850 32 928 137 C1005 242 1044 377 1044 542 C1044 654 1035 752 1016 836 C997 920 971 1002 938 1082 L808 1082 C879 905 922 727 925 540 C925 415 896 308 838 217 C779 126 696 80 589 80 C441 80 348 181 348 405 L348 916 Z " />
<glyph glyph-name="phi" unicode="&#x3c6;" horiz-adv-x="1453" d="M635 -478 L755 -478 L755 -19 C932 -8 1066 51 1157 157 C1248 262 1293 392 1293 545 C1293 700 1251 828 1167 930 C1083 1031 980 1082 857 1082 C796 1082 744 1061 701 1019 C657 977 635 924 635 860 L635 92 L629 90 C490 99 389 147 326 235 C263 322 232 428 232 553 C233 642 251 726 286 806 C321 885 371 948 435 995 L372 1082 C212 974 113 789 113 554 C113 391 155 258 240 155 C325 51 456 -7 635 -19 L635 -478 Z M755 863 C755 931 797 979 857 979 C951 979 1027 936 1085 850 C1143 764 1173 662 1174 544 C1174 425 1139 322 1068 233 C997 144 895 96 761 88 L755 90 L755 863 Z " />
<glyph glyph-name="chi" unicode="&#x3c7;" horiz-adv-x="1192" d="M73 0 L439 0 L439 88 L328 93 L602 461 L934 0 L1132 0 L1132 88 L1010 99 L669 553 L995 982 L1116 993 L1116 1082 L749 1082 L749 993 L860 988 L606 643 L293 1081 L88 1082 L88 993 L210 982 L531 546 L194 99 L73 88 L73 0 Z " />
<glyph glyph-name="psi" unicode="&#x3c8;" horiz-adv-x="1548" d="M341 918 C341 1046 288 1100 177 1100 C113 1100 50 1081 3 1050 L35 959 C66 974 108 986 145 986 C194 986 221 963 221 895 L221 593 C220 204 402 6 721 -18 L721 -443 L841 -443 L841 -19 C1028 -10 1165 49 1253 157 C1340 265 1384 406 1384 579 C1384 682 1373 773 1350 851 C1327 928 1295 1005 1256 1082 L1125 1082 C1210 917 1263 750 1264 578 C1264 444 1231 331 1165 239 C1099 146 993 96 847 89 L841 91 L841 1081 L721 1081 L721 93 L715 91 C482 107 340 268 341 591 L341 918 Z " />
<glyph glyph-name="omega" unicode="&#x3c9;" horiz-adv-x="1666" d="M253 1082 C210 999 177 915 153 830 C128 745 116 645 116 531 C116 368 148 236 212 133 C275 30 370 -21 496 -21 C656 -21 769 63 822 232 C874 63 988 -21 1149 -21 C1274 -21 1368 31 1433 134 C1498 237 1530 369 1530 531 C1530 644 1518 743 1493 828 C1468 913 1435 997 1392 1082 L1262 1082 C1351 901 1407 720 1411 529 C1411 400 1389 293 1344 208 C1299 123 1232 80 1143 80 C983 80 883 205 883 478 L883 770 L762 770 L762 478 C762 205 660 80 501 80 C412 80 345 123 301 209 C257 294 235 401 235 529 C236 721 291 902 383 1082 L253 1082 Z " />
<glyph glyph-name="iotadieresis" unicode="&#x3ca;" horiz-adv-x="628" d="M312 1082 L29 1082 L29 993 L192 980 L192 279 C192 67 271 -21 435 -21 C490 -21 535 -13 582 11 L557 100 C518 88 492 83 457 83 C365 83 312 133 312 274 L312 1082 Z M584 1463 L411 1463 L411 1306 L584 1306 L584 1463 Z M115 1463 L-59 1463 L-59 1306 L115 1306 L115 1463 Z " />
<glyph glyph-name="upsilondieresis" unicode="&#x3cb;" horiz-adv-x="1192" d="M348 916 C348 1045 296 1099 184 1099 C121 1099 58 1080 11 1049 L42 958 C73 973 115 985 152 985 C201 985 229 962 229 894 L229 407 C229 115 363 -21 595 -21 C739 -21 850 32 928 137 C1005 242 1044 377 1044 542 C1044 654 1035 752 1016 836 C997 920 971 1002 938 1082 L808 1082 C879 905 922 727 925 540 C925 415 896 308 838 217 C779 126 696 80 589 80 C441 80 348 181 348 405 L348 916 Z M868 1463 L695 1463 L695 1306 L868 1306 L868 1463 Z M399 1463 L225 1463 L225 1306 L399 1306 L399 1463 Z " />
<glyph glyph-name="omicrontonos" unicode="&#x3cc;" horiz-adv-x="1152" d="M97 524 C97 364 141 233 228 132 C315 30 432 -21 577 -21 C721 -21 837 30 924 132 C1011 233 1054 364 1054 524 L1054 557 C1054 716 1010 847 923 949 C836 1051 720 1102 575 1102 C431 1102 315 1051 228 949 C141 847 97 716 97 557 L97 524 Z M217 557 C217 680 249 785 312 871 C375 957 463 1000 575 1000 C687 1000 775 957 839 871 C902 785 934 680 934 557 L934 524 C934 399 902 293 839 208 C776 123 688 80 577 80 C464 80 375 123 312 208 C249 293 217 399 217 524 L217 557 Z M524 1251 L595 1251 L754 1580 L602 1580 L524 1251 Z " />
<glyph glyph-name="upsilontonos" unicode="&#x3cd;" horiz-adv-x="1192" d="M348 916 C348 1045 296 1099 184 1099 C121 1099 58 1080 11 1049 L42 958 C73 973 115 985 152 985 C201 985 229 962 229 894 L229 407 C229 115 363 -21 595 -21 C739 -21 850 32 928 137 C1005 242 1044 377 1044 542 C1044 654 1035 752 1016 836 C997 920 971 1002 938 1082 L808 1082 C879 905 922 727 925 540 C925 415 896 308 838 217 C779 126 696 80 589 80 C441 80 348 181 348 405 L348 916 Z M499 1240 L570 1240 L729 1569 L577 1569 L499 1240 Z " />
<glyph glyph-name="omegatonos" unicode="&#x3ce;" horiz-adv-x="1666" d="M253 1082 C210 999 177 915 153 830 C128 745 116 645 116 531 C116 368 148 236 212 133 C275 30 370 -21 496 -21 C656 -21 769 63 822 232 C874 63 988 -21 1149 -21 C1274 -21 1368 31 1433 134 C1498 237 1530 369 1530 531 C1530 644 1518 743 1493 828 C1468 913 1435 997 1392 1082 L1262 1082 C1351 901 1407 720 1411 529 C1411 400 1389 293 1344 208 C1299 123 1232 80 1143 80 C983 80 883 205 883 478 L883 770 L762 770 L762 478 C762 205 660 80 501 80 C412 80 345 123 301 209 C257 294 235 401 235 529 C236 721 291 902 383 1082 L253 1082 Z M768 1240 L839 1240 L998 1569 L846 1569 L768 1240 Z " />
<glyph glyph-name="uni03D1" unicode="&#x3d1;" horiz-adv-x="1313" d="M620 83 C503 83 411 126 343 211 C274 296 240 408 240 549 L240 1254 L121 1252 L121 549 C121 380 167 243 259 138 C350 32 471 -21 620 -21 C777 -21 904 30 999 131 C1094 232 1141 372 1141 549 L1141 1098 C1141 1216 1114 1309 1059 1376 C1004 1443 929 1477 834 1477 C744 1477 671 1443 614 1374 C557 1305 529 1213 529 1098 L529 1036 C529 908 574 802 665 719 C755 635 874 590 1022 585 L1022 549 C1022 400 987 285 916 204 C845 123 747 83 620 83 L620 83 Z M648 1098 C648 1278 721 1372 834 1372 C957 1372 1022 1278 1022 1098 L1022 697 L1017 695 C902 698 812 732 747 795 C681 858 648 938 648 1034 L648 1098 Z " />
<glyph glyph-name="uni03D2" unicode="&#x3d2;" horiz-adv-x="1257" d="M684 813 L648 702 L642 702 L606 813 L417 1239 C346 1404 271 1467 158 1467 C117 1467 79 1457 52 1441 L75 1347 C86 1354 110 1362 138 1362 C169 1362 198 1352 224 1333 C250 1314 276 1276 302 1219 L586 601 L586 0 L706 0 L706 599 L987 1219 C1012 1276 1037 1314 1064 1333 C1090 1352 1119 1362 1152 1362 C1179 1362 1202 1354 1215 1347 L1238 1441 C1210 1457 1172 1467 1132 1467 C1017 1467 942 1404 873 1239 L684 813 Z " />
<glyph glyph-name="uni03D6" unicode="&#x3d6;" horiz-adv-x="1687" d="M1621 1082 L105 1082 L105 979 L255 979 C199 848 167 708 167 531 C167 369 198 237 259 134 C320 31 410 -21 529 -21 C689 -21 801 63 854 232 C906 63 1020 -21 1181 -21 C1300 -21 1390 31 1451 134 C1512 237 1543 369 1543 531 C1543 710 1510 850 1455 979 L1621 979 L1621 1082 Z M1424 529 C1424 400 1403 293 1362 208 C1320 123 1258 80 1176 80 C1016 80 915 205 915 478 L915 747 L794 747 L794 478 C794 205 694 80 535 80 C452 80 389 123 348 208 C307 293 286 400 286 529 C286 682 323 831 386 979 L1323 979 C1384 831 1421 684 1424 529 L1424 529 Z " />
<glyph glyph-name="uni0400" unicode="&#x400;" horiz-adv-x="1286" d="M950 807 L353 807 L353 1354 L1036 1354 L1045 1136 L1151 1136 L1151 1456 L234 1456 L71 1456 L71 1367 L234 1354 L234 101 L71 88 L71 0 L1156 0 L1156 319 L1050 319 L1041 101 L353 101 L353 705 L950 705 L950 807 Z M500 1833 L346 1833 L344 1828 L585 1567 L702 1567 L500 1833 Z " />
<glyph glyph-name="uni0401" unicode="&#x401;" horiz-adv-x="1286" d="M950 807 L353 807 L353 1354 L1036 1354 L1045 1136 L1151 1136 L1151 1456 L234 1456 L71 1456 L71 1367 L234 1354 L234 101 L71 88 L71 0 L1156 0 L1156 319 L1050 319 L1041 101 L353 101 L353 705 L950 705 L950 807 Z M949 1798 L776 1798 L776 1641 L949 1641 L949 1798 Z M480 1798 L306 1798 L306 1641 L480 1641 L480 1798 Z " />
<glyph glyph-name="uni0402" unicode="&#x402;" horiz-adv-x="1558" d="M1219 1456 L79 1456 L79 1149 L186 1149 L194 1354 L518 1354 L518 101 L355 88 L355 0 L792 0 L792 88 L638 101 L638 709 C750 750 868 779 969 779 C1206 779 1347 662 1348 423 C1348 325 1318 244 1258 181 C1197 118 1108 86 990 86 L991 -4 L996 -6 C1148 -8 1265 32 1346 115 C1427 197 1468 300 1468 423 C1468 576 1424 692 1335 769 C1246 846 1124 885 969 885 C880 885 758 855 638 814 L638 1354 L1103 1354 L1112 1149 L1219 1149 L1219 1456 Z " />
<glyph glyph-name="uni0403" unicode="&#x403;" horiz-adv-x="1209" d="M77 0 L522 0 L522 88 L359 101 L359 1354 L1000 1354 L1009 1149 L1116 1149 L1116 1456 L77 1456 L77 1367 L240 1354 L240 101 L77 88 L77 0 Z M521 1552 L628 1552 L877 1812 L874 1818 L727 1818 L521 1552 Z " />
<glyph glyph-name="uni0404" unicode="&#x404;" horiz-adv-x="1274" d="M1215 1257 C1170 1320 1105 1372 1020 1415 C935 1457 838 1478 730 1478 C539 1478 384 1409 266 1271 C147 1132 88 955 88 738 L88 719 C88 503 147 326 266 188 C385 49 537 -20 724 -20 C832 -20 930 1 1017 43 C1104 85 1170 137 1215 200 L1215 456 L1122 456 L1105 235 C1029 144 888 81 724 81 C573 81 451 137 358 249 C264 361 215 505 212 682 L214 687 L827 687 L827 788 L215 788 L213 793 C219 965 269 1105 364 1214 C458 1322 583 1376 739 1376 C902 1376 1028 1314 1105 1222 L1122 1001 L1215 1001 L1215 1257 Z " />
<glyph glyph-name="uni0405" unicode="&#x405;" horiz-adv-x="1220" d="M1099 1273 C1003 1398 831 1477 619 1477 C472 1477 351 1442 258 1372 C165 1302 118 1211 118 1100 C118 991 159 905 241 841 C323 777 444 725 603 685 C750 646 854 602 913 552 C972 501 1002 436 1002 357 C1002 274 967 207 896 156 C825 105 732 80 617 80 C456 80 312 133 224 233 L207 446 L109 446 L109 191 C222 55 409 -21 617 -21 C764 -21 885 13 980 82 C1075 151 1122 243 1122 359 C1122 582 955 710 642 790 C493 827 389 871 329 920 C268 969 238 1030 238 1103 C238 1180 272 1245 339 1297 C406 1349 499 1375 619 1375 C786 1375 912 1321 984 1230 L1001 1024 L1099 1024 L1099 1273 Z " />
<glyph glyph-name="uni0406" unicode="&#x406;" horiz-adv-x="627" d="M254 1354 L254 101 L91 88 L91 0 L537 0 L537 88 L374 101 L374 1354 L537 1367 L537 1456 L91 1456 L91 1367 L254 1354 Z " />
</font>
</svg>
